<?xml version="1.0" encoding="iso-8859-1"?>
<!-- Generator: Adobe Illustrator 16.0.3, SVG Export Plug-In . SVG Version: 6.00 Build 0)  -->
<!DOCTYPE svg PUBLIC "-//W3C//DTD SVG 1.1//EN" "http://www.w3.org/Graphics/SVG/1.1/DTD/svg11.dtd">
<svg version="1.1" id="hamburger" xmlns="http://www.w3.org/2000/svg" xmlns:xlink="http://www.w3.org/1999/xlink" x="0px" y="0px"
	 width="40px" height="40px" viewBox="0 0 40 40" enable-background="new 0 0 40 40" xml:space="preserve">
<g>
	<g>
		<g>
			<g>
				<g>
					<g>
						<path fill="#FFFFFF" d="M3.08,1.55c-0.15,0.1,0,0.48-0.12,0.19C3.02,1.54,3.07,1.38,3.08,1.55z"/>
						<path fill="#FFFFFF" d="M37.78,7.07c-0.62,1.32-0.96-0.16-1.55,0.65c-0.06,0.05,0.13-0.75-0.02-0.59
							C35.6,8.14,35,7.4,34.58,6.49l0.06-0.21c-0.08-0.17-0.31,0.52-0.4,0.4c0.02-0.14,0.07-0.2,0.07-0.4
							c-0.09,0.42-0.23,0.17-0.32,0.48C33.98,6.59,34.03,6.26,34,6.06l-0.14,0.48c-0.35,1.13-0.41-0.14-0.73,0.42
							c0.03-0.11,0.06-0.19,0.06-0.31c-0.48,0.65-0.94,0.45-1.4,0.64c0.04-0.17,0.11-0.48,0.11-0.68c-0.1,0.51-0.25,0.62-0.38,0.7
							c0.03-0.54-0.27,0.45-0.36,0.14l0.03-0.12C31.02,7.88,31.1,7,30.92,7.65V7.23c-0.16,0.74-0.08-0.41-0.22-0.04l-0.02,0.15
							c-0.1,0.17-0.09-0.21-0.18-0.09l0.01-0.09c-0.2,0.17-0.23-0.26-0.31,0.32c0.01-0.47,0.19-0.19,0.2-0.88
							c-0.64,0.52-1.19,0.32-1.74,0.24C28.63,6.6,28.6,6.52,28.62,6.3c-0.07,0.11-0.22,0.08-0.32,0.36c0.02-0.01,0.01-0.3-0.02-0.34
							c-0.07-0.23-0.21,0.62-0.28,0.35c0.07-0.15,0.11-0.33,0.13-0.55c-0.16,0.44-0.28,0.35-0.41,0.48c0.03-0.1,0.07-0.15,0.09-0.33
							c-0.2,0.5-0.21-0.14-0.36,0.17l0.09-0.33c-0.11-0.43-0.16,0.69-0.27,0.43c0.05-0.1,0.06-0.23,0.09-0.37
							c-0.23,0.59-0.42,0.35-0.59,0.54c0.01-0.04,0.03-0.14,0.03-0.14c-0.16,0.05-0.29-0.16-0.5,0.08
							c-0.04-0.16,0.14-0.82-0.04-0.72c-0.09,0.67-0.31,0.24-0.33,1.01c-0.12-0.13-0.3-0.41-0.42-0.2c0.1-0.25,0.06-0.83,0.18-0.87
							l-0.02-0.42c0.05-0.27,0.07,0.11,0.1-0.24c-0.06,0.02-0.27,0.26-0.3,0.14c-0.17,0.4-0.38,1.15-0.56,1.21
							c0.12-0.25,0.07-0.75,0.14-0.85l-0.43,1.25c-0.06,0.02,0.07-0.53-0.04-0.37c-0.02,0.18-0.08,0.28-0.12,0.42
							c-0.01-0.08-0.26,0.13-0.19-0.53c0.01-0.27,0.11-0.13,0.09-0.37c-0.11-0.01-0.14,0.22-0.25,0.21l0.01-0.09
							c-0.05-0.11-0.25,0.25-0.22,0.63c0.04,0.03,0.04-0.4,0.08-0.2c-0.11,0.38-0.24,0.47-0.35,0.46c0.05-0.1,0.07-0.28,0.12-0.46
							c-0.22,0.5-0.39,0.64-0.58,0.83C23.11,7.81,23.3,6.93,23.3,7.1C23.17,6.64,22.79,7.66,22.72,7c0.04-0.05-0.05,0.45-0.04,0.36
							c-0.09-0.05-0.02-0.51-0.11-0.35c0.03-0.27-0.09,0.07-0.17,0.14c-0.06,0.19,0-0.13,0.06-0.15c-0.12,0.21-0.55,0.57-0.7,0.15
							c-0.02,0.18-0.23,0.63-0.27,0.6l0.08-0.41C21.58,7.09,21.42,7.35,21.46,7c-0.18,0.49,0.46-0.37,0.26,0
							c0.02-0.35-0.29,0.63-0.18,0.07c-0.1,0-0.26,0.45-0.3,0.05c0.02,0.07,0.16-0.56,0.08-0.54c-0.15,0.05-0.07,0.19-0.2,0.31
							l-0.1,0.16c-0.06,0.4-0.11-0.07-0.13,0.39c0.03-0.34-0.23,0.17-0.12-0.49l0.1-0.52c-0.06,0.03-0.18,0.54-0.26,0.77
							c0-0.05,0-0.16,0.02-0.24c-0.13,0.8-0.13-0.09-0.3,0.52c-0.08-0.3-0.31-0.07-0.3-0.58c-0.13,0.23-0.26,0.51-0.35,0.32
							c0.03-0.07,0.07-0.09,0.1-0.26c-0.03-0.25-0.08-0.04-0.16,0.08c0.03-0.12-0.07-0.49-0.1-0.79c-0.13,0.23-0.16,0.67-0.21,0.93
							c0.03-0.81-0.35,0.47-0.35-0.27c0.05-0.11,0.2-0.37,0.15-0.58c0.03-0.81-0.26,0.56-0.35,0.16l-0.06,0.67
							c0-0.42-0.26,0.35-0.15-0.32c-0.08,0.23-0.13-0.24-0.21,0.4c-0.15-0.58-0.61,0.24-0.58-0.93c-0.05,0.1-0.11-0.02-0.15,0.31
							c0,0.37,0.11-0.25,0.1,0c-0.03,0.01-0.07,0.19-0.08,0.28c-0.05-0.16-0.1-0.21,0.05-0.74c-0.1-0.42-0.33,1.07-0.49,0.79
							c0.05-0.27,0.05-0.37-0.02-0.34l-0.18,0.44c-0.11-0.13,0.02-0.62,0.08-1.07C17.01,6.03,16.93,6,16.84,6.33l0-0.58
							c0,0.42-0.1,0.26-0.15,0.37l0.05-0.11c0.02-0.19-0.08-0.09-0.13-0.04c-0.03,0.28,0.03,0.41,0.07,0.5
							c-0.07,0.19-0.11,0.14-0.2,0.36c0.08-0.44-0.07-0.33-0.12-0.39c-0.05-0.1-0.13,0.39-0.15,0.37c0.03-0.23-0.1-0.05,0-0.37
							c0.03-0.07,0.02,0.23,0.08,0.03c-0.02-0.18,0.05-0.58-0.08-0.3c-0.1,0.21-0.11,0.88-0.2,0.58c0.05-0.1,0.08-0.28,0.13-0.44
							l-0.08-0.25l-0.07,0.4c0-0.1,0.02-0.14,0.02-0.19c-0.1,0.42-0.2,0.1-0.3,0.58c-0.06,0.03-0.08-0.3-0.13-0.35l0.02-0.03
							c-0.03-0.25-0.15-0.11-0.25,0.16l0.02-0.09c-0.03-0.04-0.13,0.01-0.21,0.24c-0.05-0.32,0.2-1.53,0.02-1.04
							c-0.1,0-0.26,0.72-0.26,0.98c-0.13-0.3-0.43,0.33-0.49-0.32c-0.05,0.16-0.05,0.26-0.11,0.35c-0.23-0.2-0.61,0.4-0.69-0.43
							c0.1-0.16,0.07-0.4,0.1-0.63c-0.12,0.35-0.02-0.39-0.13,0.23c-0.05,0.36-0.08,0.54-0.03,0.7c-0.18,0.17-0.41,0.14-0.44-0.21
							c0.02,0.18-0.03,0.28-0.08,0.39c0.1-0.58,0-0.68-0.12-0.49l-0.07,0.35l0-0.37c-0.05,0.11-0.15,0.74-0.18,0.39
							c0.02-0.14,0.03-0.28,0.03-0.38c-0.13,0.28-0.33,0.75-0.38,0.43V6.21c-0.05,0.05-0.16,0.35-0.11,0.51
							c-0.12-0.34-0.21-0.39-0.2-0.84c-0.44,1.05-0.85,1.03-1.17,0.9l0.05-0.26c-0.05-0.26-0.11,0.46-0.15,0.26
							c0.07-0.25,0.02-0.56,0.13-0.86c-0.08-0.3-0.23,0.44-0.33,0.54c-0.06,0.35,0.1-0.21,0.02,0.23c-0.03,0.12-0.13-0.3-0.23,0.23
							c0-0.21,0.08-0.6,0.13-0.81l-0.11,0.24c0-0.63,0.38-1.07,0.39-1.84l-0.08,0.07c0.02-0.56,0.28-0.59,0.13-0.81
							c-0.12,0.25-0.3,1-0.26,1.25c-0.18,0.12-0.26,1.25-0.43,1.18c0-0.32,0.15-0.05,0.18-0.49c-0.02-0.44-0.2,0.21-0.25,0.05
							c0.05,0.21-0.1,0.73-0.16,0.82c-0.05-0.26,0.13-0.49,0.02-0.56c-0.07,0.3-0.21,0.51-0.15,0.74C9.6,7.44,9.65,6.55,9.5,7.07
							c0.03-0.49,0.3-1.1,0.2-1.37C9.65,6.18,9.43,6.32,9.4,7.02C9.37,6.88,9.42,6.51,9.5,6.23c-0.03-0.3-0.31,0.83-0.2-0.11
							L9.2,6.6c0-0.16-0.01-0.29-0.02-0.55c-0.07-0.02-0.31,0.62-0.2-0.1c-0.03,0.07-0.18,0.01-0.2,0.52
							c0.05,0.32,0.16-0.35,0.12,0.33c0.02-0.56-0.15,0.05-0.23,0.23l0.03-0.28c-0.05,0.1-0.12,0.03-0.18,0.33
							c0.05-0.16,0.06-0.35,0.05-0.42l-0.1,0.42C8.31,7.28,8.56,6.33,8.41,6.44l0.15-0.32c-0.03,0.07-0.02-0.34-0.1-0.21
							C8.37,6.29,8.27,6.75,8.2,7.05C8.1,7.21,8.23,6.61,8.1,6.99l0.16-0.45C8.3,6.42,8.3,5.89,8.2,5.89C8.12,6.01,7.94,6.56,8,6.78
							c-0.05,0-0.08-0.25,0-0.52C7.87,6.38,7.95,6.68,7.82,6.91c0-0.26-0.07-0.65-0.08-1.04l0.2-0.63L7.87,5.22
							c0.16-0.51,0.02-0.4,0.15-0.94C7.98,4.18,7.9,4.36,7.84,4.5c0,0.9-0.33,1.18-0.41,1.98c-0.21,0.19,0.18-1.96-0.2-0.74
							c0,0.21-0.18,0.81-0.03,0.59C7.1,6.23,7,7.13,6.92,6.78c0.15-0.31,0.02-0.83,0.23-1.28C7.1,5.76,7.2,5.71,7.23,5.64
							c0-0.31,0.13-0.8,0.02-0.82C7.16,4.88,7.06,4.88,7.02,5.3c-0.07,0.46,0.11-0.03,0,0.42C6.85,5.86,6.93,5.16,6.75,5.97
							c0.1-0.05,0.05,0.43,0,0.74L6.62,6.88l0.07-0.3C6.56,6.34,6.56,7.13,6.41,7.02l0.02-0.61c0.12-0.51,0.2,0.27,0.3-0.58
							c-0.1-0.05-0.2,0.37-0.26,0.14c0.03-0.07,0.07-0.08,0.1-0.16c-0.03-0.03,0.1-1.16-0.15-0.53c-0.11,0.24-0.07,0.3-0.11,0.61
							C6.11,5.97,6.01,6.28,5.9,6.31c0.11-0.61-0.18-0.09,0.03-0.7c0,0.37,0.25,0.37,0.39-0.21c0.05-0.74,0.12,0.12,0.26-0.61
							C6.46,4.75,6.57,4.04,6.62,3.56c-0.03-0.04-0.1,0.16-0.13,0.23c-0.08,0.44-0.03,0.44-0.1,0.9c-0.13-0.14-0.31,0.08-0.46,0.5
							C5.91,4.96,6,4.52,6.06,4.49c-0.2,0.1-0.38,0.02-0.53-0.14c0,0.74-0.21,0.14-0.23,0.75c0.07,0.18,0.07,0.7-0.03,1.02
							C5.22,6.06,5.32,5.8,5.32,5.64C5.19,6.03,5.31,4.99,5.14,5.61c0.2-0.21,0.16-0.88,0.28-1.44c-0.17,0.3,0.07-0.4-0.05-0.42
							c-0.16,0.3-0.34,0.52-0.49,0.63C4.8,3.81,4.47,4.3,4.32,4.3C4.29,4,4.43,3.37,4.37,3.25c-0.1,0-0.03,0.7-0.13,0.39l0.03-0.13
							C4.2,3.65,4.07,3.03,3.89,3.95l0.15-0.69c-0.02-0.07-0.07,0.09-0.1,0.16c0.03-0.23,0.03-0.44,0.1-0.58
							c-0.02-0.49-0.2,0.05-0.3,0.05l0,0.42C3.53,3.61,3.48,3.19,3.3,3.31l0.07-0.4L3.23,3.13C3.32,2.75,3.27,2.48,3.17,2.8
							l0.39-0.95C3.59,2.1,3.41,2.33,3.4,2.73C3.38,3.08,3.55,3,3.63,2.61C3.58,2.56,3.56,2.65,3.5,2.79
							c0.07-0.56,0.15-0.53,0.25-0.89C3.71,1.91,3.69,1.73,3.66,1.91c0.1-0.26,0.16-0.3,0.26-0.3c-0.1,0.21-0.02,0.35-0.07,0.51
							c0.08-0.49,0.2-0.63,0.3-0.47c0,0.58,0.28-0.33,0.39-0.15C4.42,1.98,4.28,2.37,4.17,2.56c0.05,0.26,0.1,0,0.15,0.27
							c0.1-0.37,0.21-0.93,0.36-1.14L4.63,2.06c0.13-0.17,0.21-0.72,0.33-0.6c0.2,0.21,0.43,0.25,0.59,0.32L5.5,2.15
							c0.21-0.77,0.36-0.24,0.54-0.57C6.21,1.96,6.57,1.3,6.59,1.94c0.43-0.22,0.8-0.45,1.18-0.25L7.62,2.21
							c0.13-0.38,0,0.31,0.08,0.25C7.69,2.02,7.88,1.92,7.98,1.6C8.1,2.04,8.39,1.63,8.61,1.27L8.56,1.64
							C8.82,0.98,8.92,1.61,9.1,1.75c0,0.16-0.02,0.51,0.05,0.48C9.35,1.65,9.4,1.7,9.61,1.35c0.12,0.02,0.28,0.19,0.36,0.44
							c0.56-0.77,0.92-0.17,1.45-0.6l-0.03,0.44c0.58-0.86,0.99,0.06,1.43-0.36L12.67,2c0.08,0.25,0.29-0.15,0.34-0.68
							c0.08,0.24,0.35-0.31,0.33,0.3c0.1,0.15,0.2-0.32,0.31-0.4c0.2,0.32,0.3,0.27,0.54,0.16l-0.05-0.05
							c-0.05,0.16-0.1,0.47-0.05,0.53c0.12-0.19,0.28,0.25,0.33-0.65c0.17,0.54,0.63-0.33,0.76,0.39c0.02-0.24,0.08-0.28,0.13-0.44
							c0.21,0.02,0.36,0.55,0.59,0.16c0.02,0.13-0.12,0.4-0.03,0.44c0.06-0.08,0.05-0.31,0.13-0.44c0.41-0.4,0.62,0.57,0.95,0.5
							c0.62-0.38,1.17-0.06,1.71-0.06l-0.03,0.18c0.28-0.65,0.31,0.76,0.61-0.24c0.02,0.18,0.15,0.1,0.07,0.44
							c0.21-0.46,0.33,0.51,0.62-0.07c-0.02-0.02-0.03,0.01-0.07,0.09c0.15,0.42,0.41-0.09,0.58,0.3c-0.03,0.07-0.08,0.12-0.12,0.3
							c0.03,0.35,0.31-0.72,0.23,0.14c0.05,0,0.1-0.42,0.07-0.4c0.43,0.4,1.02-0.06,1.55-0.18c0.28,0.56-0.19,1.44,0.18,0.85
							c0,0.17,0.07-0.32,0.04-0.15c0.14-0.22,0.03,0.98,0.17,0.54c0.05-0.53,0.09-0.28,0.14-0.6c0.17,0.37,0.14,0.85,0.37,0.48
							L23.02,3.7c0.32-0.75,0.49-0.3,0.79-1.17c1.13,0,2.28-0.34,3.37-0.28c1.04,0.33,2.15,0.09,3.17,0.73
							c0.15,0.76,0.17,0.75,0.49,0.49c-0.03,0.12-0.05,0.14-0.05,0.25c0.1-0.59,0.21-0.02,0.32-0.59c0.39,0.17,0.78,0.06,1.19,0.12
							c-0.08,0.05-0.18,0.53-0.1,0.51l0.14-0.37l-0.01,0.17c0.07-0.08,0.17-0.36,0.14-0.56C33.6,2.65,34.45,4,35.49,4
							c0.2,0.28,0.58,0.11,0.86,0.03c0.66,0.91,1.26,1.65,2.14,1.22C38.49,5.25,38.16,6.77,37.78,7.07z"/>
						<path fill="#FFFFFF" d="M3.25,1.52C3.23,1.82,3.3,2,3.17,2.38C3.2,2.1,3.2,1.78,3.25,1.52z"/>
						<path fill="#FFFFFF" d="M5.21,4.94c0.02-0.09,0.02,0.13,0.02,0.18c-0.03,0.02-0.1,0.26-0.1,0.11C5.16,5.2,5.17,5.06,5.21,4.94
							z"/>
						<path fill="#FFFFFF" d="M5.8,5.21C5.75,5.47,5.59,5.66,5.5,5.68L5.8,5.21z"/>
						<path fill="#FFFFFF" d="M6.21,6.39c0.02,0.23-0.02,0.35-0.08,0.33C6.14,6.58,6.18,6.51,6.21,6.39z"/>
						<path fill="#FFFFFF" d="M6.34,5.79c0.05,0,0.05,0.16,0.05,0.31C6.42,5.88,6.26,6.23,6.34,5.79z"/>
						<path fill="#FFFFFF" d="M7.48,6.75c0.03-0.02,0.13-0.23,0.11,0.07C7.59,6.61,7.39,7.13,7.48,6.75z"/>
						<path fill="#FFFFFF" d="M8.12,6.43c0.02,0.02,0.02,0.07,0.05,0c0.02,0.13-0.05,0.31-0.08,0.33L8.12,6.43z"/>
						<polygon fill="#FFFFFF" points="18.85,6.96 18.77,7.08 18.82,6.82 						"/>
						<path fill="#FFFFFF" d="M23.49,7.64c0.09-0.16,0.01,0.26,0.01,0.29C23.44,7.95,23.57,7.61,23.49,7.64z"/>
						<polygon fill="#FFFFFF" points="26.18,6.69 26.16,6.7 26.25,6.16 						"/>
					</g>
				</g>
			</g>
		</g>
	</g>
	<g>
		<g>
			<g>
				<g>
					<g>
						<path fill="#FFFFFF" d="M2.6,17.19c-0.15,0.1,0,0.48-0.12,0.19C2.54,17.18,2.58,17.02,2.6,17.19z"/>
						<path fill="#FFFFFF" d="M37.29,22.71c-0.62,1.32-0.96-0.16-1.55,0.65c-0.06,0.05,0.13-0.75-0.02-0.59
							c-0.6,1.01-1.2,0.26-1.62-0.65l0.06-0.21c-0.08-0.17-0.31,0.52-0.4,0.4c0.02-0.14,0.07-0.2,0.07-0.39
							c-0.09,0.42-0.23,0.17-0.32,0.48c-0.02-0.17,0.04-0.51,0.01-0.71l-0.14,0.48c-0.35,1.13-0.41-0.14-0.73,0.42
							c0.03-0.11,0.06-0.19,0.06-0.31c-0.48,0.65-0.94,0.45-1.4,0.64c0.04-0.17,0.11-0.48,0.11-0.68c-0.1,0.51-0.25,0.62-0.38,0.7
							c0.03-0.54-0.27,0.45-0.36,0.14l0.03-0.12c-0.18,0.54-0.1-0.34-0.28,0.31v-0.42c-0.16,0.74-0.08-0.41-0.22-0.04l-0.02,0.15
							c-0.1,0.17-0.09-0.21-0.18-0.09l0.01-0.09c-0.2,0.17-0.23-0.26-0.31,0.32c0.01-0.47,0.19-0.19,0.2-0.88
							c-0.64,0.52-1.19,0.32-1.74,0.24c-0.03-0.24-0.06-0.32-0.04-0.54c-0.07,0.11-0.22,0.07-0.32,0.36
							c0.02-0.01,0.01-0.3-0.02-0.34c-0.07-0.23-0.21,0.62-0.28,0.35c0.07-0.15,0.11-0.33,0.13-0.55c-0.16,0.44-0.28,0.35-0.41,0.48
							c0.03-0.1,0.07-0.15,0.09-0.33c-0.2,0.5-0.21-0.14-0.36,0.17l0.09-0.33c-0.11-0.43-0.16,0.69-0.27,0.43
							c0.05-0.1,0.06-0.23,0.08-0.37c-0.23,0.59-0.42,0.35-0.59,0.54c0.01-0.04,0.03-0.14,0.03-0.14c-0.16,0.05-0.29-0.16-0.5,0.08
							c-0.04-0.16,0.14-0.82-0.04-0.72c-0.09,0.67-0.31,0.24-0.33,1.01c-0.12-0.13-0.3-0.42-0.42-0.2c0.1-0.25,0.06-0.83,0.18-0.87
							l-0.02-0.42c0.05-0.27,0.07,0.11,0.1-0.25c-0.06,0.02-0.27,0.26-0.3,0.14c-0.17,0.4-0.38,1.15-0.56,1.21
							c0.12-0.25,0.07-0.75,0.14-0.85l-0.43,1.25c-0.06,0.02,0.07-0.53-0.04-0.37c-0.02,0.18-0.08,0.28-0.12,0.42
							c-0.01-0.08-0.26,0.13-0.19-0.53c0.01-0.26,0.11-0.13,0.09-0.37c-0.11-0.01-0.14,0.22-0.25,0.21l0.01-0.09
							c-0.05-0.11-0.25,0.25-0.23,0.63c0.04,0.03,0.04-0.4,0.08-0.2c-0.11,0.38-0.24,0.47-0.35,0.46c0.05-0.1,0.07-0.28,0.12-0.46
							c-0.22,0.5-0.39,0.64-0.58,0.83c-0.05,0.32,0.14-0.56,0.14-0.39c-0.13-0.47-0.51,0.56-0.58-0.11
							c0.04-0.05-0.05,0.45-0.04,0.36c-0.09-0.05-0.02-0.51-0.11-0.35c0.03-0.27-0.09,0.07-0.17,0.14c-0.06,0.19,0-0.13,0.06-0.15
							c-0.12,0.21-0.55,0.57-0.7,0.15c-0.02,0.18-0.23,0.63-0.27,0.6l0.08-0.41c-0.01-0.25-0.17,0.01-0.12-0.34
							c-0.18,0.49,0.46-0.37,0.26,0c0.02-0.35-0.29,0.63-0.18,0.07c-0.1,0-0.26,0.45-0.3,0.05c0.02,0.07,0.16-0.56,0.08-0.54
							c-0.15,0.05-0.07,0.19-0.2,0.31l-0.1,0.16c-0.06,0.4-0.11-0.07-0.13,0.39c0.03-0.34-0.23,0.17-0.12-0.49l0.1-0.52
							c-0.06,0.03-0.18,0.54-0.26,0.77c0-0.05,0-0.16,0.02-0.24c-0.13,0.8-0.13-0.09-0.3,0.52c-0.08-0.3-0.31-0.07-0.3-0.58
							c-0.13,0.23-0.26,0.51-0.35,0.32c0.03-0.07,0.07-0.09,0.1-0.26c-0.03-0.25-0.08-0.04-0.16,0.08c0.03-0.12-0.07-0.49-0.1-0.79
							c-0.13,0.23-0.16,0.67-0.21,0.93c0.03-0.81-0.35,0.47-0.35-0.27c0.05-0.11,0.2-0.37,0.15-0.58c0.03-0.81-0.26,0.56-0.35,0.16
							l-0.06,0.67c0-0.42-0.26,0.35-0.15-0.32c-0.08,0.23-0.13-0.24-0.21,0.4c-0.15-0.58-0.61,0.24-0.58-0.93
							c-0.05,0.1-0.12-0.02-0.15,0.31c0,0.37,0.12-0.25,0.1,0c-0.03,0.01-0.07,0.19-0.08,0.28c-0.05-0.16-0.1-0.21,0.05-0.74
							c-0.1-0.42-0.33,1.07-0.49,0.79c0.05-0.26,0.05-0.37-0.02-0.33l-0.18,0.44c-0.11-0.13,0.02-0.62,0.08-1.07
							c-0.08,0.07-0.16,0.03-0.25,0.37l0-0.58c0,0.42-0.1,0.26-0.15,0.37l0.05-0.11c0.02-0.19-0.08-0.09-0.13-0.04
							c-0.03,0.28,0.03,0.41,0.07,0.5c-0.07,0.19-0.11,0.14-0.2,0.37c0.08-0.44-0.07-0.33-0.12-0.39c-0.05-0.1-0.13,0.39-0.15,0.37
							c0.03-0.23-0.1-0.05,0-0.37c0.03-0.07,0.02,0.23,0.08,0.03c-0.02-0.18,0.05-0.58-0.08-0.3c-0.1,0.21-0.11,0.88-0.2,0.58
							c0.05-0.1,0.08-0.28,0.13-0.44l-0.08-0.25l-0.07,0.4c0-0.1,0.02-0.14,0.02-0.19c-0.1,0.42-0.2,0.1-0.3,0.58
							c-0.06,0.03-0.08-0.3-0.13-0.35l0.02-0.03c-0.03-0.25-0.15-0.11-0.25,0.16l0.02-0.09c-0.03-0.04-0.13,0.01-0.21,0.24
							c-0.05-0.32,0.2-1.53,0.02-1.04c-0.1,0-0.26,0.72-0.26,0.98c-0.13-0.3-0.43,0.33-0.49-0.32c-0.05,0.16-0.05,0.26-0.11,0.35
							c-0.23-0.2-0.61,0.4-0.69-0.43c0.1-0.16,0.07-0.4,0.1-0.63c-0.11,0.35-0.02-0.39-0.13,0.23c-0.05,0.36-0.08,0.54-0.03,0.7
							c-0.18,0.17-0.41,0.14-0.44-0.21c0.02,0.18-0.03,0.28-0.08,0.39c0.1-0.58,0-0.68-0.12-0.49l-0.06,0.35l0-0.37
							c-0.05,0.11-0.15,0.74-0.18,0.39c0.02-0.14,0.03-0.28,0.03-0.38c-0.13,0.28-0.33,0.75-0.38,0.43v-0.53
							c-0.05,0.05-0.16,0.35-0.12,0.51c-0.12-0.34-0.21-0.39-0.2-0.85c-0.44,1.05-0.85,1.03-1.17,0.9l0.05-0.26
							c-0.05-0.26-0.12,0.46-0.15,0.26c0.07-0.25,0.02-0.56,0.13-0.86c-0.08-0.3-0.23,0.43-0.33,0.54c-0.06,0.35,0.1-0.21,0.02,0.23
							c-0.03,0.12-0.13-0.3-0.23,0.23c0-0.21,0.08-0.6,0.13-0.81L9.87,22c0-0.63,0.38-1.07,0.39-1.84l-0.08,0.07
							c0.02-0.56,0.28-0.59,0.13-0.81c-0.12,0.25-0.3,1-0.26,1.25c-0.18,0.12-0.26,1.25-0.43,1.18c0-0.32,0.15-0.05,0.18-0.49
							c-0.02-0.44-0.2,0.21-0.25,0.05c0.05,0.21-0.1,0.73-0.16,0.82c-0.05-0.26,0.13-0.49,0.02-0.56c-0.07,0.3-0.21,0.51-0.15,0.74
							c-0.15,0.68-0.1-0.21-0.25,0.31c0.03-0.49,0.3-1.1,0.2-1.37c-0.05,0.47-0.26,0.61-0.29,1.31c-0.03-0.14,0.02-0.51,0.1-0.79
							c-0.03-0.3-0.31,0.83-0.2-0.11l-0.1,0.48c0-0.16-0.01-0.29-0.02-0.55c-0.07-0.02-0.31,0.62-0.2-0.1
							c-0.03,0.07-0.18,0.01-0.2,0.52c0.05,0.32,0.16-0.35,0.12,0.33c0.02-0.56-0.15,0.05-0.23,0.23l0.03-0.28
							c-0.05,0.1-0.12,0.03-0.18,0.33c0.05-0.16,0.06-0.35,0.05-0.42L8,22.72c-0.16,0.19,0.08-0.75-0.07-0.65l0.15-0.32
							c-0.03,0.07-0.02-0.34-0.1-0.21c-0.09,0.38-0.19,0.84-0.26,1.14c-0.1,0.16,0.03-0.44-0.1-0.05l0.16-0.45
							c0.03-0.13,0.03-0.65-0.07-0.65c-0.08,0.13-0.26,0.67-0.2,0.9c-0.05,0-0.08-0.25,0-0.53c-0.13,0.12-0.05,0.42-0.18,0.65
							c0-0.26-0.07-0.65-0.08-1.04l0.2-0.63l-0.07-0.02c0.16-0.51,0.02-0.4,0.15-0.94C7.5,19.82,7.42,20,7.35,20.14
							c0,0.9-0.33,1.18-0.41,1.98c-0.21,0.19,0.18-1.96-0.2-0.74c0,0.21-0.18,0.81-0.03,0.59c-0.1-0.1-0.2,0.79-0.28,0.44
							c0.15-0.31,0.02-0.83,0.23-1.28c-0.05,0.27,0.05,0.21,0.08,0.14c0-0.31,0.13-0.8,0.02-0.82c-0.08,0.07-0.18,0.07-0.23,0.49
							c-0.07,0.46,0.11-0.03,0,0.42c-0.16,0.14-0.08-0.56-0.26,0.24c0.1-0.05,0.05,0.42,0,0.74l-0.13,0.18l0.07-0.3
							c-0.13-0.24-0.13,0.54-0.28,0.44l0.02-0.61c0.12-0.51,0.2,0.27,0.3-0.58c-0.1-0.05-0.2,0.37-0.26,0.14
							c0.03-0.07,0.07-0.08,0.1-0.16c-0.03-0.03,0.1-1.16-0.15-0.53c-0.11,0.24-0.07,0.3-0.11,0.61c-0.18,0.07-0.28,0.38-0.39,0.42
							c0.11-0.61-0.18-0.09,0.03-0.7c0,0.37,0.25,0.37,0.39-0.21c0.05-0.74,0.12,0.12,0.26-0.61c-0.13-0.04-0.02-0.75,0.03-1.23
							C6.1,19.16,6.04,19.36,6,19.43c-0.08,0.44-0.03,0.44-0.1,0.9c-0.13-0.14-0.31,0.08-0.46,0.5c-0.02-0.23,0.07-0.67,0.13-0.7
							c-0.2,0.1-0.38,0.02-0.53-0.14c0,0.74-0.21,0.14-0.23,0.75c0.07,0.18,0.07,0.7-0.03,1.02c-0.05-0.06,0.05-0.32,0.05-0.48
							c-0.13,0.39-0.02-0.65-0.18-0.04c0.2-0.21,0.16-0.88,0.28-1.44c-0.17,0.3,0.07-0.4-0.05-0.42c-0.16,0.3-0.34,0.52-0.49,0.63
							c-0.08-0.56-0.41-0.07-0.56-0.07c-0.03-0.3,0.11-0.93,0.05-1.05c-0.1,0-0.03,0.7-0.13,0.39l0.03-0.13
							c-0.07,0.14-0.2-0.48-0.38,0.44l0.15-0.69c-0.02-0.07-0.07,0.09-0.1,0.16c0.03-0.23,0.03-0.44,0.1-0.58
							c-0.02-0.49-0.2,0.05-0.3,0.05l0,0.42c-0.21,0.3-0.26-0.13-0.44-0.01l0.07-0.4l-0.13,0.23c0.08-0.39,0.03-0.65-0.07-0.33
							l0.39-0.95c0.03,0.25-0.15,0.47-0.16,0.88c-0.02,0.35,0.15,0.26,0.23-0.12c-0.05-0.05-0.07,0.03-0.13,0.17
							c0.07-0.56,0.15-0.53,0.25-0.89c-0.03,0.02-0.05-0.16-0.08,0.02c0.1-0.26,0.16-0.3,0.26-0.3c-0.1,0.21-0.02,0.35-0.07,0.51
							c0.08-0.49,0.2-0.63,0.3-0.47c0,0.58,0.28-0.33,0.39-0.15c-0.13,0.49-0.26,0.88-0.38,1.07c0.05,0.26,0.1,0,0.15,0.27
							c0.1-0.37,0.21-0.93,0.36-1.14l-0.05,0.37c0.13-0.17,0.21-0.72,0.33-0.6c0.2,0.21,0.43,0.25,0.59,0.32l-0.05,0.37
							c0.21-0.77,0.36-0.24,0.54-0.57c0.16,0.39,0.53-0.28,0.54,0.37c0.43-0.22,0.8-0.45,1.18-0.25l-0.15,0.52
							c0.13-0.38,0,0.31,0.08,0.25C7.2,17.66,7.4,17.56,7.5,17.24c0.12,0.44,0.41,0.02,0.62-0.33l-0.05,0.37
							c0.26-0.67,0.36-0.03,0.54,0.11c0,0.16-0.02,0.51,0.05,0.48c0.2-0.58,0.25-0.53,0.46-0.88c0.12,0.02,0.28,0.19,0.36,0.44
							c0.56-0.77,0.92-0.17,1.45-0.6l-0.03,0.44c0.58-0.86,0.99,0.06,1.43-0.36l-0.15,0.73c0.08,0.25,0.29-0.15,0.34-0.68
							c0.08,0.24,0.35-0.31,0.33,0.3c0.1,0.15,0.2-0.32,0.31-0.4c0.2,0.32,0.3,0.27,0.54,0.16l-0.05-0.05
							c-0.05,0.16-0.1,0.47-0.05,0.53c0.12-0.19,0.28,0.25,0.33-0.65c0.16,0.54,0.62-0.33,0.76,0.39c0.02-0.24,0.08-0.28,0.13-0.44
							c0.21,0.02,0.36,0.55,0.59,0.16c0.02,0.13-0.12,0.4-0.03,0.44c0.06-0.08,0.05-0.31,0.13-0.44c0.41-0.4,0.62,0.57,0.95,0.5
							c0.62-0.38,1.17-0.06,1.71-0.06l-0.03,0.18c0.28-0.65,0.31,0.76,0.61-0.24c0.02,0.18,0.15,0.1,0.07,0.44
							c0.21-0.46,0.33,0.51,0.62-0.07c-0.02-0.02-0.03,0.01-0.07,0.09c0.15,0.42,0.41-0.09,0.58,0.3c-0.03,0.07-0.08,0.12-0.12,0.3
							c0.03,0.35,0.31-0.72,0.23,0.14c0.05,0,0.1-0.42,0.07-0.4c0.43,0.4,1.02-0.06,1.55-0.18c0.28,0.56-0.19,1.44,0.18,0.85
							c0,0.17,0.07-0.32,0.04-0.15c0.14-0.22,0.03,0.98,0.17,0.54c0.05-0.53,0.09-0.28,0.14-0.6c0.17,0.37,0.14,0.85,0.37,0.48
							l-0.05,0.27c0.32-0.75,0.49-0.3,0.79-1.17c1.14,0,2.28-0.34,3.37-0.28c1.04,0.33,2.15,0.09,3.17,0.73
							c0.15,0.76,0.17,0.75,0.49,0.49c-0.03,0.12-0.05,0.14-0.05,0.25c0.1-0.59,0.21-0.02,0.32-0.59c0.39,0.17,0.78,0.06,1.19,0.12
							c-0.08,0.05-0.18,0.53-0.1,0.51l0.14-0.37l-0.01,0.17c0.07-0.08,0.17-0.36,0.14-0.56c1.12-0.36,1.96,0.99,3,0.99
							c0.2,0.28,0.58,0.11,0.86,0.03c0.66,0.91,1.26,1.65,2.14,1.22C38.01,20.89,37.67,22.41,37.29,22.71z"/>
						<path fill="#FFFFFF" d="M2.77,17.16c-0.02,0.3,0.05,0.48-0.08,0.86C2.72,17.74,2.72,17.42,2.77,17.16z"/>
						<path fill="#FFFFFF" d="M4.72,20.58c0.02-0.09,0.02,0.13,0.02,0.18c-0.03,0.02-0.1,0.26-0.1,0.11
							C4.68,20.84,4.69,20.7,4.72,20.58z"/>
						<path fill="#FFFFFF" d="M5.32,20.85c-0.05,0.26-0.21,0.45-0.3,0.47L5.32,20.85z"/>
						<path fill="#FFFFFF" d="M5.73,22.03c0.02,0.23-0.02,0.35-0.08,0.33C5.66,22.22,5.69,22.15,5.73,22.03z"/>
						<path fill="#FFFFFF" d="M5.86,21.43c0.05,0,0.05,0.16,0.05,0.32C5.94,21.52,5.78,21.87,5.86,21.43z"/>
						<path fill="#FFFFFF" d="M6.99,22.38c0.03-0.02,0.13-0.23,0.11,0.07C7.11,22.25,6.91,22.77,6.99,22.38z"/>
						<path fill="#FFFFFF" d="M7.63,22.07c0.02,0.02,0.02,0.07,0.05,0c0.02,0.13-0.05,0.31-0.08,0.34L7.63,22.07z"/>
						<polygon fill="#FFFFFF" points="18.37,22.6 18.28,22.72 18.33,22.46 						"/>
						<path fill="#FFFFFF" d="M23,23.28c0.09-0.16,0.01,0.25,0.01,0.29C22.95,23.59,23.08,23.25,23,23.28z"/>
						<polygon fill="#FFFFFF" points="25.7,22.33 25.68,22.34 25.77,21.8 						"/>
					</g>
				</g>
			</g>
		</g>
	</g>
	<g>
		<g>
			<g>
				<g>
					<g>
						<path fill="#FFFFFF" d="M3.81,32.72c-0.15,0.1,0,0.48-0.12,0.19C3.74,32.7,3.79,32.54,3.81,32.72z"/>
						<path fill="#FFFFFF" d="M38.5,38.23c-0.62,1.32-0.96-0.16-1.55,0.65c-0.06,0.05,0.13-0.75-0.02-0.59
							c-0.6,1.01-1.2,0.26-1.62-0.65l0.07-0.21c-0.08-0.17-0.31,0.52-0.41,0.4c0.02-0.14,0.07-0.2,0.07-0.39
							c-0.09,0.42-0.23,0.17-0.32,0.48c-0.02-0.17,0.04-0.51,0.01-0.71l-0.14,0.48c-0.35,1.13-0.41-0.14-0.73,0.42
							c0.03-0.11,0.06-0.19,0.06-0.31c-0.48,0.65-0.94,0.45-1.4,0.64c0.04-0.17,0.11-0.48,0.11-0.68c-0.1,0.51-0.25,0.62-0.38,0.7
							c0.03-0.54-0.27,0.45-0.36,0.14l0.03-0.12c-0.18,0.54-0.1-0.34-0.28,0.31v-0.42c-0.15,0.74-0.08-0.41-0.22-0.04L31.4,38.5
							c-0.1,0.17-0.09-0.21-0.18-0.09l0.01-0.09c-0.2,0.17-0.23-0.26-0.31,0.32c0.01-0.47,0.19-0.19,0.2-0.88
							c-0.64,0.52-1.19,0.32-1.74,0.24c-0.03-0.24-0.06-0.32-0.04-0.54c-0.07,0.11-0.22,0.08-0.32,0.37
							c0.02-0.01,0.01-0.3-0.02-0.34c-0.07-0.23-0.21,0.62-0.28,0.35c0.07-0.15,0.11-0.33,0.13-0.55c-0.16,0.44-0.28,0.35-0.41,0.48
							c0.03-0.1,0.07-0.15,0.09-0.33c-0.2,0.5-0.21-0.14-0.36,0.17l0.09-0.33c-0.11-0.43-0.16,0.69-0.27,0.43
							c0.05-0.1,0.06-0.23,0.08-0.37c-0.23,0.59-0.42,0.35-0.59,0.54c0.02-0.04,0.03-0.14,0.03-0.14c-0.16,0.05-0.29-0.16-0.5,0.08
							c-0.04-0.16,0.14-0.82-0.03-0.72c-0.1,0.67-0.31,0.24-0.33,1.01c-0.12-0.13-0.3-0.41-0.42-0.2c0.1-0.25,0.06-0.83,0.18-0.87
							l-0.02-0.42c0.05-0.27,0.07,0.11,0.1-0.24c-0.06,0.02-0.27,0.26-0.3,0.14c-0.17,0.4-0.38,1.15-0.56,1.21
							c0.12-0.25,0.07-0.75,0.14-0.85l-0.43,1.25c-0.06,0.02,0.07-0.53-0.04-0.37c-0.02,0.18-0.07,0.28-0.12,0.42
							c-0.01-0.08-0.26,0.13-0.19-0.53c0.01-0.26,0.11-0.13,0.09-0.37c-0.11-0.01-0.14,0.22-0.25,0.21l0.01-0.09
							c-0.05-0.11-0.25,0.25-0.23,0.63c0.04,0.03,0.04-0.4,0.08-0.2c-0.11,0.38-0.24,0.47-0.35,0.46c0.05-0.1,0.07-0.28,0.12-0.46
							c-0.22,0.5-0.39,0.64-0.58,0.83c-0.05,0.32,0.14-0.56,0.14-0.39c-0.13-0.47-0.51,0.56-0.58-0.11
							c0.04-0.05-0.05,0.45-0.04,0.36c-0.09-0.05-0.02-0.51-0.11-0.35c0.03-0.27-0.09,0.07-0.17,0.14c-0.06,0.19,0-0.13,0.06-0.15
							c-0.13,0.21-0.55,0.57-0.7,0.15c-0.02,0.18-0.23,0.63-0.27,0.6l0.08-0.41c-0.01-0.25-0.17,0.01-0.12-0.34
							c-0.18,0.49,0.46-0.37,0.26,0c0.02-0.35-0.29,0.63-0.18,0.07c-0.1,0-0.26,0.45-0.3,0.05c0.02,0.07,0.16-0.56,0.08-0.54
							c-0.15,0.05-0.07,0.19-0.2,0.31l-0.09,0.16c-0.07,0.4-0.11-0.07-0.13,0.39c0.03-0.34-0.23,0.17-0.12-0.49l0.1-0.52
							c-0.07,0.03-0.18,0.54-0.26,0.77c0-0.05,0-0.16,0.02-0.24c-0.13,0.8-0.13-0.09-0.3,0.52c-0.08-0.3-0.31-0.07-0.29-0.58
							c-0.13,0.23-0.26,0.51-0.35,0.32c0.03-0.07,0.07-0.09,0.1-0.26c-0.03-0.25-0.08-0.04-0.16,0.08c0.03-0.12-0.07-0.49-0.1-0.79
							c-0.13,0.23-0.16,0.67-0.21,0.93c0.03-0.81-0.35,0.47-0.35-0.27c0.05-0.11,0.2-0.37,0.15-0.58c0.03-0.81-0.26,0.56-0.35,0.16
							l-0.06,0.67c0-0.42-0.26,0.35-0.15-0.32c-0.08,0.23-0.13-0.24-0.21,0.4c-0.15-0.58-0.61,0.25-0.58-0.93
							c-0.05,0.1-0.12-0.02-0.15,0.31c0,0.37,0.12-0.25,0.1,0c-0.03,0.01-0.07,0.19-0.08,0.28c-0.05-0.16-0.1-0.21,0.05-0.74
							c-0.1-0.42-0.33,1.07-0.49,0.79c0.05-0.26,0.05-0.37-0.02-0.33l-0.18,0.44c-0.11-0.13,0.02-0.62,0.08-1.07
							c-0.08,0.07-0.16,0.03-0.25,0.36l0-0.58c0,0.42-0.1,0.26-0.15,0.37l0.05-0.11c0.02-0.19-0.08-0.09-0.13-0.04
							c-0.03,0.28,0.03,0.41,0.07,0.49c-0.07,0.19-0.11,0.14-0.2,0.37c0.08-0.44-0.07-0.33-0.12-0.39c-0.05-0.1-0.13,0.39-0.15,0.37
							c0.03-0.23-0.1-0.05,0-0.37c0.03-0.07,0.02,0.23,0.08,0.03c-0.02-0.18,0.05-0.58-0.08-0.3c-0.1,0.21-0.11,0.88-0.2,0.58
							c0.05-0.11,0.08-0.28,0.13-0.44l-0.08-0.25l-0.07,0.4c0-0.11,0.02-0.14,0.02-0.19c-0.1,0.42-0.2,0.1-0.3,0.58
							c-0.06,0.03-0.08-0.3-0.13-0.35l0.02-0.03c-0.03-0.25-0.15-0.11-0.25,0.16l0.02-0.09c-0.03-0.04-0.13,0.01-0.21,0.24
							c-0.05-0.32,0.2-1.53,0.02-1.04c-0.1,0-0.26,0.72-0.26,0.98c-0.13-0.3-0.43,0.33-0.49-0.32c-0.05,0.16-0.05,0.26-0.11,0.35
							c-0.23-0.2-0.61,0.4-0.69-0.43c0.1-0.16,0.07-0.4,0.1-0.63c-0.11,0.35-0.02-0.39-0.13,0.23c-0.05,0.36-0.08,0.54-0.03,0.7
							c-0.18,0.17-0.41,0.14-0.44-0.21c0.02,0.18-0.03,0.28-0.08,0.39c0.1-0.58,0-0.68-0.12-0.49l-0.07,0.35l0-0.37
							c-0.05,0.11-0.15,0.74-0.18,0.39c0.02-0.14,0.03-0.28,0.03-0.38c-0.13,0.28-0.33,0.75-0.38,0.43v-0.53
							c-0.05,0.05-0.16,0.35-0.11,0.51c-0.12-0.34-0.21-0.39-0.2-0.84c-0.44,1.05-0.85,1.03-1.17,0.9l0.05-0.26
							c-0.05-0.26-0.11,0.46-0.15,0.26c0.07-0.25,0.02-0.56,0.13-0.86c-0.08-0.3-0.23,0.43-0.33,0.54c-0.06,0.35,0.1-0.21,0.02,0.23
							c-0.03,0.12-0.13-0.3-0.23,0.23c0-0.21,0.08-0.6,0.13-0.81l-0.11,0.24c0-0.63,0.38-1.07,0.39-1.84l-0.08,0.07
							c0.02-0.56,0.28-0.59,0.13-0.81c-0.12,0.25-0.3,1-0.26,1.25c-0.18,0.12-0.26,1.25-0.43,1.18c0-0.32,0.15-0.05,0.18-0.49
							c-0.02-0.44-0.2,0.21-0.25,0.05c0.05,0.21-0.1,0.73-0.16,0.82c-0.05-0.26,0.13-0.49,0.02-0.56c-0.07,0.3-0.21,0.51-0.15,0.74
							c-0.15,0.68-0.1-0.21-0.25,0.31c0.03-0.49,0.3-1.1,0.2-1.37c-0.05,0.47-0.26,0.61-0.29,1.31c-0.03-0.14,0.02-0.51,0.1-0.79
							c-0.03-0.3-0.31,0.83-0.2-0.11l-0.1,0.47c0-0.16-0.01-0.29-0.02-0.55c-0.07-0.02-0.31,0.62-0.2-0.1
							c-0.03,0.07-0.18,0.01-0.2,0.52c0.05,0.32,0.16-0.35,0.12,0.33c0.02-0.56-0.15,0.05-0.23,0.23l0.03-0.28
							c-0.05,0.1-0.11,0.03-0.18,0.33c0.05-0.16,0.06-0.35,0.05-0.42l-0.1,0.42c-0.16,0.19,0.08-0.75-0.07-0.65l0.15-0.32
							c-0.03,0.07-0.02-0.33-0.1-0.21c-0.09,0.38-0.19,0.84-0.26,1.14c-0.1,0.16,0.03-0.44-0.1-0.05l0.16-0.45
							c0.03-0.13,0.03-0.65-0.07-0.65c-0.08,0.13-0.26,0.67-0.2,0.9c-0.05,0-0.08-0.25,0-0.53c-0.13,0.12-0.05,0.42-0.18,0.65
							c0-0.26-0.07-0.65-0.08-1.04l0.2-0.63l-0.06-0.02c0.16-0.51,0.02-0.4,0.15-0.94c-0.03-0.09-0.12,0.09-0.18,0.22
							c0,0.9-0.33,1.18-0.41,1.98c-0.21,0.19,0.18-1.96-0.2-0.74c0,0.21-0.18,0.81-0.03,0.59c-0.1-0.1-0.2,0.79-0.28,0.44
							c0.15-0.31,0.02-0.83,0.23-1.28c-0.05,0.26,0.05,0.21,0.08,0.14c0-0.31,0.13-0.8,0.02-0.82c-0.08,0.07-0.18,0.07-0.23,0.49
							c-0.07,0.46,0.11-0.03,0,0.42c-0.16,0.14-0.08-0.56-0.26,0.24c0.1-0.05,0.05,0.42,0,0.74l-0.13,0.18l0.07-0.3
							c-0.13-0.24-0.13,0.54-0.28,0.44l0.02-0.61c0.12-0.51,0.2,0.27,0.3-0.58c-0.1-0.05-0.2,0.37-0.26,0.14
							c0.03-0.07,0.07-0.08,0.1-0.16c-0.03-0.03,0.1-1.16-0.15-0.53c-0.11,0.24-0.07,0.3-0.11,0.61c-0.18,0.07-0.28,0.38-0.39,0.42
							c0.11-0.61-0.18-0.09,0.03-0.7c0,0.37,0.25,0.37,0.39-0.21c0.05-0.74,0.12,0.12,0.26-0.61c-0.13-0.04-0.02-0.76,0.03-1.23
							c-0.03-0.04-0.1,0.16-0.13,0.23c-0.08,0.44-0.03,0.44-0.1,0.9c-0.13-0.14-0.31,0.08-0.46,0.5c-0.02-0.23,0.07-0.67,0.13-0.7
							c-0.2,0.1-0.38,0.02-0.53-0.14c0,0.74-0.21,0.14-0.23,0.75c0.07,0.18,0.07,0.7-0.03,1.02c-0.05-0.06,0.05-0.32,0.05-0.48
							c-0.13,0.38-0.02-0.65-0.18-0.04c0.2-0.21,0.16-0.88,0.28-1.44c-0.17,0.3,0.07-0.4-0.05-0.42c-0.16,0.3-0.34,0.52-0.49,0.63
							c-0.08-0.56-0.41-0.07-0.56-0.07c-0.03-0.3,0.11-0.93,0.05-1.05c-0.1,0-0.03,0.7-0.13,0.39l0.03-0.13
							c-0.07,0.14-0.2-0.48-0.38,0.44l0.15-0.69c-0.02-0.07-0.07,0.09-0.1,0.16c0.03-0.23,0.03-0.44,0.1-0.58
							c-0.02-0.49-0.2,0.05-0.3,0.05l0,0.42c-0.21,0.3-0.26-0.13-0.44-0.01l0.07-0.4L3.96,34.3c0.08-0.39,0.03-0.65-0.07-0.33
							l0.39-0.95c0.03,0.25-0.15,0.47-0.16,0.88c-0.02,0.35,0.15,0.26,0.23-0.12c-0.05-0.05-0.07,0.03-0.13,0.17
							c0.07-0.56,0.15-0.53,0.25-0.89c-0.03,0.02-0.05-0.16-0.08,0.02c0.1-0.26,0.16-0.3,0.26-0.3c-0.1,0.21-0.02,0.35-0.07,0.51
							c0.08-0.49,0.2-0.63,0.3-0.47c0,0.58,0.28-0.33,0.39-0.15c-0.13,0.49-0.26,0.88-0.38,1.07c0.05,0.26,0.1,0,0.15,0.27
							c0.1-0.37,0.21-0.93,0.36-1.14l-0.05,0.37c0.13-0.17,0.21-0.72,0.33-0.59c0.2,0.21,0.43,0.25,0.59,0.32l-0.05,0.37
							c0.21-0.77,0.36-0.24,0.54-0.57c0.16,0.39,0.53-0.28,0.54,0.37c0.43-0.22,0.8-0.45,1.18-0.25l-0.15,0.52
							c0.13-0.38,0,0.31,0.08,0.25c-0.02-0.44,0.18-0.54,0.28-0.86c0.11,0.44,0.41,0.02,0.62-0.33L9.28,32.8
							c0.26-0.67,0.36-0.03,0.54,0.11c0,0.16-0.02,0.51,0.05,0.48c0.2-0.58,0.25-0.53,0.46-0.88c0.12,0.02,0.28,0.19,0.36,0.44
							c0.56-0.77,0.92-0.17,1.45-0.6l-0.03,0.44c0.57-0.86,0.99,0.06,1.43-0.36l-0.15,0.73c0.08,0.25,0.3-0.15,0.34-0.68
							c0.08,0.24,0.35-0.31,0.33,0.3c0.1,0.15,0.2-0.32,0.31-0.4c0.2,0.32,0.3,0.26,0.54,0.16l-0.05-0.05
							c-0.05,0.16-0.1,0.47-0.05,0.53c0.12-0.19,0.28,0.25,0.33-0.65c0.16,0.54,0.62-0.33,0.76,0.39c0.02-0.24,0.08-0.28,0.13-0.44
							c0.21,0.02,0.36,0.55,0.59,0.16c0.02,0.13-0.11,0.4-0.03,0.44c0.06-0.08,0.05-0.31,0.13-0.44c0.41-0.4,0.62,0.57,0.95,0.5
							c0.62-0.38,1.17-0.06,1.71-0.06l-0.03,0.18c0.28-0.65,0.31,0.76,0.61-0.24c0.02,0.18,0.15,0.1,0.07,0.44
							c0.21-0.46,0.33,0.51,0.62-0.07c-0.02-0.02-0.03,0.01-0.07,0.09c0.15,0.42,0.41-0.09,0.58,0.3c-0.03,0.07-0.08,0.12-0.12,0.3
							c0.03,0.35,0.31-0.72,0.23,0.14c0.05,0,0.1-0.42,0.07-0.4c0.43,0.4,1.02-0.06,1.54-0.18c0.28,0.56-0.19,1.44,0.18,0.84
							c0,0.17,0.07-0.32,0.04-0.15c0.14-0.22,0.03,0.98,0.17,0.54c0.05-0.53,0.09-0.28,0.14-0.6c0.17,0.37,0.14,0.85,0.37,0.48
							l-0.05,0.27c0.32-0.75,0.49-0.3,0.79-1.17c1.14,0,2.28-0.34,3.37-0.28c1.05,0.33,2.15,0.09,3.17,0.73
							c0.15,0.76,0.17,0.75,0.49,0.5c-0.03,0.12-0.05,0.14-0.05,0.25c0.1-0.59,0.21-0.02,0.32-0.59c0.38,0.17,0.78,0.06,1.19,0.12
							c-0.07,0.05-0.18,0.53-0.1,0.51l0.14-0.37l-0.01,0.17c0.07-0.08,0.17-0.36,0.14-0.56c1.12-0.36,1.96,0.99,3,1
							c0.2,0.28,0.58,0.11,0.86,0.03c0.66,0.91,1.26,1.66,2.14,1.22C39.21,36.41,38.88,37.93,38.5,38.23z"/>
						<path fill="#FFFFFF" d="M3.97,32.68c-0.02,0.3,0.05,0.48-0.08,0.86C3.92,33.26,3.92,32.94,3.97,32.68z"/>
						<path fill="#FFFFFF" d="M5.93,36.1c0.02-0.09,0.02,0.13,0.02,0.17c-0.03,0.02-0.1,0.26-0.1,0.11
							C5.88,36.36,5.9,36.22,5.93,36.1z"/>
						<path fill="#FFFFFF" d="M6.52,36.37c-0.05,0.26-0.21,0.45-0.3,0.47L6.52,36.37z"/>
						<path fill="#FFFFFF" d="M6.93,37.55c0.02,0.23-0.02,0.35-0.08,0.33C6.87,37.74,6.9,37.67,6.93,37.55z"/>
						<path fill="#FFFFFF" d="M7.06,36.95c0.05,0,0.05,0.16,0.05,0.32C7.15,37.04,6.98,37.39,7.06,36.95z"/>
						<path fill="#FFFFFF" d="M8.2,37.91c0.03-0.02,0.13-0.23,0.11,0.07C8.31,37.77,8.12,38.29,8.2,37.91z"/>
						<path fill="#FFFFFF" d="M8.84,37.59c0.02,0.02,0.02,0.07,0.05,0c0.02,0.13-0.05,0.31-0.08,0.33L8.84,37.59z"/>
						<polygon fill="#FFFFFF" points="19.57,38.12 19.49,38.24 19.54,37.98 						"/>
						<path fill="#FFFFFF" d="M24.21,38.8c0.09-0.16,0.01,0.26,0.01,0.29C24.16,39.12,24.29,38.78,24.21,38.8z"/>
						<polygon fill="#FFFFFF" points="26.9,37.86 26.88,37.86 26.97,37.32 						"/>
					</g>
				</g>
			</g>
		</g>
	</g>
</g>
</svg>
