<?xml version="1.0" encoding="utf-8"?>
<!-- Generator: Adobe Illustrator 16.0.3, SVG Export Plug-In . SVG Version: 6.00 Build 0)  -->
<!DOCTYPE svg PUBLIC "-//W3C//DTD SVG 1.1//EN" "http://www.w3.org/Graphics/SVG/1.1/DTD/svg11.dtd">
<svg version="1.1" xmlns="http://www.w3.org/2000/svg" xmlns:xlink="http://www.w3.org/1999/xlink" x="0px" y="0px" width="424.5px"
	 height="133px" viewBox="0 0 424.5 133" enable-background="new 0 0 424.5 133" xml:space="preserve">
<g id="Warstwa_2" display="none">
	<rect x="-50" y="-16" display="inline" fill="#4B4B4B" stroke="#000000" stroke-miterlimit="10" width="794" height="876"/>
</g>
<g id="Warstwa_1">
	<g>
		<path fill="#FFFFFF" d="M142.239,5.083h2.65c3.266,0,5.167,0.349,5.702,1.044c1.178,0.549,1.874,1.165,2.088,1.847
			c0,0.214,0.107,0.321,0.321,0.321c0.669,0.669,2.141,2.463,4.417,5.381c0.241,0.027,0.669,0.669,1.285,1.927
			c1.178,1.847,1.82,3.266,1.927,4.257c0.643,0.856,0.964,1.66,0.964,2.409c0.334,0,0.709,1.5,1.125,4.498v0.401
			c0,1.593-0.375,3.2-1.125,4.819c-0.201,0.134-0.442,0.669-0.723,1.606c-1.058,1.473-2.289,2.972-3.694,4.498
			c0,0.388-0.456,0.656-1.365,0.803l-4.016,1.445c-2.209,1.232-4.726,1.847-7.55,1.847h-0.481l-0.964-0.08l-0.081,1.205v3.212
			c0,3.052,0.268,5.06,0.803,6.023c0.107,0.214,0.161,0.509,0.161,0.883c-0.107,0.174-0.455,0.415-1.044,0.723v0.241
			c0,0.817,0.508,1.272,1.526,1.365c0.79,0,1.325,0.669,1.606,2.008c0,0.482-1.098,0.723-3.293,0.723
			c-1.874,0.375-3.105,0.562-3.694,0.562c-2.142-0.241-3.212-0.643-3.212-1.205l-0.241-0.723c0.067-0.401,0.174-0.615,0.321-0.642
			h0.081c0.093,0,0.281,0.294,0.562,0.883l0.482,0.08c0.91,0,1.767-0.508,2.57-1.526c0.147,0,0.281-7.389,0.402-22.166V15.122
			c0-3.373,0.161-5.06,0.481-5.06c0-0.388-0.188-0.629-0.562-0.723c-1.231,0.08-2.677,0.857-4.337,2.329
			c-0.951,0.937-1.7,1.82-2.249,2.65h-0.161c-0.643-0.147-0.964-0.442-0.964-0.884c0.107-0.294,0.401-0.723,0.883-1.285v-0.241
			l-0.241-0.803c0.522-0.669,1.298-1.338,2.329-2.008h0.241l0.241,0.161V8.857l-0.161-0.161h-0.241
			c-0.428,0.375-0.723,0.562-0.883,0.562c-0.536-0.508-0.803-0.883-0.803-1.124l1.205-0.803c-0.027-0.161-0.241-0.241-0.642-0.241
			c-0.683,0.482-1.272,0.723-1.767,0.723l-0.081-0.081v-0.08c0-0.147,0.321-0.334,0.964-0.563c0-0.308,0.937-0.683,2.811-1.124
			l0.321,0.08c0-0.589,1.097-0.883,3.293-0.883L142.239,5.083z M134.931,6.93c0.08,0.214,0.161,0.321,0.241,0.321l0.241-0.08V6.93
			l-0.161-0.161h-0.081L134.931,6.93z M139.348,5.725v0.161c0.268,0,0.535-0.133,0.803-0.401V5.404
			C139.615,5.471,139.348,5.578,139.348,5.725z M140.231,7.332c0,0.161,0.294,0.241,0.884,0.241c0.455,0,0.776-0.161,0.963-0.482
			l-0.08-0.08L140.231,7.332z M140.713,13.355c0,0.161,0.107,0.241,0.321,0.241v0.081l0.241-0.081v-0.321l-0.402-0.08
			L140.713,13.355z M141.837,9.018c0.91,0.897,1.365,1.459,1.365,1.687l-0.08,0.562c0.161,0,0.268,0.214,0.321,0.643l-0.241,1.606
			l0.482,3.614l-0.321,0.161c0.268,0.375,0.402,0.938,0.402,1.687l-0.402,2.008l-0.401,15.099v0.803l-0.081,1.124l0.241,0.321h0.562
			c1.125,0,2.249-0.321,3.373-0.964l0.402-0.08l0.241,0.321c0,0.388-0.589,0.897-1.767,1.526l-0.161,0.241l0.08,0.081h0.241
			c0.495,0,0.844-0.294,1.044-0.883c0.91,0,1.365-0.241,1.365-0.723h0.964c0-0.508,0.883-1.097,2.65-1.767
			c0-0.522,0.616-1.191,1.848-2.008c2.57-2.41,3.855-3.936,3.855-4.578c0.428-0.763,0.642-1.593,0.642-2.49l-0.241-0.16h-0.161
			l0.08,0.401c-0.214,0-0.481,0.536-0.803,1.606c-0.429,0.268-0.643,0.642-0.643,1.124c-1.513,1.928-2.477,2.892-2.891,2.892
			c-0.228,0.763-0.522,1.218-0.884,1.365c-1.298,1.071-2.075,1.606-2.329,1.606h-0.161l-0.08-0.08c0,0.683-0.83,1.245-2.49,1.687
			h-0.08l-0.241-0.241c0.04-0.161,1.218-1.205,3.534-3.132c3.561-3.574,5.568-6.01,6.023-7.309c0.428-0.683,0.643-2.021,0.643-4.016
			V22.43c0-1.927-1.874-5.006-5.622-9.236c-0.12-0.361-0.495-0.709-1.124-1.044v-0.241l0.08-0.08v-0.081
			c-0.683,0-1.941-0.83-3.774-2.49c-1.058-0.803-1.834-1.205-2.329-1.205c-0.482,0-1.526,0.268-3.132,0.803V9.018z M142.721,41.304
			l0.161,0.161h0.161c0.094,0,0.174-0.134,0.241-0.402h0.161l0.241,0.081c-0.054-0.161-0.214-0.241-0.482-0.241
			C142.988,40.969,142.828,41.103,142.721,41.304z M143.604,40.019v0.081h0.481v-0.081H143.604z M143.926,39.055
			c0,0.174,0.268,0.281,0.803,0.321v-0.161l-0.723-0.161H143.926z M144.488,57.125l0.08,0.402h0.161l0.241-0.803h-0.081
			L144.488,57.125z M146.817,8.135l0.161,0.161h0.321l-0.161-0.161H146.817z M147.861,8.215v0.241
			c0.214,0.027,0.321,0.107,0.321,0.241v0.401h0.08l0.321-0.08c0.321,0.107,0.482,0.214,0.482,0.321l-0.08,0.08V9.5h0.08
			l0.482-0.081l0.081,0.081v0.08l-0.081,0.081v0.08c0.803,0.295,1.205,0.589,1.205,0.884l-0.08,0.08h-0.081l-0.241-0.08l0.08,0.08
			l0.241,0.08v0.081l0.482-0.161l0.08,0.08l-0.08,0.402v0.08c0.629,0,1.512,0.803,2.65,2.41v0.482l0.401-0.081
			c0.883,0.643,1.526,1.473,1.927,2.49l-0.241,0.081v0.161c0.589,0.107,0.883,0.375,0.883,0.803v0.161
			c0.268,0,0.402,0.241,0.402,0.723c0.107,0.589,0.321,0.883,0.643,0.883c0.321-0.121,0.481-0.228,0.481-0.321v-0.081
			c-0.241-0.227-0.535-0.763-0.883-1.606l-2.088-3.534c-2.878-3.012-4.618-4.538-5.221-4.578c0-0.294-0.696-0.642-2.088-1.044
			H147.861z M148.664,38.814l0.08,0.401h0.563c1.512,0,3.814-1.633,6.907-4.899c0.482-0.508,0.723-0.856,0.723-1.044h-0.08
			c-0.161,0-1.071,0.723-2.731,2.168l-2.409,1.847c-0.174,0-0.522,0.241-1.044,0.723l-2.008,0.723V38.814z M148.905,6.528v0.081
			h0.161v0.08l0.321-0.08V6.528H148.905z M149.387,10.544l0.081,0.081h0.08l0.321-0.321l-0.08-0.081h-0.161L149.387,10.544z
			 M149.949,6.93V7.01l0.241,0.241l0.241-0.241V6.93l-0.161-0.161h-0.161L149.949,6.93z M156.213,32.871l0.321-0.402v-0.161
			C156.32,32.389,156.213,32.577,156.213,32.871z M161.112,26.044l-0.08,0.401v1.446c-1.044,3.186-2.088,5.515-3.132,6.987
			l-0.883,1.606h0.161c1.713-2.128,2.837-4.029,3.373-5.702c0.482-0.977,0.803-2.182,0.964-3.614
			c-0.067-0.75-0.174-1.124-0.321-1.124H161.112z M157.418,18.334h0.241v0.562h-0.241V18.334z M161.755,24.519l-0.161,0.241v0.161
			l0.241,0.241l0.08-0.08v-0.401L161.755,24.519z"/>
		<path fill="#FFFFFF" d="M176.693,4.761c1.338,0,2.008,0.268,2.008,0.803l0.402-0.08c0.482,0.067,0.723,0.308,0.723,0.723
			l-0.241,0.643h0.08c0.161,0,0.455,0.134,0.883,0.401c0.696,0,2.329,0.75,4.899,2.249c1.486,0.937,2.583,1.713,3.292,2.329
			c0.442,0.535,0.736,0.803,0.884,0.803c1.432-0.643,2.289-0.964,2.57-0.964h0.643c0.91,0,1.499,0.214,1.767,0.643
			c-1.138,1.245-2.208,2.048-3.212,2.409v0.161c0,0.401,0.535,1.285,1.606,2.65v0.161l-0.081,0.241h0.081
			c0.174,0,0.415,0.563,0.723,1.687c0.91,1.807,1.633,3.762,2.168,5.863c0.254,0.549,0.468,1.433,0.643,2.65
			c0.75,1.847,1.125,3.694,1.125,5.542c0,0.763-0.777,3.547-2.329,8.353c0,0.776-0.884,2.57-2.65,5.381
			c-0.161,0.027-0.455,0.509-0.883,1.446c-2.249,2.597-3.855,4.042-4.819,4.337c0,0.321-0.241,0.482-0.723,0.482
			c-0.361,0.415-0.602,0.629-0.723,0.643l-0.321-0.081c-0.094,0-0.174,0.134-0.241,0.402c-0.241,0-0.803,0.294-1.687,0.883
			c-0.228,0-1.968,0.91-5.22,2.73c-1.098,0.536-2.276,0.803-3.534,0.803c-1.459,0-2.53-0.294-3.212-0.883
			c-0.643-0.201-1.66-1.245-3.052-3.132c-0.897-1.191-1.646-2.744-2.249-4.658c-1.018-2.222-1.821-4.176-2.41-5.863
			c-0.308,0-1.165-2.49-2.57-7.469c-0.643-1.659-0.964-5.702-0.964-12.127c0-3.44,0.401-6.492,1.205-9.156
			c0.268-1.392,0.696-2.088,1.285-2.088v-0.081c-0.214-0.228-0.321-0.441-0.321-0.643c0-0.187,0.214-0.428,0.643-0.723V12.07
			l-0.081-0.401c0.254,0,0.522-0.402,0.803-1.205c0.281-0.214,0.656-0.321,1.125-0.321v-0.081c-0.321-0.053-0.482-0.187-0.482-0.401
			c0.388-0.75,0.843-1.125,1.365-1.125V8.295c0-1.017,1.606-1.874,4.819-2.57h0.08l0.081,0.081v0.161
			c-0.067,0.214-0.308,0.321-0.723,0.321v0.08h0.562c0.308-0.428,0.629-0.643,0.964-0.643h0.241c0.241,0,0.455,0.107,0.643,0.321
			c1.954-0.856,3.346-1.285,4.176-1.285H176.693z M160.711,21.145v0.321c0.134,0,0.241-0.214,0.321-0.642L160.711,21.145z
			 M161.594,18.013l-0.08,0.401c0,0.321,0.161,0.536,0.482,0.643l0.08-0.081v-0.241c-0.107-0.482-0.241-0.723-0.401-0.723H161.594z
			 M162.719,14.72l0.08,0.241c-0.188,0-0.428,0.536-0.723,1.606l-0.482,0.562h0.562c0.388-0.348,0.951-1.231,1.687-2.65
			c0.161,0,0.241-0.107,0.241-0.321c0-0.361,1.365-1.807,4.096-4.337c0.348-0.321,0.669-0.482,0.964-0.482l-0.08-0.081V9.018
			c1.365-1.285,2.275-1.928,2.73-1.928h0.161V7.01c-0.121,0-0.308-0.188-0.562-0.562l-4.016,1.205
			c-1.5,1.205-2.249,2.062-2.249,2.57c-0.589,0.308-0.991,0.924-1.205,1.847c-0.241,0.161-0.482,0.83-0.723,2.008L162.719,14.72z
			 M161.835,17.531l0.161,0.161h0.321l-0.161-0.161H161.835z M162.478,27.731c0,1.981,0.107,3.802,0.321,5.461h0.241
			c0.268-0.214,0.401-0.455,0.401-0.723v-0.321c-0.321-0.308-0.482-0.816-0.482-1.526v-0.161l0.161-0.482l-0.161-2.088l0.161-1.928
			l-0.08-0.723c0-0.214,0.161-0.321,0.482-0.321l-0.161-0.161h-0.161C162.719,24.759,162.478,25.75,162.478,27.731z M162.959,33.754
			v0.321c0,1.365,0.83,4.658,2.49,9.878c0.91,1.874,2.115,3.721,3.614,5.542l1.606,0.883v-0.08
			c-1.981-2.168-3.239-4.364-3.774-6.586c-1.847-3.801-2.838-6.585-2.972-8.353c-0.308-1.178-0.549-1.767-0.723-1.767h-0.081
			L162.959,33.754z M163.281,19.378l-0.08,0.08v0.081h0.482v-0.081L163.281,19.378z M163.683,18.334v0.401h0.241l0.161-0.161v-0.08
			l-0.161-0.161H163.683z M163.923,33.915v0.08h0.401l0.081-0.241l-0.081-0.081h-0.08L163.923,33.915z M164.004,22.029
			c0.281,6.318,0.522,10.333,0.723,12.047l1.365,4.417c0.294,1.352,0.776,2.69,1.446,4.016l1.205,2.49
			c0,0.509,0.294,1.044,0.883,1.606c0.535,0.937,0.803,1.633,0.803,2.088l0.241-0.08c0.107,0,0.696,0.669,1.767,2.008
			c0.803,0.963,1.981,1.445,3.534,1.445l3.694-0.723c2.945-0.924,5.033-1.941,6.265-3.052c4.029-3.521,6.277-5.957,6.746-7.309
			c0.334,0,0.549-0.509,0.643-1.526v-0.321c0-0.121,0.214-0.254,0.643-0.401v-0.321l-0.081-0.081v-0.08l-0.401,0.08l-0.161-0.161
			v-0.562l-0.161-0.883l0.241-0.964c-1.285-6.559-2.356-10.548-3.212-11.967c-1.767-4.444-2.999-6.666-3.694-6.666h-0.161
			c-0.228,0-0.522,0.161-0.883,0.482l0.08,0.081v0.08l-0.161,0.161h-0.08c-0.415,0-0.871-0.268-1.365-0.803v-0.161l1.205-1.365
			c-0.295-0.643-0.696-0.963-1.205-0.963c-0.268-0.803-0.723-1.205-1.366-1.205c-1.767-1.285-3.801-1.927-6.104-1.927
			c0-0.067-0.883-0.121-2.65-0.161c-1.486,0-3.146,1.178-4.979,3.534c0,0.161-0.616,1.178-1.847,3.052l-2.008,3.614l-0.883,0.321
			v0.161H164.004z M164.164,14.801l-0.08,0.08v0.321c0.04,0.321,0.121,0.482,0.241,0.482l0.321-0.723L164.164,14.801z
			 M164.245,17.531v0.08l0.321,0.321h0.08v-0.241l-0.161-0.161H164.245z M164.485,20.503v0.562h0.081l0.321-0.321v-0.161
			l-0.161-0.161L164.485,20.503z M165.208,19.298c0.428-0.281,0.643-0.602,0.643-0.963h-0.081c-0.361,0.228-0.576,0.549-0.643,0.963
			H165.208z M165.289,15.845v0.401h0.161v0.081c0.321-0.121,0.482-0.308,0.482-0.563l-0.321-0.161
			C165.396,15.684,165.289,15.764,165.289,15.845z M166.413,14.158h-0.081c-0.04-0.268-0.12-0.402-0.241-0.402h-0.08
			c-0.134,0-0.241,0.214-0.321,0.643v0.161c0,0.214,0.348,0.348,1.044,0.401v-0.08c0-0.428,1.044-1.418,3.132-2.972l1.124-1.044
			v-0.161h-0.08C169.398,11.387,167.899,12.539,166.413,14.158z M168.26,13.917l0.08,0.402c0,0.12-0.188,0.228-0.562,0.321
			l-0.08,0.401v0.321h0.08c0-0.375,0.294-0.616,0.883-0.723C168.501,14.158,168.367,13.917,168.26,13.917z M169.786,9.661
			c-0.388,0.803-0.843,1.205-1.365,1.205l-0.161,0.401l0.08,0.241h0.081c0.228,0,0.629-0.321,1.205-0.964l0.643-0.241
			c-0.147-0.428-0.281-0.643-0.401-0.643H169.786z M168.26,53.993v0.08c0,0.281,0.107,0.469,0.321,0.563v-0.081
			C168.461,54.181,168.354,53.993,168.26,53.993z M168.742,50.459v0.161c0.495,1.151,1.673,2.275,3.534,3.373
			c0.549,0.214,1.191,0.321,1.927,0.321h0.643c1.928,0,3.293-0.321,4.096-0.964l-0.161-0.161c-0.536,0.214-1.018,0.321-1.446,0.321
			c-2.798,0-5.26-0.776-7.389-2.329C169.746,51.182,169.344,50.941,168.742,50.459z M168.822,53.672v0.08
			c0,0.134,0.348,0.696,1.044,1.687l0.08,0.241l-0.08,0.241h0.08c0.294,0,0.937,0.456,1.928,1.365
			c0.642,0.429,1.418,0.643,2.329,0.643h0.321c1.406,0,2.851-0.482,4.337-1.445v-0.081h-0.08l-2.73,0.482
			c-2.128,0-4.324-0.91-6.586-2.73C169.25,53.833,169.037,53.672,168.822,53.672z M170.83,9.259l0.241,0.161
			c0.093,0,0.201-0.187,0.321-0.562c0.643-0.442,1.98-0.87,4.016-1.285v-0.08l-1.526-0.321h-0.321c-0.763,0-1.646,0.589-2.65,1.767
			L170.83,9.259z M174.043,10.464v0.161l2.57-0.081h1.446c0.107,0,0.16,0.134,0.16,0.401l0.081,0.081h0.241
			c0.094,0,0.174-0.188,0.241-0.562h0.08c0.375,0,0.563,0.241,0.563,0.723h0.161c0.026-0.214,0.107-0.321,0.241-0.321h0.321
			c0.161,0,0.241,0.107,0.241,0.321l-0.321,0.482v0.161h0.16l0.482-0.563c1.098,0.563,2.704,1.606,4.819,3.132l-0.08,0.321
			c0.214,0.027,0.321,0.107,0.321,0.241l-0.081,0.321c0.201,0,0.442-0.107,0.723-0.321c0-0.321-1.178-1.499-3.534-3.534
			c-1.432-1.071-2.369-1.606-2.811-1.606h-3.052c-1.713,0-2.57,0.161-2.57,0.482L174.043,10.464z M174.685,6.207v0.161
			c0,0.308,1.098,0.576,3.293,0.803l0.401,0.241c0.482-0.12,0.723-0.254,0.723-0.401c0-0.121-0.134-0.201-0.402-0.241V6.528
			l0.161-0.241V6.127l-3.453-0.161h-0.081C174.939,5.966,174.726,6.046,174.685,6.207z M175.569,7.09v0.321h0.08l0.241-0.241V7.09
			H175.569z M179.745,55.117v0.161h0.08c0.723,0,1.499-0.375,2.329-1.124v-0.161h-0.08C181.806,53.993,181.03,54.368,179.745,55.117
			z M181.592,51.905v0.161l0.161,0.161h0.08l0.081-0.08l0.08-0.241h0.081l-0.081-0.321h-0.08L181.592,51.905z M183.439,11.026
			l1.365,1.125c0.522,0.602,1.004,0.977,1.445,1.124c0.134-0.268,0.348-0.401,0.643-0.401c0.228,0,0.576,0.268,1.044,0.803h0.241
			c0-0.415-0.589-1.004-1.767-1.767h-0.161l0.563,0.563v0.08c-0.054,0.161-0.214,0.241-0.482,0.241
			c-0.857-0.268-1.285-0.589-1.285-0.964l0.081-0.321h-0.482c-0.268-0.428-0.536-0.643-0.803-0.643L183.439,11.026z M184.082,53.511
			c0.093,0.214,0.281,0.321,0.562,0.321h0.08c-0.08-0.214-0.268-0.321-0.562-0.321H184.082z M185.367,52.869v0.161h-0.08l0.08,0.241
			h0.241l0.161-0.161v-0.08l-0.161-0.161H185.367z M186.17,52.387v0.241c1.526-0.87,2.677-1.78,3.454-2.731v-0.161h-0.241
			l-2.49,1.847L186.17,52.387z M186.491,13.756c0.093,0.214,0.281,0.321,0.562,0.321h0.081v-0.08
			c-0.107-0.241-0.214-0.375-0.321-0.402h-0.161L186.491,13.756z M187.776,16.728v0.241c0,0.188,0.508,1.071,1.526,2.65
			c0,0.121,0.268,0.576,0.803,1.365l1.044,2.972l0.161,0.161v0.081l-0.081,0.401h0.241c0.133,0,0.241-0.214,0.321-0.643
			c0-0.375-0.241-0.776-0.723-1.205c-0.576-2.463-1.593-4.471-3.052-6.023H187.776z M189.222,15.523l-0.08,0.401v0.241
			c0.308,0.174,0.923,1.245,1.847,3.212l0.562,0.643h0.081c0-0.696-0.696-2.168-2.088-4.417l-0.08-0.08H189.222z M191.551,25.081
			v0.08l0.081-0.08h0.321l0.401,0.321V24.92l-0.161-0.161h-0.321L191.551,25.081z M191.631,22.109v0.321
			c0.468,0.281,0.79,0.736,0.963,1.365c0.268,0.723,0.455,1.606,0.563,2.65c0.254,0,0.495,0.536,0.723,1.606h0.081V27.65
			c-0.429-2.864-1.125-4.792-2.088-5.782L191.631,22.109z M191.792,26.044v0.401l0.321-0.241h0.08l-0.08,1.044l0.08,0.08h0.482
			l-0.321-0.401v-0.08l0.241-0.321v-0.321c-0.107-0.268-0.294-0.402-0.562-0.402L191.792,26.044z M192.595,27.811v0.161l0.161,0.161
			h0.081l0.161-0.161v-0.161l-0.161-0.161h-0.081L192.595,27.811z M192.755,28.614l-0.08,0.081v0.08
			c0.161,0.482,0.321,0.723,0.482,0.723l0.161-0.321C193.21,28.802,193.023,28.614,192.755,28.614z M192.755,21.145v0.081
			c0,0.334,0.241,0.709,0.723,1.125v-0.161c-0.254-0.669-0.469-1.017-0.643-1.044H192.755z M193.077,29.979l0.081,0.081l0.241,0.08
			v0.081l0.241-0.081v-0.08l-0.241-0.241h-0.161L193.077,29.979z M193.398,33.112v0.08h0.241l0.161-0.161v-0.16h-0.161
			L193.398,33.112z M194.522,22.912v0.241l0.161,0.563h0.161v-0.081C194.844,23.22,194.736,22.979,194.522,22.912z M194.522,29.016
			v0.161l0.241,0.241h0.081l0.08-0.241l-0.241-0.161H194.522z M194.522,30.783l0.241,0.241h0.241l0.161-0.16l-0.241-0.241h-0.241
			L194.522,30.783z M196.209,34.798v0.241l0.08,0.563h0.081l0.161-0.964v-0.08l-0.081-0.402
			C196.289,34.183,196.209,34.397,196.209,34.798z"/>
		<path fill="#FFFFFF" d="M199.903,5.263h0.241c0.254,0,0.575,0.134,0.963,0.402c0.803,0,1.205,0.294,1.205,0.883V6.79
			c0,0.161-0.107,0.241-0.321,0.241l-0.402-0.08c0.254,0.321,0.549,0.481,0.883,0.481c0.415,0,1.031-0.241,1.847-0.723h0.081
			c0.214,0.067,0.321,0.308,0.321,0.723v0.402h-0.161l-0.401-0.321h-0.321l-0.321,0.321c0.04,0.321,0.12,0.482,0.241,0.482
			c0.107-0.214,0.241-0.321,0.402-0.321l0.562,0.08c0-0.321,4.952-0.482,14.858-0.482c0.321,0,0.482,0.161,0.482,0.482
			c0.321-0.375,0.803-0.562,1.445-0.562c1.981,0,3.801,0.161,5.461,0.482V7.753h0.321c0.522,0,0.95,0.349,1.285,1.044l0.081,0.08
			h0.08c0.415,0,0.656-0.268,0.723-0.803c0-0.294-0.134-0.856-0.402-1.687v-0.08c0-0.134,0.107-0.214,0.321-0.241
			c1.004,0.429,1.834,0.723,2.49,0.884c0.535,0.937,0.803,1.526,0.803,1.767l0.321,2.972c-0.174,0.75-0.522,1.125-1.044,1.125
			c-0.335,0-0.549-0.428-0.643-1.285h-0.563c-0.509,0-1.205,0.883-2.088,2.65c-0.201,0.214-0.067,0.208,0.401-0.02
			c-0.161,0-0.241,0.268-0.241,0.803c-1.285,1.566-2.276,2.744-2.972,3.534l-0.482,0.481v0.482l-0.643,2.008
			c0,0.241-0.268,0.589-0.803,1.044c0,0.334-0.268,1.057-0.803,2.168c0,0.415-0.776,2.396-2.329,5.943
			c-0.616,1.74-1.446,3.802-2.49,6.184c-0.134,0.014-0.455,0.656-0.964,1.928c-0.401,0.415-0.937,1.485-1.606,3.212
			c-0.107,0-0.402,0.509-0.884,1.526c-0.321,0.228-0.776,1.084-1.365,2.57c-0.79,1.205-1.298,2.437-1.526,3.694l0.081,0.321
			c-0.482,0-0.777,0.241-0.884,0.723h0.081l0.241-0.081l0.081,0.081v0.08c-0.536,1.018-0.803,1.606-0.803,1.767v0.161l1.526,0.481
			l-0.161-0.481c0.241-0.107,0.589-0.161,1.044-0.161h0.321c1.914,0,3.199-0.134,3.855-0.402l9.236-0.08
			c2.811,0,5.917,0.107,9.316,0.321v-0.643c0-0.522,0.268-1.191,0.803-2.008v-0.402h-0.161c0,0.214-0.081,0.321-0.241,0.321
			l-0.081-0.08v-0.081c0-0.683,0.268-1.271,0.803-1.767h0.321c0.535,0.294,0.803,1.151,0.803,2.57v0.482
			c0,0.107-0.081,0.161-0.241,0.161l-0.08,0.08v0.081c0,0.121,0.133,0.201,0.401,0.241c0.214,0,0.321-0.161,0.321-0.481
			c0.134-0.214,0.375-0.321,0.723-0.321h0.241c0.294,0,0.482,0.107,0.562,0.321c0,0.308-0.107,0.629-0.321,0.963l0.402,0.563v0.08
			l-0.081,0.402c0.589,0,0.883,0.214,0.883,0.642c0.214,0,0.321,0.054,0.321,0.161v0.321c-0.161,0.348-0.535,0.696-1.124,1.044
			c-0.723,1.807-1.232,2.771-1.526,2.892l-0.241,0.08c-0.401,0-0.83-0.589-1.285-1.767l-10.922-0.803l-6.827-0.081l-11.886,0.321
			c-0.964,0-1.445,0.429-1.445,1.285c-0.255,0.027-0.522,0.536-0.803,1.526l-0.563,0.402l-0.803-0.081l-1.285,0.161l-0.241-0.241
			v-1.847c0-0.509-0.294-0.91-0.883-1.205c-0.482-0.696-0.723-1.205-0.723-1.526c0-0.174,0.589-0.334,1.767-0.482
			c0.228,0,0.388-0.99,0.482-2.971l0.241-0.161h0.08c0.388,0,0.763,0.401,1.125,1.205l0.723,0.161h0.482
			c0.75-0.75,1.125-1.58,1.125-2.49c0.83-1.807,1.392-2.878,1.687-3.212c0.188-0.75,0.375-1.125,0.562-1.125
			c0.79-2.075,2.235-5.233,4.337-9.477c2.717-4.952,4.725-8.888,6.023-11.806c0.361-0.334,0.683-1.057,0.964-2.168
			c0.388-0.402,0.896-1.312,1.526-2.731c2.999-4.35,4.498-6.94,4.498-7.77v-0.08l-0.401-0.161l-1.285,0.161l-0.241-0.321
			l-1.285,0.161l-4.498-0.081l-1.205,0.161h-1.687l-0.321,0.081l-0.321-0.081h-1.285c-0.643,0-1.258-0.08-1.847-0.241
			c0,0.147-2.142,0.415-6.425,0.803c-1.218-0.053-2.289-0.187-3.213-0.401l-0.241,0.161l0.482,2.088h-0.081
			c-0.428-0.428-0.723-0.642-0.883-0.642v0.08l0.321,0.402v0.241c-0.361,1.446-0.763,2.168-1.205,2.168
			c-0.509,0-1.178-1.446-2.008-4.337l-0.241-2.088c0.067-1.07,0.281-1.606,0.643-1.606l0.803,0.482l0.081-0.241l-0.321-2.49
			L199.903,5.263z M201.429,54.314v0.161l0.161,0.161h0.081l0.161-0.161v-0.161l-0.161-0.161h-0.081L201.429,54.314z M201.911,9.359
			l0.401,0.08h0.161l0.563-0.08V9.119l-0.482-0.081C202.125,9.105,201.911,9.212,201.911,9.359z M204.24,52.467
			c0,0.161,0.241,0.268,0.723,0.321l0.081-0.081v-0.08l-0.723-0.161H204.24z M206.891,52.547l0.241,0.161h0.161
			c0.121,0,0.228-0.348,0.321-1.044l0.402-0.402v-0.161l-0.161-0.16h-0.081l-0.08,0.08c-0.147,0.442-0.415,0.897-0.803,1.365V52.547
			z M208.176,49.415c0.629-0.602,1.03-1.218,1.205-1.847h-0.161C208.805,47.568,208.457,48.184,208.176,49.415z M208.256,52.869
			v0.161l0.241,0.241v-0.08l-0.08-0.321c0.535-0.241,0.99-0.937,1.365-2.088l0.081-0.482
			C208.979,51.222,208.443,52.079,208.256,52.869z M209.3,46.685v0.161c0.281,0,0.442-0.08,0.482-0.241v-0.161h-0.241L209.3,46.685z
			 M209.702,45.721l0.08,0.081h0.402l0.16-0.161l-0.241-0.241C209.862,45.507,209.728,45.614,209.702,45.721z M209.862,49.656v0.161
			c0.174,0,0.575-0.723,1.205-2.168c0.388-0.321,1.191-2.008,2.409-5.06c0.428-0.656,0.723-1.218,0.883-1.687h-0.08
			c-0.469,0.334-0.79,0.816-0.964,1.445c-0.321,0-0.482,0.348-0.482,1.044c-0.415,0.589-1.245,2.249-2.49,4.979
			C210.023,48.612,209.862,49.041,209.862,49.656z M210.826,43.231v0.161h-0.08l0.08,0.241h0.241l0.161-0.161v-0.241H210.826z
			 M211.709,42.107l0.08,0.08h0.081c0.334-0.643,0.709-0.964,1.124-0.964v-0.161l-0.241-0.241h-0.321
			C211.95,41.17,211.709,41.598,211.709,42.107z M212.352,40.26l0.081,0.241c0.348,0,0.75-0.615,1.205-1.847h-0.241
			C213.061,38.921,212.713,39.457,212.352,40.26z M214.119,36.806l0.081,0.401c-0.321,0-0.482,0.188-0.482,0.563v0.321l0.161,0.161
			c0.856-1.646,1.285-2.69,1.285-3.132v-0.081h-0.161c-0.321,0-0.535,0.509-0.643,1.526L214.119,36.806z M214.279,40.099v0.321
			c0.147,0,0.254-0.188,0.321-0.563h-0.081L214.279,40.099z M214.52,53.431v0.081c0.041,0.161,0.254,0.241,0.643,0.241h0.081
			l0.161-0.161c-0.228-0.161-0.442-0.241-0.643-0.241L214.52,53.431z M214.841,41.063v0.161h-0.08l0.241,0.241v0.08l0.241-0.08
			v-0.241l-0.161-0.161H214.841z M215.323,34.316l0.081,0.241h0.161c0.147-0.054,0.361-0.402,0.643-1.044
			c0.173,0,0.281-0.294,0.321-0.883l-0.08-0.401h-0.081c-0.16,0.013-0.401,0.576-0.723,1.687
			C215.537,33.942,215.43,34.076,215.323,34.316z M216.448,37.689v0.563h0.321l0.08-0.402v-0.241l-0.161-0.161L216.448,37.689z
			 M216.528,53.672v0.08h1.125c0.856-0.04,1.285-0.174,1.285-0.401h-0.081L216.528,53.672z M216.769,36.646v0.241h0.08
			c0.549-0.308,1.004-1.111,1.366-2.41c0-0.241,0.214-0.535,0.642-0.883l-0.08-0.563c0.294,0,0.508-0.428,0.643-1.285
			c0.75-1.86,1.124-2.985,1.124-3.373h-0.08c-0.75,1.205-1.767,3.48-3.052,6.826C217.117,35.562,216.903,36.043,216.769,36.646z
			 M217.331,52.547l0.081,0.402h0.241v-0.241l-0.161-0.161H217.331z M219.741,9.359l0.241,0.321h0.161
			c0.214-0.107,0.321-0.268,0.321-0.482l-0.241-0.161C219.901,9.038,219.741,9.146,219.741,9.359z M219.981,53.511v0.08h0.161v0.081
			l4.417-0.081h5.221c1.124,0,1.687-0.08,1.687-0.241c-0.281-0.214-1.299-0.321-3.052-0.321h-1.526
			C223.663,53.029,221.36,53.19,219.981,53.511z M221.106,26.526c0,0.228-0.134,0.468-0.402,0.723v0.321h0.241l0.321-0.402v-0.481
			L221.106,26.526z M221.829,24.519l-0.482,0.883l0.081,0.08h0.08c0.268,0,0.402-0.187,0.402-0.562h0.08l-0.08-0.401H221.829z
			 M221.507,22.671h0.161c0.161-0.054,0.241-0.214,0.241-0.482v-0.321C221.775,21.868,221.641,22.136,221.507,22.671z M223.515,19.7
			h0.081c0.348,0,1.097-1.017,2.249-3.052l0.161-0.643v-0.563C225.63,15.845,224.8,17.264,223.515,19.7z M226.728,13.998
			c-0.268,0.401-0.401,0.696-0.401,0.883v0.241c0.161-0.093,0.348-0.441,0.562-1.044l-0.08-0.08H226.728z M229.94,6.95l-0.081,0.321
			l0.081,0.321h0.161l0.08-0.08h0.081C230.141,7.138,230.034,6.95,229.94,6.95z M236.606,50.7c-0.214,0.482-0.321,0.937-0.321,1.365
			c0.08,0.214,0.16,0.321,0.241,0.321c0.161-0.04,0.241-0.254,0.241-0.643v-0.883L236.606,50.7z M237.891,51.744l-0.08,0.081v0.401
			l0.161,0.161l0.241-0.241C238.105,51.905,237.998,51.771,237.891,51.744z"/>
		<path fill="#FFFFFF" d="M273.309,4.842h0.08c0.924,0,1.513,0.241,1.767,0.723v0.402c0,0.428-0.536,0.723-1.606,0.883
			c-0.482,0.268-1.017,0.401-1.606,0.401h-0.482l0.08,2.168v0.723l-0.161,0.642v0.321l-0.562,4.176l-0.161,16.786
			c-0.214,3.949-0.482,7.589-0.803,10.922c-0.107,2.262-0.161,5.368-0.161,9.316v1.445c0,1.125,0.188,1.687,0.563,1.687l0.08,0.081
			h0.081l1.687-0.321h0.481c0.415,0,0.709,0.161,0.884,0.482v0.241c0,0.509-0.509,1.018-1.526,1.526
			c-0.763,0-1.379,0.456-1.847,1.366h-0.081c-0.643-0.268-1.178-0.402-1.606-0.402h-0.081c-0.08,0-0.188,0.214-0.321,0.643h-0.161
			c-0.816-0.375-1.325-0.562-1.526-0.562h-0.161l-1.687,0.08c-0.857-0.495-1.285-1.057-1.285-1.687
			c0.121-0.321,0.228-0.482,0.321-0.482h0.081c0.161,0,0.375,0.429,0.643,1.285h0.161c0.107,0,0.16-0.134,0.16-0.402l0.161-0.481
			c0.174-0.134,0.415-0.214,0.723-0.241l0.08-0.321l-1.526-3.694c-1.392-3.667-3.132-8.807-5.22-15.42
			c-0.134,0-0.294-0.643-0.482-1.928c-0.241-0.187-0.669-1.365-1.285-3.534c-0.254-0.348-0.602-1.499-1.044-3.453l-0.401-0.643
			l0.08-0.081v-0.08c0-0.388-0.803-2.182-2.409-5.381c0-0.228-0.295-1.138-0.883-2.731c-1.192-3.48-1.861-5.22-2.008-5.22
			c-0.107,0.214-0.161,0.509-0.161,0.883v0.161l-0.402,7.309c-0.268,6.292,0,14.376,0.803,24.254l-0.161,0.723l0.482,1.606
			l-0.081,1.767c0,0.91,1.017,1.365,3.052,1.365c0.321,0.161,0.482,0.375,0.482,0.643v0.321c0,0.214-0.589,0.509-1.767,0.884
			c0,0.161-0.268,0.241-0.803,0.241c-0.776,0.696-1.312,1.044-1.606,1.044h-0.081l-1.847-0.08c-0.321,0-0.83,0.401-1.526,1.205
			h-0.081c-0.723-0.696-1.553-1.178-2.489-1.445c-0.214-0.254-0.321-0.469-0.321-0.643c0.04-0.241,0.308-0.455,0.803-0.643
			l0.081-0.081V53.27l-0.321-0.08v-0.401l-0.482-1.606c0.094-0.535,0.549-0.803,1.365-0.803c0.268-0.549,0.402-1.004,0.402-1.365
			l-0.161-13.894l0.401-13.412c0-6.318,0.081-10.735,0.241-13.251l-0.081-0.563h-0.08l-0.482,0.563
			c-1.821-1.058-2.731-1.753-2.731-2.088c0.094-0.321,0.415-0.482,0.964-0.482l0.482,0.081c0.348,0,0.696-0.161,1.044-0.482
			l2.892-0.883l3.373,0.16l2.088-0.16l0.161,0.241l-0.161,0.964h0.563l0.161,0.161v0.08c0,0.857-0.723,1.285-2.168,1.285
			c-1.071,0.134-1.606,0.509-1.606,1.125v0.401c0,0.214,0.616,1.794,1.847,4.738c0.75,1.981,1.338,3.266,1.767,3.855
			c0,0.496,0.803,2.557,2.409,6.184l4.256,11.324c1.338,4.069,2.41,6.693,3.213,7.871c1.124,2.276,1.98,4.364,2.57,6.264h0.08
			l0.081-1.365v-2.811c0-2.517,0.401-7.148,1.205-13.895l-0.08-13.573l0.161-0.161v-0.161c0.428-4.35,0.776-7.241,1.044-8.673V8.135
			c0-0.334-0.294-0.603-0.883-0.803c-0.522-0.535-1.459-1.017-2.811-1.446c-0.161,0,0.161-0.562,0.964-1.687V4.039
			c0-0.147-0.268,0.147-0.803,0.883l1.044,0.241L273.309,4.842z M244.958,51.423c0.081,0.268,0.268,0.402,0.563,0.402h0.08
			l0.161-0.482c0-0.334-0.134-0.575-0.401-0.723h-0.081C245.132,50.62,245.025,50.888,244.958,51.423z M246.003,26.526l-0.081,0.401
			l0.081,0.08h0.08v-0.481H246.003z M246.404,24.92l0.08,0.08h0.081c0.281,0,0.442-0.08,0.482-0.241v-0.08h-0.161
			C246.565,24.706,246.404,24.786,246.404,24.92z M246.565,36.164v0.081l0.321,0.321l0.08-0.321l-0.08-0.321h-0.081L246.565,36.164z
			 M246.726,31.586v0.161c0.107,0.281,0.241,0.441,0.401,0.482l0.081-0.081v-0.08C247.073,31.787,246.913,31.626,246.726,31.586z
			 M246.726,33.192v0.241l0.161,0.161h0.241v-0.081l-0.161-0.321H246.726z M246.726,34.477c0.04,0.321,0.121,0.482,0.241,0.482
			l0.161-0.482v-0.321l-0.161-0.161C246.806,34.049,246.726,34.209,246.726,34.477z M246.886,23.233v0.241l0.161,0.161h0.08
			l0.241-0.161c-0.081-0.214-0.161-0.321-0.241-0.321L246.886,23.233z M247.448,14.158c-0.161,0-0.321,2.784-0.482,8.353l0.081,0.08
			h0.08c0.241,0,0.455-2.597,0.643-7.79l-0.161-0.643H247.448z M247.288,52.387v0.081h0.161c0.281,0,0.442-0.081,0.482-0.241
			l-0.08-0.08h-0.081C247.448,52.173,247.288,52.253,247.288,52.387z M247.609,46.845l-0.08,0.401v0.241h0.08
			c0.161-0.053,0.241-0.214,0.241-0.482v-0.161H247.609z M247.85,24.358l-0.081,0.241c0.094,0.268,0.254,0.401,0.482,0.401v-0.16
			c0-0.281-0.08-0.442-0.241-0.482H247.85z M247.93,44.195h0.081c0.254,0,0.441-0.161,0.562-0.482l-0.241-0.08
			C248.144,43.633,248.011,43.82,247.93,44.195z M248.171,30.542l-0.161,1.526v4.498c0,3.427,0.107,5.648,0.321,6.666h0.16v-0.08
			l-0.08-0.883c0.161-0.308,0.241-0.683,0.241-1.125l-0.161-7.549l0.161-1.606l-0.241-0.241l0.08-0.643l-0.16-0.562H248.171z
			 M249.055,47.086c-0.161,0-0.294,1.446-0.402,4.337l0.081,0.402h0.08c0.334,0,0.522-0.91,0.563-2.731
			C249.309,47.756,249.202,47.086,249.055,47.086z M248.733,46.123c0,0.281,0.134,0.495,0.401,0.643l0.241-0.081
			c-0.147-0.535-0.308-0.803-0.482-0.803C248.787,45.881,248.733,45.962,248.733,46.123z M248.974,44.436v0.08l0.241,0.321h0.08
			v-0.161h0.081l-0.081-0.241H248.974z M249.858,9.821v0.321h0.161l0.241-0.241v-0.08H249.858z M255.801,26.526l0.321,0.321v-0.161
			h0.081l-0.241-0.321L255.801,26.526z M256.363,27.41c0.107,0.334,0.241,0.522,0.401,0.562h0.241v-0.08l-0.482-0.482H256.363z
			 M256.925,29.016c0,0.375,0.187,0.563,0.562,0.563v-0.321l-0.401-0.401L256.925,29.016z M257.969,30.783v0.241l0.161,0.161h0.241
			v-0.08l-0.161-0.321H257.969z M259.897,38.573c0.268-0.228,0.401-0.549,0.401-0.964C260.151,37.609,260.017,37.931,259.897,38.573
			z M260.379,38.573c0,0.616,0.455,2.008,1.365,4.176c0,0.415,0.83,2.476,2.49,6.184l1.205,3.052
			c0.294,0.268,0.535,0.401,0.723,0.401c-0.321-0.228-0.536-0.79-0.643-1.687c-0.535-1.74-1.017-2.891-1.445-3.454
			c0-0.334-1.125-3.145-3.374-8.433l-0.241-0.241H260.379z M264.395,52.628v0.161h0.16l0.321-0.321h-0.321L264.395,52.628z
			 M266.161,53.833v0.08c0,0.241,0.214,0.482,0.643,0.723l0.08-0.081c-0.094-0.281-0.308-0.522-0.642-0.723H266.161z M267.366,5.645
			l-0.08,0.08v0.081h0.562V5.725L267.366,5.645z M267.446,48.692l-0.081,0.401l0.081,0.321h0.161l0.08-0.08l0.081-0.241h0.08
			c-0.067-0.268-0.147-0.401-0.241-0.401H267.446z M267.446,41.544v0.321l0.321,0.321h0.08c0.161,0,0.241-0.107,0.241-0.321
			c-0.067-0.375-0.174-0.562-0.321-0.562h-0.081L267.446,41.544z M267.446,44.757l0.241,0.321c0.147-0.026,0.254-0.16,0.321-0.401
			l-0.08-0.643l0.321-0.562v-0.081C267.915,43.392,267.647,43.847,267.446,44.757z M267.607,42.508l-0.081,0.081v0.321l0.161,0.16
			h0.321l0.081-0.401L267.607,42.508z M267.768,45.48l-0.161,0.964l0.161,0.803h0.161l0.161-0.723v-0.08l-0.161-0.964H267.768z
			 M267.687,40.581v0.08l0.161,0.161h0.161l0.081-0.401v-0.482h-0.161C267.768,39.965,267.687,40.179,267.687,40.581z
			 M268.008,37.368v0.241l0.241,0.241l0.08-0.08v-1.044C268.196,36.726,268.089,36.94,268.008,37.368z M268.49,32.951l-0.08,0.401
			l0.241,0.241l0.321-0.321v-0.081l-0.241-0.241H268.49z M268.812,18.013c-0.482,2.717-0.489,4.859-0.02,6.425
			c0.067,3.28-0.034,5.823-0.301,7.63l0.08,0.241c0.294,0,0.563-1.338,0.803-4.016c0.147-2.249-0.013-4.979-0.482-8.192v-2.088
			H268.812z M268.812,16.005v0.08l0.161,0.161h0.161l0.161-0.161v-0.08l-0.161-0.161h-0.161L268.812,16.005z M269.374,11.749
			l-0.08,0.402v0.321c0,0.268,0.107,0.428,0.321,0.481l0.08-0.08v-0.241c-0.161-0.147-0.241-0.442-0.241-0.884H269.374z
			 M269.374,9.741v0.081h0.402l0.08-0.241l-0.08-0.08h-0.081L269.374,9.741z"/>
		<path fill="#FFFFFF" d="M293.227,7.171c2.142,0.134,3.212,0.375,3.212,0.723v0.241c0,0.602-0.321,1.004-0.964,1.205
			c-0.535,0.321-0.803,0.669-0.803,1.044l1.526,8.593c0,0.924,0.241,1.941,0.723,3.052l1.365,3.534v0.08h-0.08l-0.563-0.08
			c0.803,0.669,1.205,1.606,1.205,2.811c0.281,0.441,0.548,1.352,0.803,2.73c0.214,0.469,0.804,2.771,1.767,6.907l1.768,6.184
			c0.669,1.955,1.499,4.096,2.489,6.425c1.018,3.306,1.66,4.993,1.928,5.06c0.106,0.188,0.535,0.428,1.285,0.723l0.16,0.241
			c0,0.174-0.481,0.87-1.445,2.088c-0.215,0.214-0.509,0.321-0.884,0.321h-0.08l-1.445-0.241l-0.482,0.08
			c-0.896-0.375-2.342-0.669-4.336-0.883c-0.375-0.228-0.563-0.388-0.563-0.482c0-0.361,0.374-0.683,1.124-0.964l0.08-0.401V55.92
			c-0.374-1.071-0.562-2.008-0.562-2.811v-0.803c0-0.321,0.106-0.482,0.32-0.482c0.268,0,0.482,0.455,0.643,1.365l0.08,0.08h0.242
			c0.093,0,0.174-0.133,0.24-0.401c0-0.964-0.428-1.446-1.285-1.446l-0.08-0.08c-0.16,0-0.24-0.053-0.24-0.161l0.24-1.526
			c-0.603-1.191-1.352-3.226-2.249-6.104c-0.803-2.784-1.205-4.47-1.205-5.06v-0.161l0.241-0.723c-0.294,0-0.509-0.161-0.643-0.482
			c-0.174-0.321-0.469-0.482-0.883-0.482h-0.643c-1.606,0-4.23,0.509-7.871,1.526l-1.767,0.161c0,0.429-0.268,1.339-0.803,2.73
			l-1.044,3.775c-0.268,1.446-1.071,4.685-2.409,9.718c0,0.268,0.508,0.402,1.526,0.402l0.883-0.081
			c0.482,0.027,0.723,0.268,0.723,0.723l0.241-0.321l0.08-0.08h0.161l0.482,0.401h0.081l0.401-0.08l0.081,0.08v0.321
			c0,0.442-2.972,1.031-8.915,1.767c-1.713-0.147-2.57-0.334-2.57-0.563v-0.241c0-0.75,0.428-1.125,1.285-1.125
			c1.231-0.053,1.847-0.214,1.847-0.482v-1.205l0.161-0.161c0.161,0,0.241,0.107,0.241,0.321h0.081l-0.161-1.044
			c0-0.134,0.321-0.535,0.963-1.205l-0.241-0.402v-0.321c0.99-5.514,1.687-8.272,2.088-8.272c1.125-2.677,2.008-5.434,2.65-8.272
			c0.643-2.289,1.74-6.867,3.293-13.734l3.293-10.039l0.161-0.883c-0.054-0.321-0.161-0.535-0.321-0.643
			c-1.312,0.589-2.088,0.884-2.329,0.884l-0.161-0.241v-0.08l0.161-0.482l-0.402-0.563V8.777c0-0.187,0.856-0.535,2.57-1.044
			l0.321-0.161l0.642,0.081C291.111,7.425,291.968,7.265,293.227,7.171z M280.457,44.597v0.321h0.08l0.321-0.321v-0.241h-0.161
			L280.457,44.597z M285.757,36.164l0.241,0.241h0.08l0.402-0.081v-0.161c0-0.08-0.107-0.161-0.321-0.241
			C285.891,35.99,285.757,36.07,285.757,36.164z M291.459,18.896c-0.482,0.937-1.365,3.561-2.65,7.871
			c-0.174,0-0.334,0.643-0.481,1.928c-0.268,0.188-0.723,1.606-1.366,4.256l-0.08,0.08l-0.241,0.321
			c0,0.121,0.241,0.308,0.723,0.563v0.161c0,0.161-0.241,0.268-0.723,0.321l-0.08,0.08v0.081c0,0.161,0.294,0.241,0.883,0.241
			c0.723,0,2.41-0.241,5.06-0.723h0.481c0.268,0,0.616,0.161,1.044,0.482c0.268-0.375,0.589-0.563,0.963-0.563
			c0.268,0.094,0.402,0.228,0.402,0.402h0.08c0.375-0.254,0.563-0.576,0.563-0.964l-2.57-6.987c-0.401-2.235-0.669-3.52-0.803-3.855
			c-0.147,0-0.281-0.455-0.401-1.365c-0.188,0-0.375-0.696-0.562-2.088L291.459,18.896z M286.882,28.213v0.401h0.321v-0.08
			c-0.081-0.214-0.161-0.321-0.241-0.321H286.882z M293.066,20.182v0.08l0.161,0.321h0.241v-0.241l-0.161-0.161H293.066z
			 M294.351,26.767v0.081l0.161,0.16h0.241v-0.16h0.08l-0.08-0.241h-0.241L294.351,26.767z M299.973,46.524v0.081l0.16,0.161
			c0.094,0,0.201-0.188,0.322-0.563l-0.08-0.241h-0.081C300.08,46.042,299.973,46.229,299.973,46.524z M301.017,54.154l0.161,0.161
			h0.401l0.161-0.161v-0.081l-0.161-0.161h-0.321L301.017,54.154z M301.579,54.957v0.241l0.241,0.241l0.24-0.161
			c-0.107-0.321-0.214-0.481-0.32-0.481L301.579,54.957z"/>
		<path fill="#FFFFFF" d="M332.82,6.528l0.401,0.562c0.027-0.214,0.107-0.321,0.241-0.321h0.161c0.388,0,0.683,0.321,0.883,0.964
			h0.161l3.533-0.161h2.008c2.463,0,3.694,0.214,3.694,0.643l0.402-0.08c0.146,0,0.254,0.214,0.321,0.642
			c0.428,0.321,0.642,0.616,0.642,0.884v0.241c0,0.335-0.268,0.576-0.803,0.723c-0.683,0.75-1.164,1.124-1.445,1.124l-1.285-0.161
			l-6.666,0.161v0.241c0,0.87,0.188,3.172,0.563,6.907c0.749,10.575,1.284,19.516,1.605,26.824v0.161
			c-0.026,0.75-0.294,1.125-0.803,1.125v0.08c0.321,0.041,0.481,0.201,0.481,0.482c0,3.815-2.463,7.402-7.389,10.762
			c-0.83,0.482-1.579,0.723-2.248,0.723h-0.081l-6.585-0.241c-1.299-0.709-3.065-2.235-5.301-4.578
			c-0.683-0.843-1.888-2.824-3.614-5.943c-0.696-2.316-1.044-3.868-1.044-4.658v-0.081c0-0.736,0.16-1.245,0.481-1.526
			c-0.214,0-0.321-0.053-0.321-0.161v-0.08c0-0.535,0.349-1.098,1.045-1.687h0.16l0.241,0.161h0.08
			c0.455-0.589,0.776-0.884,0.964-0.884l0.481,0.081h0.161l0.08-0.081h0.08l-0.08-0.08v-0.241c0.388-0.481,1.004-0.723,1.848-0.723
			c0.683,0,1.084,0.455,1.204,1.365l0.161,1.365c0,0.214-0.375,0.696-1.125,1.446c-0.964,1.513-1.445,3.092-1.445,4.738
			c0,0.884,0.429,2.088,1.285,3.614l0.563,1.125c1.338,1.405,2.677,2.423,4.016,3.052c0.589,0.335,0.883,0.763,0.883,1.285
			l0.08,0.08h0.081v-0.161l-0.081-0.401l0.241-0.081l3.052,0.241h0.161c2.235,0,4.43-1.231,6.585-3.694
			c0.321-0.522,0.884-1.941,1.687-4.257c1.018-1.271,1.526-5.93,1.526-13.974l-0.803-10.12c0-4.417-0.269-8.031-0.804-10.842
			l-0.16-1.365c-7.764,0-11.646-0.214-11.646-0.643l-0.161-0.481c0.107-0.334,0.241-0.522,0.402-0.563l0.08,0.081l-0.08,0.562v0.161
			l0.16,0.161c0.107,0,0.241-0.321,0.401-0.964l0.081-0.08h0.08l0.964,0.161c0.374-0.067,0.562-0.254,0.562-0.563V9.5
			c-0.589-0.723-0.883-1.205-0.883-1.446c0.12-0.321,0.228-0.482,0.321-0.482h0.16c0.161,0,0.241,0.214,0.241,0.643h0.08
			c0-0.656,0.91-1.03,2.73-1.125l5.622,0.402c0.201,0,0.415-0.321,0.643-0.964H332.82z M313.063,40.822
			c0,0.429-0.054,0.643-0.16,0.643h-0.081l-0.401-0.081l-0.16,0.643l0.16,2.57c0,0.428-0.16,0.642-0.481,0.642l-0.08,0.241
			c0,0.375,0.133,0.562,0.401,0.562c0.146,0.522,0.281,0.79,0.401,0.803l0.241-0.241v-0.241l-0.563-0.643l0.401-0.723l0.08-2.409
			c0.482-0.201,0.724-0.469,0.724-0.803v-0.081C313.546,41.424,313.385,41.13,313.063,40.822z M315.955,39.055v0.241
			c0.241-0.107,0.374-0.214,0.401-0.321v-0.08h-0.241L315.955,39.055z M321.898,56.965c0.066,0.214,0.308,0.321,0.723,0.321h0.08
			v-0.08c-0.054-0.161-0.214-0.241-0.481-0.241H321.898z M325.352,8.456l-0.08,0.401l0.08,0.08h0.08V8.456H325.352z M328.323,9.339
			c0.094,0.214,0.281,0.321,0.562,0.321h0.081C328.966,9.527,328.751,9.419,328.323,9.339z M333.383,52.628l0.241,0.321h0.24
			c0.482,0,0.724-0.563,0.724-1.687c0-0.161,0.187-0.241,0.562-0.241v-0.08c-0.16,0-0.241-0.054-0.241-0.161V50.62
			c0.536-1.312,0.804-2.062,0.804-2.249V48.05c-0.228,0.054-0.87,1.419-1.928,4.096L333.383,52.628z M335.311,9.821v0.161
			l0.803,0.08h0.964c2.57,0,4.417-0.08,5.542-0.241V9.58l-0.884-0.241L335.311,9.821z M335.712,46.765h0.08
			c0.281-0.134,0.495-0.348,0.643-0.643v-0.081h-0.08C335.926,46.39,335.712,46.631,335.712,46.765z M336.515,43.633v0.161h0.161
			l0.321-0.321h-0.321L336.515,43.633z M336.756,41.464l-0.16,0.401c0.093,0.429,0.2,0.643,0.32,0.643v-0.883L336.756,41.464z
			 M342.859,10.625v0.08h0.08c0.91-0.188,1.366-0.375,1.366-0.562h-0.081C344.011,10.143,343.556,10.303,342.859,10.625z"/>
		<path fill="#FFFFFF" d="M142.239,73.616h2.65c3.266,0,5.167,0.349,5.702,1.044c1.178,0.549,1.874,1.165,2.088,1.847
			c0,0.214,0.107,0.321,0.321,0.321c0.669,0.669,2.141,2.463,4.417,5.381c0.241,0.027,0.669,0.669,1.285,1.927
			c1.178,1.847,1.82,3.266,1.927,4.257c0.643,0.856,0.964,1.66,0.964,2.409c0.334,0,0.709,1.5,1.125,4.498v0.401
			c0,1.593-0.375,3.2-1.125,4.819c-0.201,0.134-0.442,0.669-0.723,1.606c-1.058,1.473-2.289,2.972-3.694,4.498
			c0,0.388-0.456,0.656-1.365,0.803l-4.016,1.445c-2.209,1.232-4.726,1.847-7.55,1.847h-0.481l-0.964-0.08l-0.081,1.205v3.212
			c0,3.052,0.268,5.06,0.803,6.023c0.107,0.214,0.161,0.509,0.161,0.883c-0.107,0.174-0.455,0.415-1.044,0.723v0.241
			c0,0.817,0.508,1.272,1.526,1.365c0.79,0,1.325,0.669,1.606,2.008c0,0.482-1.098,0.723-3.293,0.723
			c-1.874,0.375-3.105,0.562-3.694,0.562c-2.142-0.241-3.212-0.643-3.212-1.205l-0.241-0.723c0.067-0.401,0.174-0.615,0.321-0.642
			h0.081c0.093,0,0.281,0.294,0.562,0.883l0.482,0.08c0.91,0,1.767-0.508,2.57-1.526c0.147,0,0.281-7.389,0.402-22.166V83.655
			c0-3.373,0.161-5.06,0.481-5.06c0-0.388-0.188-0.629-0.562-0.723c-1.231,0.08-2.677,0.857-4.337,2.329
			c-0.951,0.937-1.7,1.82-2.249,2.65h-0.161c-0.643-0.147-0.964-0.442-0.964-0.884c0.107-0.294,0.401-0.723,0.883-1.285v-0.241
			l-0.241-0.803c0.522-0.669,1.298-1.338,2.329-2.008h0.241l0.241,0.161v-0.401l-0.161-0.161h-0.241
			c-0.428,0.375-0.723,0.562-0.883,0.562c-0.536-0.508-0.803-0.883-0.803-1.124l1.205-0.803c-0.027-0.161-0.241-0.241-0.642-0.241
			c-0.683,0.482-1.272,0.723-1.767,0.723l-0.081-0.081v-0.08c0-0.147,0.321-0.334,0.964-0.563c0-0.308,0.937-0.683,2.811-1.124
			l0.321,0.08c0-0.589,1.097-0.883,3.293-0.883L142.239,73.616z M134.931,75.463c0.08,0.214,0.161,0.321,0.241,0.321l0.241-0.08
			v-0.241l-0.161-0.161h-0.081L134.931,75.463z M139.348,74.258v0.161c0.268,0,0.535-0.133,0.803-0.401v-0.081
			C139.615,74.004,139.348,74.111,139.348,74.258z M140.231,75.865c0,0.161,0.294,0.241,0.884,0.241
			c0.455,0,0.776-0.161,0.963-0.482l-0.08-0.08L140.231,75.865z M140.713,81.888c0,0.161,0.107,0.241,0.321,0.241v0.081l0.241-0.081
			v-0.321l-0.402-0.08L140.713,81.888z M141.837,77.551c0.91,0.897,1.365,1.459,1.365,1.687l-0.08,0.562
			c0.161,0,0.268,0.214,0.321,0.643l-0.241,1.606l0.482,3.614l-0.321,0.161c0.268,0.375,0.402,0.938,0.402,1.687l-0.402,2.008
			l-0.401,15.099v0.803l-0.081,1.124l0.241,0.321h0.562c1.125,0,2.249-0.321,3.373-0.964l0.402-0.08l0.241,0.321
			c0,0.388-0.589,0.897-1.767,1.526l-0.161,0.241l0.08,0.081h0.241c0.495,0,0.844-0.294,1.044-0.883c0.91,0,1.365-0.241,1.365-0.723
			h0.964c0-0.508,0.883-1.097,2.65-1.767c0-0.522,0.616-1.191,1.848-2.008c2.57-2.41,3.855-3.936,3.855-4.578
			c0.428-0.763,0.642-1.593,0.642-2.49l-0.241-0.16h-0.161l0.08,0.401c-0.214,0-0.481,0.536-0.803,1.606
			c-0.429,0.268-0.643,0.642-0.643,1.124c-1.513,1.928-2.477,2.892-2.891,2.892c-0.228,0.763-0.522,1.218-0.884,1.365
			c-1.298,1.071-2.075,1.606-2.329,1.606h-0.161l-0.08-0.08c0,0.683-0.83,1.245-2.49,1.687h-0.08l-0.241-0.241
			c0.04-0.161,1.218-1.205,3.534-3.132c3.561-3.574,5.568-6.01,6.023-7.309c0.428-0.683,0.643-2.021,0.643-4.016v-0.321
			c0-1.927-1.874-5.006-5.622-9.236c-0.12-0.361-0.495-0.709-1.124-1.044v-0.241l0.08-0.08v-0.081c-0.683,0-1.941-0.83-3.774-2.49
			c-1.058-0.803-1.834-1.205-2.329-1.205c-0.482,0-1.526,0.268-3.132,0.803V77.551z M142.721,109.837l0.161,0.161h0.161
			c0.094,0,0.174-0.134,0.241-0.402h0.161l0.241,0.081c-0.054-0.161-0.214-0.241-0.482-0.241
			C142.988,109.502,142.828,109.636,142.721,109.837z M143.604,108.552v0.081h0.481v-0.081H143.604z M143.926,107.588
			c0,0.174,0.268,0.281,0.803,0.321v-0.161l-0.723-0.161H143.926z M144.488,125.658l0.08,0.402h0.161l0.241-0.803h-0.081
			L144.488,125.658z M146.817,76.668l0.161,0.161h0.321l-0.161-0.161H146.817z M147.861,76.748v0.241
			c0.214,0.027,0.321,0.107,0.321,0.241v0.401h0.08l0.321-0.08c0.321,0.107,0.482,0.214,0.482,0.321l-0.08,0.08v0.081h0.08
			l0.482-0.081l0.081,0.081v0.08l-0.081,0.081v0.08c0.803,0.295,1.205,0.589,1.205,0.884l-0.08,0.08h-0.081l-0.241-0.08l0.08,0.08
			l0.241,0.08v0.081l0.482-0.161l0.08,0.08l-0.08,0.402v0.08c0.629,0,1.512,0.803,2.65,2.41v0.482l0.401-0.081
			c0.883,0.643,1.526,1.473,1.927,2.49l-0.241,0.081v0.161c0.589,0.107,0.883,0.375,0.883,0.803v0.161
			c0.268,0,0.402,0.241,0.402,0.723c0.107,0.589,0.321,0.883,0.643,0.883c0.321-0.121,0.481-0.228,0.481-0.321V87.51
			c-0.241-0.227-0.535-0.763-0.883-1.606l-2.088-3.534c-2.878-3.012-4.618-4.538-5.221-4.578c0-0.294-0.696-0.642-2.088-1.044
			H147.861z M148.664,107.347l0.08,0.401h0.563c1.512,0,3.814-1.633,6.907-4.899c0.482-0.508,0.723-0.856,0.723-1.044h-0.08
			c-0.161,0-1.071,0.723-2.731,2.168l-2.409,1.847c-0.174,0-0.522,0.241-1.044,0.723l-2.008,0.723V107.347z M148.905,75.062v0.081
			h0.161v0.08l0.321-0.08v-0.081H148.905z M149.387,79.077l0.081,0.081h0.08l0.321-0.321l-0.08-0.081h-0.161L149.387,79.077z
			 M149.949,75.463v0.081l0.241,0.241l0.241-0.241v-0.081l-0.161-0.161h-0.161L149.949,75.463z M156.213,101.404l0.321-0.402v-0.161
			C156.32,100.922,156.213,101.11,156.213,101.404z M161.112,94.578l-0.08,0.401v1.446c-1.044,3.186-2.088,5.515-3.132,6.987
			l-0.883,1.606h0.161c1.713-2.128,2.837-4.029,3.373-5.702c0.482-0.977,0.803-2.182,0.964-3.614
			c-0.067-0.75-0.174-1.124-0.321-1.124H161.112z M157.418,86.868h0.241v0.562h-0.241V86.868z M161.755,93.052l-0.161,0.241v0.161
			l0.241,0.241l0.08-0.08v-0.401L161.755,93.052z"/>
		<path fill="#FFFFFF" d="M172.517,74.178h3.775c0.964,0,1.526,0.134,1.687,0.401l0.562-0.08c0.843,0.428,4.217,0.643,10.12,0.643
			l0.08,0.241c-0.228,1.178-0.469,1.767-0.723,1.767h-0.241l-0.643-0.563h-0.161v0.161h0.321v0.241l-0.321,0.481v0.321h0.08
			c0.041-0.321,0.121-0.482,0.241-0.482h0.161l0.241,0.321c0,0.415-0.401,0.817-1.205,1.205h-0.081l-0.321-0.081
			c-0.482,0.429-1.419,0.643-2.811,0.643c-1.821,0.067-2.731,0.201-2.731,0.401c-0.268,0.723-0.535,2.945-0.803,6.666
			c-0.081,0-0.161,0.402-0.241,1.205l0.241,0.964c-0.081,3.855-0.241,5.783-0.482,5.783h-0.161c0.321,0.361,0.482,0.656,0.482,0.883
			c-0.161,1.018-0.268,4.176-0.321,9.477c0,2.449,0.401,6.679,1.205,12.689c0.147,0.441,0.308,2.289,0.482,5.542
			c1.258,0.482,2.195,0.723,2.811,0.723c0.709,0,1.78-0.188,3.212-0.562h0.241c0.856,0.134,1.285,0.401,1.285,0.803
			c0,0.362-0.964,0.79-2.891,1.285c0.08,0.107,0.589,0.348,1.526,0.723l0.08,0.081v0.08c0,0.803-0.643,1.205-1.927,1.205
			c-1.084,0.107-2.61,0.161-4.578,0.161h-0.562l-0.321,0.08l-0.321-0.08h-1.687c-1.352,0-3.387-0.643-6.104-1.928
			c-4.605-0.616-6.907-1.178-6.907-1.687v-0.081c0.254-0.375,0.763-0.562,1.526-0.562h0.081l2.088,0.161l1.767-0.401h0.08
			c0.174,0,0.362,0.08,0.563,0.241c0-0.375,0.482-0.562,1.445-0.562l0.161,0.241l-0.161,1.125v0.08c0.161,0,0.241,0.054,0.241,0.161
			v0.081l-0.081,0.08v0.081h0.081c0.442-0.214,0.87-0.321,1.285-0.321h0.723l2.168-0.161l0.08,0.482l1.044-0.241l0.08,0.081h0.081
			c0.214-0.081,0.321-0.161,0.321-0.241c-0.174-0.321-0.977-0.508-2.409-0.562h-0.803l-2.49,0.241v-0.241
			c0.362-0.75,1.111-1.125,2.249-1.125c1.338-0.174,2.008-0.361,2.008-0.562c-0.536-24.897-0.883-38.791-1.044-41.682
			c-0.174-0.803-0.335-1.205-0.482-1.205h-0.081c-4.002,0-7.75-0.509-11.244-1.526c-2.677-0.227-4.016-0.629-4.016-1.205
			c0-0.375,0.455-0.562,1.365-0.562l3.293,0.08h0.08v-0.08c-0.589-0.201-0.883-0.495-0.883-0.883c0-0.174,0.348-0.281,1.044-0.321
			h0.643c0.736,0,1.245,0.161,1.526,0.482c0.228-0.482,1.165-0.723,2.811-0.723L172.517,74.178z M170.669,124.293v0.081
			c0.094,0.214,0.281,0.321,0.563,0.321v-0.081C171.232,124.521,171.044,124.414,170.669,124.293z M171.473,123.169v0.161
			l0.241,0.241h0.08v-0.241l-0.161-0.161H171.473z M172.517,77.391v0.08c0.643,0.255,0.964,0.522,0.964,0.803h0.161v-0.161
			c-0.188-0.321-0.536-0.562-1.044-0.723H172.517z M176.292,122.928h0.161c0.214-0.08,0.321-0.161,0.321-0.241v-0.081h-0.081
			L176.292,122.928z M178.861,96.826v0.161h0.161l0.241-0.241v-0.081h-0.241L178.861,96.826z M179.022,90.642v0.723l0.081,0.401
			c0.107,0,0.187-0.214,0.241-0.643l-0.161-0.643L179.022,90.642z M182.797,77.792v0.161c0.856,0.067,1.285,0.254,1.285,0.563v0.161
			h0.08c0.482-0.254,0.723-0.522,0.723-0.803v-0.081l-0.562-0.08h-0.964L182.797,77.792z"/>
		<path fill="#FFFFFF" d="M199.602,83.695c0.91-0.308,1.406-0.361,1.486-0.161l0.02,0.06c0.094,0.361-0.054,0.623-0.441,0.783
			l0.261,0.201l0.081,0.161c-0.188,0.067-0.221,0.241-0.101,0.522c-0.294,0.683-0.516,1.058-0.663,1.125
			c-0.281-0.228-0.449-0.328-0.502-0.301l-0.1,0.04l0.241,0.442c0.08,0.214-0.964,0.991-3.132,2.329
			c-1.593,0.87-2.965,1.533-4.116,1.988l-0.321,0.12c-0.71,0.121-2.275,0.529-4.698,1.225c-0.843,0.067-1.292,0.02-1.345-0.141
			l-0.081-0.221c-0.174-0.429,1.52-1.459,5.08-3.092c-0.067-0.174,0.603-0.696,2.008-1.566c0.576-0.509,1.251-0.917,2.028-1.225
			l0.803-0.321l-0.08-0.02l-0.02-0.06c-0.067-0.188,0.549-0.549,1.847-1.084c0.683-0.227,1.071-0.214,1.165,0.041l0.06-0.041
			l-0.161-0.241l-0.02-0.04L199,83.996l0.161-0.06L199.602,83.695z M195.165,74.54c2.516,0,3.774,0.562,3.774,1.687
			c0,0.188-0.401,0.562-1.205,1.125l-0.08,0.08v0.081l0.08,2.249c-0.321,3.775-0.482,7.951-0.482,12.529
			c0,6.572,0.509,14.724,1.526,24.455c0,3.534,0.428,5.301,1.285,5.301c0,0.174,5.836,0.415,17.508,0.723
			c0,0.067,0.669,0.121,2.008,0.161c1.767,0,2.65-0.348,2.65-1.044c0.308-0.228,0.548-1.539,0.723-3.936
			c0.134-0.268,0.294-0.401,0.482-0.401c0.428,0.094,0.643,0.201,0.643,0.321l-0.321,0.401h0.08l1.285-0.643h0.161
			c0.214,0.067,0.321,0.308,0.321,0.723v0.643c0,0.91-0.188,1.981-0.563,3.212c-0.549,3.159-1.271,4.738-2.168,4.738h-0.161
			c-0.12,0-0.201-0.187-0.241-0.562l0.08-0.803l-0.08-0.241h-0.321c-0.321,0-0.669,0.241-1.044,0.723h-0.081l-0.562-0.321
			l-0.321,0.08c0-0.227-1.205-0.495-3.614-0.803c-0.241-0.214-0.481-0.321-0.723-0.321c-0.04,0.268-0.121,0.401-0.241,0.401h-0.081
			c-0.308-0.321-1.298-0.482-2.972-0.482h-0.642l-2.49,0.321l-6.184-0.562c-2.503,0-4.056,0.616-4.658,1.847v0.803
			c0,0.094-0.134,0.174-0.401,0.241c-0.375,0-0.938-0.803-1.687-2.409l-3.292,1.285c-0.482,0-0.884,0.429-1.205,1.285l-0.241,0.161
			h-0.161c-0.723,0-1.151-0.883-1.285-2.65l-0.08-0.562c0.093-0.91,0.228-1.365,0.401-1.365h0.402v-0.563
			c0-0.482,0.214-0.723,0.643-0.723c0.308,0,0.843,0.562,1.606,1.687h0.321c1.178,0,2.061-0.964,2.65-2.891v-0.081
			c0-1.03-0.401-5.555-1.205-13.573c-0.201-2.931-0.389-7.871-0.563-14.817l-0.562-12.85c-0.107-0.268-0.455-0.669-1.044-1.205
			c-0.161-0.201-0.241-0.388-0.241-0.563V77.19c0-0.174,0.402-0.334,1.205-0.482c0-0.134-0.429-0.482-1.285-1.044l-0.161-0.241
			v-0.08C192.755,74.808,193.692,74.54,195.165,74.54z M191.631,79.88l-0.081,0.321l0.081,0.08h0.08V79.88H191.631z
			 M192.033,123.008v0.321h0.081l0.321-0.241l-0.161-0.161L192.033,123.008z"/>
		<path fill="#FFFFFF" d="M254.777,73.054h0.161c0.629,0,1.62,0.964,2.972,2.891c0.776,0.442,1.472,1.54,2.088,3.293
			c0.241,0.094,0.428,0.254,0.563,0.482v0.482c-0.214,0.696-0.429,1.044-0.643,1.044h-0.081c-0.174,0-1.165-0.616-2.971-1.847
			h-0.321l-6.505,7.228c-3.212,3.641-4.819,5.515-4.819,5.622v0.321c0,0.843,0.669,2.102,2.008,3.774
			c1.071,1.981,1.606,3.266,1.606,3.855l-0.241,0.643l0.081-0.08h0.321c0.147,0.147,1.004,2.102,2.57,5.863
			c1.285,2.824,1.927,4.484,1.927,4.979l0.241-0.16h0.161c0.321,0.214,0.482,0.428,0.482,0.642
			c-0.268,0.067-0.402,0.147-0.402,0.241v0.241l0.081-0.08h0.321c0.201,0.04,0.95,1.539,2.249,4.498l2.811,6.264
			c0.602,1.606,1.031,2.409,1.285,2.409l1.365-0.241c0.321,0.321,0.482,0.803,0.482,1.446c-0.214,0.616-1.339,1.66-3.374,3.132
			c-2.075,1.071-3.333,1.606-3.774,1.606h-0.081l-0.241-0.241c0-0.522,0.268-1.004,0.803-1.446c0.375-0.723,0.562-1.285,0.562-1.687
			c0-0.429-0.589-1.606-1.767-3.534c-0.054-1.205-0.696-2.677-1.928-4.417c-1.138-2.061-2.342-4.979-3.614-8.754
			c-0.75-3.467-1.633-6.305-2.65-8.513c-0.268-0.442-0.777-1.646-1.526-3.614c-1.285-2.731-2.088-4.123-2.409-4.176
			c-0.776,0.522-1.633,1.459-2.57,2.811c0,0.121-0.991,1.218-2.972,3.293c-0.643,0.843-1.713,2.075-3.212,3.694
			c-0.482,0.509-0.723,3.829-0.723,9.959v0.321l-0.08,1.365l0.08,1.526c-0.067,4.203,0.061,6.305,0.382,6.305
			c1.258,0.281,2.249,0.896,2.971,1.847l0.081,0.401v0.161c0,0.482-2.49,1.017-7.469,1.606c-1.82-0.201-2.73-0.416-2.73-0.643
			c1.071-0.683,1.606-1.191,1.606-1.526c-0.803-0.362-1.205-0.79-1.205-1.285l0.161-0.161h0.161
			c0.214,0.107,0.321,0.268,0.321,0.482h0.081c0-0.75,0.723-1.125,2.168-1.125c-0.321-1.847-0.449-3.44-0.382-4.778v-0.884
			c0-9.624,0.428-19.261,1.285-28.913c0-2.315,0.161-4.377,0.482-6.184c-0.107-0.026-0.214-0.16-0.321-0.401l0.081-0.562
			c-0.536-1.539-0.803-2.771-0.803-3.694c0-0.79-0.375-1.298-1.125-1.526c-0.308,0-0.683-0.321-1.125-0.963v-0.081h0.402
			c0.522-0.643,1.967-1.178,4.337-1.606c2.034-0.094,3.052-0.362,3.052-0.803h0.482c0.428,0.241,0.643,0.536,0.643,0.883v0.241
			c0,0.428-0.349,0.723-1.044,0.883c-0.963,0.857-1.445,3.32-1.445,7.389c-0.214,1.754-0.348,3.547-0.402,5.381h-0.161l-0.241-0.964
			c-0.429,0-0.643,3.695-0.643,11.083l-0.08,2.008l0.08,0.883h0.241c0.201,0,0.334-2.382,0.402-7.148h0.161l0.161,3.052v3.454
			c1.767-1.793,2.65-2.891,2.65-3.293c0.375,0,4.123-3.748,11.244-11.244c2.462-2.677,3.908-4.444,4.337-5.3
			c1.82-1.794,2.73-2.892,2.73-3.293c-0.268-1.298-0.401-2.423-0.401-3.373C254.215,73.763,254.402,73.282,254.777,73.054z
			 M231.004,79.238v0.161l0.161,0.161h0.08c0.268-0.134,0.402-0.294,0.402-0.482l-0.081-0.08h-0.321L231.004,79.238z
			 M232.048,110.72l0.402,0.321l0.241-0.08v-0.321l-0.401-0.081h-0.081L232.048,110.72z M232.43,127.144v0.321h0.081
			c0.214-0.08,0.321-0.161,0.321-0.241l-0.161-0.161L232.43,127.144z M232.611,106.625l-0.081,0.401v0.723
			c0.147,0,0.254-0.268,0.321-0.803L232.611,106.625z M233.655,90.321h0.161v1.526h-0.161l-0.081-0.562v-0.401L233.655,90.321z
			 M235.743,74.74v0.241l0.161,0.161h0.081l0.241-0.161l-0.241-0.321L235.743,74.74z M245.541,95.3l-0.081,0.081v0.08h0.482v-0.08
			L245.541,95.3z M245.942,96.344v0.161l0.241,0.241h0.241l0.241-0.321c-0.201-0.161-0.389-0.241-0.563-0.241L245.942,96.344z
			 M246.746,97.389v0.321c0,0.482,0.375,1.339,1.125,2.57h0.241l-0.321-1.125l0.081-0.321
			C247.589,98.767,247.214,98.285,246.746,97.389z M248.753,101.886v0.241l0.321,0.803h0.08v-0.241
			c-0.067-0.535-0.174-0.803-0.321-0.803H248.753z M249.717,103.412l-0.081,0.401l0.081,0.08h0.08v-0.481H249.717z M249.637,109.998
			l0.643,1.606c0.428,1.178,0.803,2.41,1.125,3.695h0.241l0.161-0.161v-0.081c0-0.736-0.589-2.557-1.767-5.461v-0.08h-0.161
			C249.771,109.516,249.69,109.676,249.637,109.998z M255.018,115.459v0.481l0.161,0.161h0.161v-0.08l-0.161-0.562H255.018z
			 M255.018,122.446v0.161c0,0.281,0.161,0.576,0.482,0.884h0.081v-0.161c-0.134-0.589-0.294-0.884-0.482-0.884H255.018z
			 M256.062,125.177v0.08l0.241,0.241l0.241-0.241v-0.08l-0.161-0.161h-0.161L256.062,125.177z"/>
		<path fill="#FFFFFF" d="M281.18,75.704c2.142,0.134,3.212,0.375,3.212,0.723v0.241c0,0.602-0.321,1.004-0.964,1.205
			c-0.535,0.321-0.803,0.669-0.803,1.044l1.526,8.593c0,0.924,0.241,1.941,0.723,3.052l1.365,3.534v0.08h-0.08l-0.563-0.08
			c0.803,0.669,1.205,1.606,1.205,2.811c0.281,0.441,0.549,1.352,0.803,2.73c0.214,0.469,0.803,2.771,1.767,6.907l1.767,6.184
			c0.669,1.955,1.499,4.096,2.49,6.425c1.017,3.306,1.66,4.993,1.928,5.06c0.107,0.188,0.535,0.428,1.285,0.723l0.161,0.241
			c0,0.174-0.481,0.87-1.445,2.088c-0.214,0.214-0.509,0.321-0.884,0.321h-0.08l-1.446-0.241l-0.482,0.08
			c-0.896-0.375-2.342-0.669-4.336-0.883c-0.375-0.228-0.563-0.388-0.563-0.482c0-0.361,0.375-0.683,1.125-0.964l0.08-0.401v-0.241
			c-0.375-1.071-0.562-2.008-0.562-2.811v-0.803c0-0.321,0.107-0.482,0.321-0.482c0.268,0,0.482,0.455,0.643,1.365l0.08,0.08h0.241
			c0.093,0,0.174-0.133,0.241-0.401c0-0.964-0.428-1.446-1.285-1.446l-0.08-0.08c-0.161,0-0.241-0.053-0.241-0.161l0.241-1.526
			c-0.603-1.191-1.352-3.226-2.249-6.104c-0.803-2.784-1.205-4.47-1.205-5.06v-0.161l0.241-0.723c-0.294,0-0.509-0.161-0.643-0.482
			c-0.174-0.321-0.469-0.482-0.883-0.482h-0.643c-1.606,0-4.23,0.509-7.871,1.526l-1.767,0.161c0,0.429-0.268,1.339-0.803,2.73
			l-1.044,3.775c-0.268,1.446-1.071,4.685-2.409,9.718c0,0.268,0.508,0.402,1.526,0.402l0.883-0.081
			c0.482,0.027,0.723,0.268,0.723,0.723l0.241-0.321l0.08-0.08h0.161l0.482,0.401h0.081l0.401-0.08l0.081,0.08v0.321
			c0,0.442-2.972,1.031-8.915,1.767c-1.713-0.147-2.57-0.334-2.57-0.563v-0.241c0-0.75,0.428-1.125,1.285-1.125
			c1.231-0.053,1.847-0.214,1.847-0.482v-1.205l0.161-0.161c0.161,0,0.241,0.107,0.241,0.321h0.081l-0.161-1.044
			c0-0.134,0.321-0.535,0.963-1.205l-0.241-0.402v-0.321c0.99-5.514,1.687-8.272,2.088-8.272c1.125-2.677,2.008-5.434,2.65-8.272
			c0.643-2.289,1.74-6.867,3.293-13.734l3.293-10.039l0.161-0.883c-0.054-0.321-0.161-0.535-0.321-0.643
			c-1.312,0.589-2.088,0.884-2.329,0.884l-0.161-0.241v-0.08l0.161-0.482l-0.402-0.563V77.31c0-0.187,0.856-0.535,2.57-1.044
			l0.321-0.161l0.642,0.081C279.064,75.958,279.921,75.798,281.18,75.704z M268.41,113.13v0.321h0.08l0.321-0.321v-0.241h-0.161
			L268.41,113.13z M273.71,104.697l0.241,0.241h0.08l0.402-0.081v-0.161c0-0.08-0.107-0.161-0.321-0.241
			C273.844,104.523,273.71,104.604,273.71,104.697z M279.413,87.43c-0.482,0.937-1.365,3.561-2.65,7.871
			c-0.174,0-0.334,0.643-0.481,1.928c-0.268,0.188-0.723,1.606-1.366,4.256l-0.08,0.08l-0.241,0.321
			c0,0.121,0.241,0.308,0.723,0.563v0.161c0,0.161-0.241,0.268-0.723,0.321l-0.08,0.08v0.081c0,0.161,0.294,0.241,0.883,0.241
			c0.723,0,2.41-0.241,5.06-0.723h0.481c0.268,0,0.616,0.161,1.044,0.482c0.268-0.375,0.589-0.563,0.963-0.563
			c0.268,0.094,0.402,0.228,0.402,0.402h0.08c0.375-0.254,0.563-0.576,0.563-0.964l-2.57-6.987c-0.401-2.235-0.669-3.52-0.803-3.855
			c-0.147,0-0.281-0.455-0.401-1.365c-0.188,0-0.375-0.696-0.562-2.088L279.413,87.43z M274.835,96.746v0.401h0.321v-0.08
			c-0.081-0.214-0.161-0.321-0.241-0.321H274.835z M281.019,88.715v0.08l0.161,0.321h0.241v-0.241l-0.161-0.161H281.019z
			 M282.304,95.3v0.081l0.161,0.16h0.241v-0.16h0.08l-0.08-0.241h-0.241L282.304,95.3z M287.926,115.057v0.081l0.161,0.161
			c0.094,0,0.201-0.188,0.321-0.563l-0.08-0.241h-0.081C288.033,114.575,287.926,114.763,287.926,115.057z M288.97,122.687
			l0.161,0.161h0.402l0.161-0.161v-0.081l-0.161-0.161h-0.321L288.97,122.687z M289.532,123.49v0.241l0.241,0.241l0.241-0.161
			c-0.107-0.321-0.214-0.481-0.321-0.481L289.532,123.49z"/>
		<path fill="#FFFFFF" d="M325.03,74.74l0.321,0.241l-0.723,0.562v0.08h0.08c0.709-0.481,1.218-0.723,1.526-0.723h0.481
			c1.098,0,2.355,0.348,3.774,1.044c0.268,0,0.401,0.134,0.401,0.402l0.081,0.241l0.401-0.08c0.603,0,1.834,1.124,3.694,3.373
			c0.174,0.388,0.441,0.683,0.803,0.883c0.268,1.125,0.402,2.517,0.402,4.176v3.373c0,2.168-0.804,5.248-2.41,9.236
			c-0.709,2.838-1.298,4.257-1.767,4.257c0,0.522-0.964,1.78-2.892,3.774c-0.589,0.683-0.883,1.138-0.883,1.366
			c0.268,0,1.07,1.365,2.409,4.096c2.209,3.788,4.002,6.492,5.381,8.112c2.302,2.342,3.453,3.601,3.453,3.774
			c0.978,1.553,2.289,2.329,3.936,2.329c0.696,0.107,1.044,0.268,1.044,0.482v0.08c0,0.616-0.455,1.205-1.365,1.767
			c-0.308-0.093-2.021-0.201-5.14-0.321c-0.536-0.228-0.804-0.522-0.804-0.883v-0.161c0.643-0.723,0.964-1.178,0.964-1.365
			c-0.08,0-0.16-0.107-0.24-0.321l0.08-0.241h-0.401c-0.55,0-1.646-1.178-3.293-3.534c-1.245-1.619-2.075-2.877-2.49-3.774
			c-0.2,0-0.575-0.589-1.124-1.767l-5.06-6.746l-0.401-0.081c-0.281,0.456-0.897,0.884-1.848,1.285
			c-2.583,0.964-4.778,1.446-6.586,1.446c-0.268,0-0.401,0.455-0.401,1.365h-0.08l0.08,0.562v0.321l0.884,10.601
			c2.195,0.147,3.293,0.415,3.293,0.803l0.08,0.321c0,0.562-0.401,0.937-1.205,1.125c-0.374,0.803-1.392,1.205-3.052,1.205
			l-3.774,0.081h-1.928c-0.964,0-1.445-0.268-1.445-0.803c0-0.268,0.615-0.455,1.847-0.563c0.964-0.388,1.446-1.619,1.446-3.694
			c0-1.673,0.268-2.797,0.803-3.373l0.08-0.401c-0.91-8.928-1.365-18.592-1.365-28.993v-0.161c0-6.197,0.214-9.865,0.643-11.002
			v-0.803l-0.08-0.562c-2.315,0.562-4.189,1.205-5.622,1.927c-0.83,0.455-1.928,1.312-3.293,2.57c-0.2,0-0.655,0.509-1.364,1.526
			l-0.402,0.241h-0.321c-0.321,0-0.804-0.455-1.445-1.365l-0.481-0.161c-0.215,0-0.322,0.241-0.322,0.723
			c-0.16,0.536-0.32,0.803-0.481,0.803c-0.107-0.027-0.214-0.161-0.321-0.401c0.535-1.298,0.91-2.477,1.125-3.534
			c0.481-0.522,0.723-1.218,0.723-2.088l0.24-0.081c1.393,0.107,2.088,0.268,2.088,0.482c0.094,0.536,0.201,0.803,0.322,0.803
			c1.605-0.937,4.202-1.9,7.79-2.891c0.749-0.589,2.543-0.883,5.381-0.883h5.22L325.03,74.74z M313.225,123.49l-0.081,0.08v0.241
			l0.241,0.241v-0.402L313.225,123.49z M314.188,77.15v0.08c0.535,0,0.856,0.696,0.963,2.088l-0.16,0.643
			c0.214,0,0.321,0.589,0.321,1.767v1.365c0,0.496-0.107,0.843-0.321,1.044c0.281,0,0.575,0.776,0.884,2.329v0.081
			c-0.081,0.214-0.161,0.321-0.241,0.321l-0.401-0.321v0.161h-0.081c0,0.268,0.215,0.455,0.643,0.562l0.161,1.044
			c-0.215,6.171-0.321,10.802-0.321,13.894v1.365c0,3.267,0.241,4.899,0.723,4.899c1.78-0.254,3.012-0.656,3.694-1.205
			c0.388-0.321,0.763-0.482,1.124-0.482l0.563,0.562h0.08l0.081-0.562v-0.081h-0.402l-0.16-0.161
			c0.147-0.375,0.736-0.856,1.767-1.445c2.517-2.155,4.123-3.279,4.819-3.374c0-0.107,0.749-1.097,2.248-2.971
			c1.714-2.958,2.57-4.886,2.57-5.783c-0.375-4.604-0.75-6.907-1.124-6.907c-0.67-1.9-1.125-2.918-1.365-3.052l-1.687-2.329
			c-0.696-1.084-2.196-2.075-4.498-2.972c0-0.562-2.168-0.883-6.505-0.964h-1.205C314.911,76.748,314.188,76.882,314.188,77.15z
			 M314.59,116.664c-0.215,0.228-0.321,0.495-0.321,0.803v0.08h0.16c0.134,0,0.241-0.214,0.321-0.643v-0.08L314.59,116.664z
			 M314.67,85.743v0.08h0.241l0.16-0.161v-0.241C314.83,85.529,314.696,85.636,314.67,85.743z M314.67,90.401
			c0.12,0.321,0.228,0.482,0.321,0.482h0.08l-0.08-0.081v-0.241l0.16-0.161h0.402v-0.161l-0.563-0.161
			C314.817,90.134,314.71,90.241,314.67,90.401z M319.81,124.775c0.107,0.241,0.214,0.375,0.321,0.402l0.081-0.081v-0.161
			l-0.241-0.241l-0.08,0.08H319.81z M324.146,108.15v0.161l0.241,0.241h0.08v-0.241l-0.16-0.161H324.146z M325.11,107.508
			l0.161,0.161c0.374-0.134,0.562-0.241,0.562-0.321h-0.562L325.11,107.508z M325.753,75.945v0.161l1.928,0.321v-0.161
			c-0.321-0.428-0.83-0.643-1.526-0.643C325.914,75.731,325.779,75.838,325.753,75.945z M326.717,106.223v0.161h0.08
			c0.696-0.107,1.044-0.241,1.044-0.401h-0.481C326.971,105.982,326.757,106.062,326.717,106.223z M328.082,76.507v0.161
			c0.522,0,0.896,0.268,1.124,0.803l0.081-0.08h0.08c0.709,0,1.138,0.294,1.285,0.883c0.964,0,2.302,1.205,4.016,3.614h0.08
			c0.107,0,0.16-0.134,0.16-0.402h0.081c-0.71-1.485-2.235-2.958-4.578-4.417l-0.321-0.482l0.08-0.241l-1.445,0.161l-0.08-0.081
			v-0.161l0.08-0.401L328.082,76.507z M328.082,105.179v0.161c0,0.281,0.107,0.469,0.321,0.562v-0.321l-0.08-0.401H328.082z
			 M328.162,104.135v0.08l0.804,0.321v-0.08c-0.081-0.214-0.269-0.321-0.563-0.321H328.162z M330.893,80.282v0.081
			c0,0.334,0.429,0.923,1.285,1.767c0,0.174-0.08,0.361-0.24,0.563v0.08c0.508,0,0.99,0.803,1.445,2.41
			c0,0.375,0.054,0.562,0.16,0.562c0.268-0.294,0.402-0.616,0.402-0.964v-0.08c-0.349-0.228-0.696-1.138-1.045-2.731
			C332.646,81.366,331.978,80.804,330.893,80.282z M334.588,87.751l-0.161,0.321l0.241,0.161h0.08l0.16-0.161v-0.241L334.588,87.751
			z"/>
		<path fill="#FFFFFF" d="M346.474,73.796h0.241c0.254,0,0.575,0.134,0.964,0.402c0.803,0,1.204,0.294,1.204,0.883v0.241
			c0,0.161-0.107,0.241-0.321,0.241l-0.401-0.08c0.254,0.321,0.549,0.481,0.884,0.481c0.414,0,1.03-0.241,1.847-0.723h0.08
			c0.215,0.067,0.321,0.308,0.321,0.723v0.402h-0.16l-0.401-0.321h-0.321l-0.321,0.321c0.04,0.321,0.12,0.482,0.241,0.482
			c0.106-0.214,0.24-0.321,0.401-0.321l0.562,0.08c0-0.321,4.953-0.482,14.858-0.482c0.321,0,0.481,0.161,0.481,0.482
			c0.321-0.375,0.804-0.562,1.446-0.562c1.98,0,3.801,0.161,5.461,0.482v-0.241h0.321c0.521,0,0.95,0.349,1.285,1.044l0.08,0.08
			h0.08c0.415,0,0.656-0.268,0.723-0.803c0-0.294-0.134-0.856-0.401-1.687v-0.08c0-0.134,0.107-0.214,0.321-0.241
			c1.004,0.429,1.834,0.723,2.49,0.884c0.535,0.937,0.803,1.526,0.803,1.767l0.321,2.972c-0.174,0.75-0.522,1.125-1.044,1.125
			c-0.335,0-0.549-0.428-0.643-1.285h-0.563c-0.509,0-1.204,0.883-2.088,2.65c-0.201,0.214-0.067,0.208,0.401-0.02
			c-0.16,0-0.241,0.268-0.241,0.803c-1.284,1.566-2.275,2.744-2.971,3.534l-0.482,0.481v0.482L371.29,90
			c0,0.241-0.268,0.589-0.803,1.044c0,0.334-0.269,1.057-0.804,2.168c0,0.415-0.776,2.396-2.329,5.943
			c-0.615,1.74-1.445,3.802-2.489,6.184c-0.134,0.014-0.455,0.656-0.964,1.928c-0.401,0.415-0.937,1.485-1.606,3.212
			c-0.107,0-0.401,0.509-0.883,1.526c-0.321,0.228-0.776,1.084-1.365,2.57c-0.79,1.205-1.299,2.437-1.526,3.694l0.08,0.321
			c-0.481,0-0.776,0.241-0.883,0.723h0.08l0.241-0.081l0.08,0.081v0.08c-0.536,1.018-0.804,1.606-0.804,1.767v0.161l1.526,0.481
			l-0.16-0.481c0.24-0.107,0.589-0.161,1.044-0.161h0.321c1.914,0,3.198-0.134,3.854-0.402l9.236-0.08
			c2.811,0,5.916,0.107,9.316,0.321v-0.643c0-0.522,0.268-1.191,0.803-2.008v-0.402h-0.161c0,0.214-0.08,0.321-0.24,0.321
			l-0.08-0.08v-0.081c0-0.683,0.268-1.271,0.803-1.767h0.321c0.535,0.294,0.803,1.151,0.803,2.57v0.482
			c0,0.107-0.08,0.161-0.24,0.161l-0.081,0.08v0.081c0,0.121,0.134,0.201,0.402,0.241c0.214,0,0.32-0.161,0.32-0.481
			c0.134-0.214,0.375-0.321,0.724-0.321h0.24c0.295,0,0.482,0.107,0.563,0.321c0,0.308-0.107,0.629-0.321,0.963L386.71,121v0.08
			l-0.08,0.402c0.589,0,0.884,0.214,0.884,0.642c0.214,0,0.321,0.054,0.321,0.161v0.321c-0.161,0.348-0.536,0.696-1.125,1.044
			c-0.723,1.807-1.231,2.771-1.525,2.892l-0.241,0.08c-0.401,0-0.83-0.589-1.285-1.767l-10.922-0.803l-6.827-0.081l-11.886,0.321
			c-0.964,0-1.446,0.429-1.446,1.285c-0.254,0.027-0.521,0.536-0.803,1.526l-0.563,0.402l-0.803-0.081l-1.285,0.161l-0.241-0.241
			v-1.847c0-0.509-0.294-0.91-0.883-1.205c-0.482-0.696-0.724-1.205-0.724-1.526c0-0.174,0.589-0.334,1.768-0.482
			c0.228,0,0.388-0.99,0.481-2.971l0.241-0.161h0.08c0.389,0,0.763,0.401,1.124,1.205l0.724,0.161h0.481
			c0.75-0.75,1.124-1.58,1.124-2.49c0.83-1.807,1.393-2.878,1.687-3.212c0.188-0.75,0.375-1.125,0.563-1.125
			c0.79-2.075,2.235-5.233,4.337-9.477c2.717-4.952,4.725-8.888,6.023-11.806c0.361-0.334,0.683-1.057,0.964-2.168
			c0.388-0.402,0.896-1.312,1.526-2.731c2.998-4.35,4.497-6.94,4.497-7.77v-0.08l-0.401-0.161l-1.285,0.161l-0.241-0.321
			l-1.285,0.161l-4.497-0.081l-1.205,0.161h-1.687l-0.321,0.081l-0.321-0.081h-1.284c-0.643,0-1.259-0.08-1.848-0.241
			c0,0.147-2.142,0.415-6.425,0.803c-1.219-0.053-2.289-0.187-3.213-0.401l-0.24,0.161l0.481,2.088h-0.08
			c-0.429-0.428-0.723-0.642-0.884-0.642v0.08l0.321,0.402v0.241c-0.361,1.446-0.763,2.168-1.205,2.168
			c-0.509,0-1.178-1.446-2.008-4.337l-0.24-2.088c0.066-1.07,0.281-1.606,0.643-1.606l0.803,0.482l0.08-0.241l-0.321-2.49
			L346.474,73.796z M348,122.848v0.161l0.16,0.161h0.08l0.161-0.161v-0.161l-0.161-0.161h-0.08L348,122.848z M348.481,77.893
			l0.401,0.08h0.161l0.562-0.08v-0.241l-0.481-0.081C348.695,77.639,348.481,77.746,348.481,77.893z M350.811,121
			c0,0.161,0.241,0.268,0.723,0.321l0.08-0.081v-0.08L350.891,121H350.811z M353.461,121.081l0.241,0.161h0.16
			c0.12,0,0.228-0.348,0.321-1.044l0.401-0.402v-0.161l-0.16-0.16h-0.08l-0.081,0.08c-0.147,0.442-0.415,0.897-0.803,1.365V121.081z
			 M354.746,117.948c0.629-0.602,1.03-1.218,1.204-1.847h-0.16C355.375,116.101,355.027,116.717,354.746,117.948z M354.826,121.402
			v0.161l0.241,0.241v-0.08l-0.081-0.321c0.536-0.241,0.991-0.937,1.366-2.088l0.08-0.482
			C355.549,119.755,355.014,120.612,354.826,121.402z M355.87,115.218v0.161c0.281,0,0.441-0.08,0.482-0.241v-0.161h-0.241
			L355.87,115.218z M356.271,114.254l0.081,0.081h0.401l0.16-0.161l-0.24-0.241C356.433,114.04,356.299,114.147,356.271,114.254z
			 M356.433,118.189v0.161c0.174,0,0.575-0.723,1.204-2.168c0.389-0.321,1.191-2.008,2.41-5.06c0.428-0.656,0.723-1.218,0.883-1.687
			h-0.08c-0.469,0.334-0.79,0.816-0.964,1.445c-0.321,0-0.481,0.348-0.481,1.044c-0.415,0.589-1.245,2.249-2.49,4.979
			C356.593,117.146,356.433,117.574,356.433,118.189z M357.396,111.764v0.161h-0.081l0.081,0.241h0.24l0.161-0.161v-0.241H357.396z
			 M358.279,110.64l0.081,0.08h0.08c0.334-0.643,0.709-0.964,1.124-0.964v-0.161l-0.241-0.241h-0.321
			C358.521,109.703,358.279,110.131,358.279,110.64z M358.922,108.793l0.08,0.241c0.349,0,0.75-0.615,1.205-1.847h-0.241
			C359.632,107.455,359.283,107.99,358.922,108.793z M360.689,105.339l0.08,0.401c-0.321,0-0.482,0.188-0.482,0.563v0.321
			l0.161,0.161c0.856-1.646,1.285-2.69,1.285-3.132v-0.081h-0.161c-0.321,0-0.535,0.509-0.643,1.526L360.689,105.339z
			 M360.85,108.632v0.321c0.147,0,0.254-0.188,0.321-0.563h-0.08L360.85,108.632z M361.091,121.964v0.081
			c0.04,0.161,0.254,0.241,0.643,0.241h0.08l0.16-0.161c-0.228-0.161-0.441-0.241-0.643-0.241L361.091,121.964z M361.412,109.596
			v0.161h-0.081l0.241,0.241v0.08l0.241-0.08v-0.241l-0.161-0.161H361.412z M361.894,102.85l0.08,0.241h0.161
			c0.147-0.054,0.361-0.402,0.643-1.044c0.174,0,0.281-0.294,0.321-0.883l-0.081-0.401h-0.08c-0.16,0.013-0.401,0.576-0.723,1.687
			C362.107,102.475,362.001,102.609,361.894,102.85z M363.018,106.223v0.563h0.321l0.081-0.402v-0.241l-0.161-0.161L363.018,106.223
			z M363.099,122.205v0.08h1.124c0.856-0.04,1.285-0.174,1.285-0.401h-0.08L363.099,122.205z M363.339,105.179v0.241h0.081
			c0.549-0.308,1.004-1.111,1.365-2.41c0-0.241,0.214-0.535,0.643-0.883l-0.081-0.563c0.295,0,0.509-0.428,0.643-1.285
			c0.75-1.86,1.125-2.985,1.125-3.373h-0.081c-0.749,1.205-1.767,3.48-3.052,6.826C363.688,104.095,363.473,104.576,363.339,105.179
			z M363.901,121.081l0.08,0.402h0.241v-0.241l-0.16-0.161H363.901z M366.311,77.893l0.241,0.321h0.161
			c0.214-0.107,0.32-0.268,0.32-0.482l-0.24-0.161C366.472,77.571,366.311,77.679,366.311,77.893z M366.552,122.044v0.08h0.161
			v0.081l4.417-0.081h5.22c1.125,0,1.687-0.08,1.687-0.241c-0.28-0.214-1.298-0.321-3.052-0.321h-1.525
			C370.232,121.563,367.931,121.723,366.552,122.044z M367.676,95.06c0,0.228-0.134,0.468-0.401,0.723v0.321h0.241l0.321-0.402
			V95.22L367.676,95.06z M368.399,93.052l-0.482,0.883l0.08,0.08h0.081c0.268,0,0.401-0.187,0.401-0.562h0.08l-0.08-0.401H368.399z
			 M368.078,91.205h0.16c0.161-0.054,0.241-0.214,0.241-0.482v-0.321C368.346,90.401,368.211,90.669,368.078,91.205z
			 M370.086,88.233h0.08c0.348,0,1.098-1.017,2.249-3.052l0.16-0.643v-0.563C372.2,84.378,371.37,85.797,370.086,88.233z
			 M373.298,82.531c-0.268,0.401-0.401,0.696-0.401,0.883v0.241c0.16-0.093,0.348-0.441,0.563-1.044l-0.081-0.08H373.298z
			 M376.511,75.483l-0.08,0.321l0.08,0.321h0.16l0.081-0.08h0.08C376.711,75.671,376.604,75.483,376.511,75.483z M383.177,119.233
			c-0.215,0.482-0.321,0.937-0.321,1.365c0.08,0.214,0.16,0.321,0.24,0.321c0.161-0.04,0.241-0.254,0.241-0.643v-0.883
			L383.177,119.233z M384.462,120.277l-0.081,0.081v0.401l0.161,0.161l0.241-0.241C384.676,120.438,384.568,120.305,384.462,120.277
			z"/>
		<path fill="#FFFFFF" d="M407.672,75.704c2.142,0.134,3.213,0.375,3.213,0.723v0.241c0,0.602-0.321,1.004-0.964,1.205
			c-0.536,0.321-0.804,0.669-0.804,1.044l1.526,8.593c0,0.924,0.241,1.941,0.723,3.052l1.365,3.534v0.08h-0.08l-0.563-0.08
			c0.804,0.669,1.205,1.606,1.205,2.811c0.281,0.441,0.549,1.352,0.803,2.73c0.214,0.469,0.804,2.771,1.767,6.907l1.768,6.184
			c0.669,1.955,1.499,4.096,2.489,6.425c1.018,3.306,1.66,4.993,1.928,5.06c0.106,0.188,0.535,0.428,1.285,0.723l0.16,0.241
			c0,0.174-0.481,0.87-1.445,2.088c-0.215,0.214-0.509,0.321-0.884,0.321h-0.08l-1.445-0.241l-0.482,0.08
			c-0.896-0.375-2.343-0.669-4.337-0.883c-0.375-0.228-0.562-0.388-0.562-0.482c0-0.361,0.374-0.683,1.124-0.964l0.08-0.401v-0.241
			c-0.375-1.071-0.562-2.008-0.562-2.811v-0.803c0-0.321,0.106-0.482,0.32-0.482c0.269,0,0.482,0.455,0.643,1.365l0.081,0.08h0.24
			c0.094,0,0.174-0.133,0.241-0.401c0-0.964-0.429-1.446-1.285-1.446l-0.08-0.08c-0.16,0-0.241-0.053-0.241-0.161l0.241-1.526
			c-0.603-1.191-1.353-3.226-2.249-6.104c-0.803-2.784-1.204-4.47-1.204-5.06v-0.161l0.24-0.723c-0.294,0-0.509-0.161-0.643-0.482
			c-0.174-0.321-0.468-0.482-0.883-0.482h-0.643c-1.606,0-4.229,0.509-7.871,1.526l-1.767,0.161c0,0.429-0.268,1.339-0.803,2.73
			l-1.044,3.775c-0.269,1.446-1.071,4.685-2.41,9.718c0,0.268,0.509,0.402,1.526,0.402l0.884-0.081
			c0.481,0.027,0.723,0.268,0.723,0.723l0.24-0.321l0.081-0.08h0.16l0.482,0.401h0.08l0.401-0.08l0.08,0.08v0.321
			c0,0.442-2.972,1.031-8.914,1.767c-1.714-0.147-2.57-0.334-2.57-0.563v-0.241c0-0.75,0.429-1.125,1.285-1.125
			c1.231-0.053,1.847-0.214,1.847-0.482v-1.205l0.161-0.161c0.16,0,0.241,0.107,0.241,0.321h0.08l-0.161-1.044
			c0-0.134,0.321-0.535,0.964-1.205l-0.241-0.402v-0.321c0.991-5.514,1.688-8.272,2.089-8.272c1.124-2.677,2.008-5.434,2.65-8.272
			c0.643-2.289,1.739-6.867,3.292-13.734l3.293-10.039l0.161-0.883c-0.054-0.321-0.161-0.535-0.321-0.643
			c-1.313,0.589-2.088,0.884-2.329,0.884l-0.161-0.241v-0.08l0.161-0.482l-0.401-0.563V77.31c0-0.187,0.856-0.535,2.569-1.044
			l0.321-0.161l0.643,0.081C405.557,75.958,406.413,75.798,407.672,75.704z M394.902,113.13v0.321h0.08l0.321-0.321v-0.241h-0.161
			L394.902,113.13z M400.203,104.697l0.24,0.241h0.081l0.401-0.081v-0.161c0-0.08-0.107-0.161-0.321-0.241
			C400.336,104.523,400.203,104.604,400.203,104.697z M405.905,87.43c-0.482,0.937-1.365,3.561-2.65,7.871
			c-0.175,0-0.335,0.643-0.482,1.928c-0.268,0.188-0.723,1.606-1.365,4.256l-0.08,0.08l-0.241,0.321
			c0,0.121,0.241,0.308,0.723,0.563v0.161c0,0.161-0.24,0.268-0.723,0.321l-0.08,0.08v0.081c0,0.161,0.294,0.241,0.884,0.241
			c0.723,0,2.409-0.241,5.06-0.723h0.481c0.268,0,0.615,0.161,1.044,0.482c0.268-0.375,0.589-0.563,0.964-0.563
			c0.268,0.094,0.401,0.228,0.401,0.402h0.081c0.374-0.254,0.562-0.576,0.562-0.964l-2.569-6.987
			c-0.402-2.235-0.67-3.52-0.804-3.855c-0.147,0-0.281-0.455-0.401-1.365c-0.188,0-0.375-0.696-0.563-2.088L405.905,87.43z
			 M401.327,96.746v0.401h0.321v-0.08c-0.08-0.214-0.161-0.321-0.241-0.321H401.327z M407.511,88.715v0.08l0.161,0.321h0.241v-0.241
			l-0.161-0.161H407.511z M408.796,95.3v0.081l0.161,0.16h0.24v-0.16h0.081l-0.081-0.241h-0.24L408.796,95.3z M414.418,115.057
			v0.081l0.161,0.161c0.093,0,0.2-0.188,0.321-0.563l-0.081-0.241h-0.08C414.525,114.575,414.418,114.763,414.418,115.057z
			 M415.462,122.687l0.161,0.161h0.401l0.16-0.161v-0.081l-0.16-0.161h-0.321L415.462,122.687z M416.024,123.49v0.241l0.241,0.241
			l0.24-0.161c-0.107-0.321-0.214-0.481-0.321-0.481L416.024,123.49z"/>
	</g>
	<g>
		<g>
			<g>
				<polygon fill="#FFFFFF" points="86.664,42.703 94.065,43.839 91.696,34.606 				"/>
				<g>
					<polygon fill="#FFFFFF" points="89.615,44.537 89.781,44.639 89.327,44.346 					"/>
					<path fill="#FFFFFF" d="M88.646,43.824c-0.086-0.058-0.214-0.145-0.301-0.204c0,0,0.312,0.229,0.623,0.458
						c0.318,0.219,0.636,0.438,0.636,0.438C90.331,44.999,88.149,43.515,88.646,43.824z"/>
					<path fill="#FFFFFF" d="M88.781,43.899c0.302,0.196-0.279-0.236-0.474-0.391C88.756,43.848,88.141,43.449,88.781,43.899z"/>
					<path fill="#FFFFFF" d="M89.6,41.901c0.002,0.02,0.005,0.048,0.008,0.075C89.616,42.007,89.612,41.971,89.6,41.901z"/>
					<path fill="#FFFFFF" d="M89.606,37.237l-0.059-0.998c0.002,1.942-0.284,0.422-0.347,1.38l-0.032-0.338
						c-0.198,0.107-0.333,0.674-0.406,1.298c-0.076,0.629-0.089,1.315-0.128,1.795c-0.027-0.095-0.083-0.287-0.112-0.387
						c0.067,0.271,0.207,0.746,0.175,0.709c-0.059-0.154-0.11-0.339-0.129-0.415c-0.473-1.045,0.102,0.983-0.264,0.177
						c0.031,0.143,0.215,0.601,0.367,0.933c-0.051,0.538-0.143,1.032,0.227,1.854c-0.09-0.103-0.261-0.32-0.473-0.601
						c0.441,0.755,0.577,0.978,0.541,1.051c-0.033,0.067-0.238-0.013-0.389-0.008c0.324,0.25,0.353,0.249,0.687,0.517
						c0.409,0.3-0.742-0.698-0.148-0.251l0.295,0.268c0.2,0.156-0.744-0.677-0.348-0.355c0.268,0.248,0.333,0.308,0.396,0.365
						c-0.092-0.16,0.164,0.102-0.455-0.708c0.581,0.68,0.059-0.041,0.6,0.638c-0.204-0.298-0.221-0.323-0.504-0.736
						c0.204,0.098,0.194-0.063,0.19-0.324c-0.009-0.254-0.012-0.61,0.082-0.699c-0.282-1.11-0.176-1.131-0.055-0.917
						c0.128,0.203,0.268,0.646,0.241,0.167c0.016,0.088,0.031,0.176,0.044,0.249c-0.078-0.646-0.06-1.038,0.026-0.787l-0.099-1.165
						c0.295,0.883,0.394,0.927,0.521,0.726c0.116-0.183,0.261-0.611,0.34-0.172c0.076,0.167,0.102,0.617,0.124,0.874
						c0.026,0.251,0.047,0.31,0.215-0.467c0.045-0.567,0.164-1.458,0.445-2.607c-0.072,0.311-0.092,0.401-0.154,0.671
						c0.081-0.354,0.054-0.199,0.018-0.082c-0.034,0.125-0.075,0.213,0.027-0.08l-0.097,0.276c0.406-1.15,0.433-0.861,0.425-0.766
						c0.006,0.152-0.023,0.116,0.659-0.174c-0.027,0.486,0.283,1.103,0.916,1.879l-0.354-0.062c0.442,0.335,0.236,0.58-0.026,0.691
						c-0.257,0.132-0.57,0.13-0.205,0.51c-0.393-0.038,0.225,0.484,0.855,1.179c0.622,0.663,1.255,1.501,0.674,1.234
						c-0.273-0.203-0.429-0.306-0.495-0.329c-0.402-0.253,0.091,0.33,0.32,0.739c0.246,0.412,0.239,0.65-0.681-0.218
						c-1.681-1.525-1.965-1.795-2.028-1.524c-0.04,0.275,0.144,1.091,0.016,1.831c-0.588-0.542-0.806-0.221-1.208-0.046
						c-0.366,0.181-0.914,0.216-1.181-0.748c-0.512,1.104-0.453-1.532-0.861-1.253l-0.049,0.402c0.06-1.233-0.542,1.653-0.345-0.161
						l0.026-0.082c0.073-0.924-0.487,2.135-0.361,1.038l-0.08,0.452c-0.102,0.119,0.069-0.514,0.034-0.704
						c-0.032,0.053-0.135,0.823-0.145,0.555c0.273-1.852-0.261,0.371,0.053-1.709c0.044,0.007,0.054-0.816,0.221-1.236
						c0.004-0.217-0.147-0.135-0.271,0.749c-0.155,0.935-0.334,1.742-0.362,2.479l0.122-0.679c-0.08,0.688-0.041,0.349-0.1,0.857
						c0.094,0.106-0.043,1.101-0.028,1.521c0.003-0.021,0.005-0.036,0.01-0.072c0.179-0.809,0.178-0.315,0.202-0.189l-0.042,0.382
						c-0.097,0.797,0.361-1.533,0.119-0.175c0.271-0.305,0.521-0.25,0.769-0.229c0.114-0.514,0.181,0.077,0.281-0.931
						c-0.113,1.147,0.025,1.464,0.1,1.431c-0.019,0.106-0.041,0.227-0.045,0.183c-0.07,1.501,0.311-1.351,0.268,0.49
						c0.187-1.279,0.4,0.48,0.63-1.02c0.009,0.292,0.007,0.552-0.016,0.78c0.396,0.088,0.885,0.636,1.279,0.756
						c0.085-0.559,0.272-0.4,0.47-0.295c0.191,0.104,0.389,0.155,0.298-0.649c0.266,0.371,0.868,1.127,0.926,0.502l0.046,0.197
						c0.292-0.047,0.698-0.067,0.365-1.11c0.892,1.651,0.887,1.349,1.316,1.896c-0.185-0.731,0.404-0.432,0.264-1.091
						c0.569,0.785,0.031-0.292,0.831,0.846c-0.275-1.021-0.18-1.326,0.391-1.127c0.565,0.198,1.62,0.901,3.074,1.865l0.073,0.083
						c-0.54-0.64-1.955-2.087-2.8-2.938c0.127,0.11,0.341,0.309,0.316,0.303c-0.053-0.1,0.255,0.136,0.585,0.384
						c0.259,0.181,0.525,0.359,0.378,0.169c0.222,0.197,0.222,0.197,0.44,0.409c-0.629-0.655,0.981,0.6-0.09-0.455l0.346,0.282
						l-0.517-0.519c0.434,0.36,1.088,0.904,0.964,0.854c0.016-0.59-0.639-1.737-1.255-2.697c-0.623-0.986-1.208-1.785-1.228-2.362
						l0.369,0.171l-0.699-0.459c0.19,0.061,0.283,0.1,0.37,0.139c0.542-0.153-0.581-0.765-0.498-1.005
						c0.174,0.029,0.533,0.138,0.718,0.125c-1.027-0.364,1.143-0.271-0.876-0.589c0.087-0.002,0.533,0.027,0.699,0.066
						c-0.835-0.75-0.923-1.233-0.816-2.044c-0.911-0.131-1.004-0.331-1.085-0.661c-0.072-0.294-0.133-0.722-0.729-0.333l0.268-0.318
						c-0.555,0.228-0.583,0.036-0.569-0.471c0.021-0.476,0.084-1.271-0.074-1.409c-0.001-0.551-0.262,0.045-0.331-0.136l0.2-0.92
						c-0.478,1.653-0.279,0.407-0.225-0.82c0.011-0.586-0.064-0.84-0.427,1.275l0.2-1.41c-0.317,2.196-0.054-0.507-0.493,3.09
						l0.099-1.033c-0.355,2.477-0.325,1.987-0.315,1.363c0.019-0.638,0.014-1.404-0.193,0.166l0.078-0.811
						c-0.1,0.692-0.182,1.246-0.163,0.586c0.014-0.144,0.027-0.287,0.054-0.567c0.037-1.415-0.076-1.163-0.184-0.592
						c-0.113,0.579-0.22,1.475-0.294,1.541l0.054-1.363c-0.118,1.686-0.239,0.488-0.35,1.356l0.001-0.605l-0.043,0.916l-0.02-1.172
						C89.819,35.711,89.721,36.916,89.606,37.237z"/>
					<path fill="#FFFFFF" d="M88.568,40.282c0.003,0.007,0.004,0.009,0.01,0.023C88.558,40.231,88.559,40.242,88.568,40.282z"/>
					<path fill="#FFFFFF" d="M86.513,45.643c-0.005-0.034-0.008-0.074-0.008-0.129C86.488,45.639,86.508,45.619,86.513,45.643z"/>
				</g>
			</g>
			<g>
				<polygon fill="#FFFFFF" points="91.516,37.872 91.3,37.964 91.771,38.394 				"/>
				<path fill="#FFFFFF" d="M92.292,40.27c0.11-0.045,0.264,0.015,0.376-0.032l-1.28-1.56C90.424,39.092,92.938,39.999,92.292,40.27
					z"/>
				<path fill="#FFFFFF" d="M92.072,40.619c-0.446,0.431,0.226,0.768,0.448,0.929C92,41.272,92.86,40.653,92.072,40.619z"/>
				<path fill="#FFFFFF" d="M82.593,52.516c0.037,0.06,0.093,0.12,0.139,0.157C82.683,52.535,82.634,52.492,82.593,52.516z"/>
				<path fill="#FFFFFF" d="M77.744,54.177l0.385,1.078c-0.146-1.139-0.082-2.071,0.038-2.758c0.122-0.7,0.3-1.15,0.443-1.663
					c0.313,0.662,0.583,1.168,0.847,1.36l-0.021,0.39c1.12,2.291,2.093,3.692,3.561,5.826c0.79,1.146,1.579,2.292,2.375,3.446
					c0.669,0.953,1.344,1.914,2.032,2.892c-0.041,0.058-0.064,0.368-0.112,0.42c0.147-0.147,0.271-0.692,0.39-0.376
					c0.039,0.344-0.023,0.527-0.067,0.563c0.204,1.115,0.527,1.725,0.796,2.025c0.276,0.314,0.487,0.299,0.682,0.557
					c0.043-0.416,0.107-0.56,0.239-0.226c0.008-0.605-0.186-1.745-0.374-2.407c0.23-1.914,0.45-3.684,0.566-5.248
					c0.029-1.091,0.319-3.945,0.349-6.169c0.169-0.193,0.432-0.186,0.744-0.066c-0.809-4.142,0.544-8.078,1.52-11.983
					c-0.372-0.226-0.498,0.325-0.844-0.141c-0.732,1.178,0.553,2.507-0.388,3.525l-0.358-0.219c-0.403,0.792,0.941,0.35,0.283,1.127
					c-0.385,0.283-0.476-0.176-0.534-0.022c-0.169,1.811-0.861,3.605-0.233,5.456c-0.915,0.26-0.382,1.909-1.307,2.419
					c0.248,0.522,0.078,0.969,0.601,1.247c-0.279,1.073-0.535,2.24-0.736,3.265c-0.072,0.328-0.116,0.657-0.154,1.038
					c-0.082,0.972-0.165,1.95-0.248,2.931c-0.305-0.397-0.696-0.998-1.069-1.723c-0.262,0.382-0.585,0.178-0.851-0.192
					c-0.134-0.187-0.255-0.418-0.358-0.658c-0.051-0.12-0.098-0.243-0.141-0.366c-0.049-0.134-0.058-0.203-0.158-0.443
					c-0.157-0.41-0.316-0.824-0.476-1.241l-0.245-0.626l-0.414-0.908c-0.588-1.249-1.273-2.547-1.992-3.579
					c0.008-0.107,0.038-0.182,0.078-0.209c-1.078-1.128-2.177-2.746-3.168-4.995c0,0-0.188,0.019-0.348,0.092
					c-0.162,0.068-0.293,0.192-0.293,0.192c-0.34-0.784-0.68-1.569-1.029-2.372c-0.614,1.802-1.249,4.378-1.851,7.154
					c-0.302,1.392-0.596,2.84-0.883,4.303l-0.686,3.596c-0.733,3.964-1.404,7.955-2.421,11.869
					c-1.098,4.754-2.33,9.175-3.239,13.625c-0.455,2.225-0.829,4.456-1.064,6.74c-0.118,1.142-0.202,2.297-0.243,3.47
					c-0.021,0.587-0.032,1.178-0.031,1.775l0.005,0.435l0.043,0.26l0.086,0.593c-0.145-0.093-0.235-0.106-0.271-0.266
					c0.018,0.81-0.186,1.547-0.356,2.107c-0.176,0.597-0.319,1.022-0.354,2.146l-0.086-0.425c0.031,1.681-0.11,3.301-0.288,4.63
					c-0.181,1.345-0.397,2.395-0.599,3.387l-0.038,0.181l-0.042-0.216l-0.081-0.425l-0.158-0.805
					c-0.105-0.511-0.212-0.961-0.327-1.334c-0.232-0.753-0.495-1.164-0.919-1.421c-0.292-1.677-0.592-3.298-0.911-4.925
					c-0.324-1.653-0.635-3.144-1.089-5.269c-0.852-3.967-1.783-7.975-2.755-11.835l0.325-0.046
					c-1.904-6.11-1.391-12.482-3.124-18.611c-0.531-6.551-4.427-12.813-4.723-19.468c0.182-0.991,0.088-1.997-0.152-3.007
					c-0.269-1.157-0.673-2.257-1.049-3.111c-0.379-0.871-0.731-1.5-0.982-2.15c-0.254-0.665-0.408-1.36-0.464-2.73
					c-0.124,0.061-0.234,0.049-0.345-0.024c-0.646,0.075-1.688,1.104-2.811,2.517c-0.562,0.708-1.147,1.516-1.724,2.366
					l-0.857,1.303l-0.628,1.011c-0.809,1.35-1.532,2.75-2.203,4.187c-0.159,0.345-0.351,0.751-0.475,1.053l-0.391,0.957
					l-0.948,2.273c-0.549-0.201-1.165-0.437-1.854-0.718c-0.725-0.304-1.453-0.608-2.183-0.913
					c-0.767-0.645-1.567-1.239-2.388-1.798c-0.411-0.28-0.827-0.55-1.247-0.814l-0.623-0.384l-0.548-0.324
					c-1.467-0.854-2.764-1.49-3.884-2.085c0.183,2.879,0.199,4.317-0.624,7.979c1.161,3.333-1.423,7-1.145,10.7l0.406-0.13
					c-1.242,1.315,1.684,2.98-0.147,3.79l-0.083-0.142c-0.932,0.691,2.166,1.663,1.058,2.076l0.458,0.12
					c0.124,0.855-0.52,0.094-0.709,0.749c0.054,0.249,0.833,0.107,0.564,0.619c-1.867,0.08,0.371,2.1-1.736,2.114
					c0.011-0.466-0.832,0.711-1.248-0.345c-0.222,0.293-0.151,1.721,0.744,1.614c0.944,0.145,1.757,0.721,2.51-0.13l-0.686-0.19
					c0.697-0.276,0.35-0.214,0.87-0.307c0.117-1.134,1.126-1.253,1.554-2.084c-0.021,0.009-0.037,0.017-0.072,0.004
					c-0.821-0.571-0.324-1.333-0.199-1.773l0.386-0.17c0.806-0.258-1.556-1.314-0.181-0.951c-0.317-2.315-0.272-4.963-0.261-7.545
					c-0.516-0.366,0.054-1.975-0.956-1.417c1.151-0.639,1.443-2.556,1.399-3.27c0.108,0.028,0.231,0.058,0.188,0.169
					c1.494-1.376-1.382-1.643,0.444-2.932c-1.292-0.206,0.414-2.353-1.103-3.089c0.287-0.159,0.544-0.213,0.773-0.152
					c0.027-0.819,0.495-0.375,0.553-0.229c-0.015-0.028-0.03-0.057-0.047-0.088c-0.478-0.928-0.147-0.552-0.07-0.417
					c0.134,0.172,0.05,0.127,0.396-0.566c-0.31,0.188,1.413,2.09,3.065,2.417l-0.239,0.069c0.41,0.236,0.846,0.486,1.287,0.74
					c0.575,0.309,1.157,0.621,1.718,0.922c1.551,0.824,2.929,1.403,3.686,1.31c0.323,0.807,0.714,1.418,1.143,1.93
					c0.574-0.187,1.116-1.105,1.849-1.68c0.242-0.715,0.574-1.47,0.96-2.256c0.195-0.381,0.401-0.784,0.615-1.201
					c0.101-0.191,0.204-0.385,0.309-0.583l0.166-0.349c0.451-0.938,0.954-1.943,1.196-2.927c0.742,0.115,0.592-1.503,1.496-1.056
					c0.094-0.432,0.205-0.862,0.332-1.29l0.098-0.321c0.018-0.082-0.01-0.088-0.01-0.138c-0.011-0.081-0.015-0.167-0.011-0.259
					c0.015-0.366,0.142-0.806,0.317-1.233c0.354-0.858,0.892-1.641,1.19-1.775c0.069,1.532-0.074,3.111-0.534,3.681l-0.061,0.056
					c0.236-0.226,0.634-0.491,1.084-0.595c0.449-0.112,0.95-0.063,1.351,0.128c-0.078,0.072-0.239,0.096-0.256-0.003
					c0.037,0.065,0.061,0.165,0.081,0.309c0.017,0.129,0.019,0.26,0.013,0.392c-0.013,0.264-0.062,0.533-0.111,0.802
					c-0.099,0.538-0.197,1.076-0.005,1.574c-0.165,0.023-0.165,0.023-0.353-0.113c0.628,0.881-0.394,2.155,0.593,3.147l-0.248,0.115
					l0.507,0.654c-0.329,0.046-0.823,0.115-0.793-0.294c1.425,8.929,4.909,17.747,6.454,26.897l-0.374-0.273l0.899,1.655
					c-0.167,0.023-0.262-0.045-0.352-0.115c-0.111,2.358,1.266,4.508,1.558,6.727c-0.16,0.021-0.54-0.248-0.659,0.095
					c1.205,1.445-0.64,2.835,1.36,3.28c-0.069,0.092-0.475,0.227-0.656,0.091c0.749,2.195,1.342,4.453,1.822,6.737
					c0.24,1.143,0.452,2.292,0.641,3.443c0.278,1.581,0.571,3.347,0.846,5.109c0.623,0.964,1.033,1.896,1.365,2.978
					c0.33,1.073,0.583,2.299,0.838,3.592c0.252,1.281,0.508,2.628,0.783,3.655c0.273,1.016,0.566,1.709,0.837,1.403l-0.06,1.38
					c0.175,0.145,0.33,0.382,0.476,0.728c0.073,0.173,0.144,0.373,0.213,0.599l0.107,0.36l0.027,0.097
					c0.009-0.003,0.017-0.095,0.024-0.137l0.049-0.315c0.259-1.646,0.518-2.825,0.805-3.99c0.304-1.206,0.61-2.417,0.916-3.628
					c0.315-1.321,0.635-2.83,0.884-4.47c0.284-1.147,0.445-2.353,0.571-3.484c0.129-1.144,0.224-2.218,0.436-3.406l0.414,0.082
					c-0.083-0.642-0.127-1.105-0.111-1.594c0.017-0.488,0.087-0.971,0.193-1.451c0.213-0.96,0.569-1.908,0.921-2.863
					c0.704-1.908,1.391-3.84,0.883-5.939l0.515,0.373c-0.763-0.764,0.746-2.286-0.796-2.336l0.582-0.599
					c-1.485-3.001,1.811-4.618,1.129-8.083l0.316,0.278c-0.115-0.909-0.148-1.95,0.297-2.523c0.033,0.108,0.146,0.082,0.202,0.303
					c1.909-2.422,0.914-5.702,1.497-8.525l0.602,0.445c-0.521-1.515,0.672-3.892,0.651-5.759l0.292,0.168l-0.269-0.993l0.629,0.093
					c0.266-1.298,0.267-1.993,0.32-3.046C77.511,56.468,77.576,55.271,77.744,54.177z"/>
				<path fill="#FFFFFF" d="M87.614,65.354c-0.003-0.017-0.008-0.042-0.011-0.063C87.572,65.353,87.587,65.367,87.614,65.354z"/>
				<path fill="#FFFFFF" d="M27.836,70.404c-0.034,0.11-0.074,0.2-0.13,0.291C27.833,70.675,27.813,70.498,27.836,70.404z"/>
			</g>
		</g>
		<g>
			<polygon fill="#FFFFFF" points="83.712,8.306 83.798,8.583 84.507,8.374 			"/>
			<path fill="#FFFFFF" d="M87.362,9.05c-0.037-0.137,0.095-0.248,0.056-0.388c0,0-0.658,0.063-1.316,0.126
				c-0.639,0.074-1.277,0.148-1.277,0.148C85.159,10.143,87.118,8.231,87.362,9.05z"/>
			<path fill="#FFFFFF" d="M87.801,9.515c0.459,0.782,1.144,0.388,1.447,0.302C88.691,10.106,88.09,8.76,87.801,9.515z"/>
			<path fill="#FFFFFF" d="M124.487,70.416c-0.017-0.041-0.061-0.108-0.103-0.165C124.374,70.292,124.417,70.351,124.487,70.416z"/>
			<path fill="#FFFFFF" d="M107.695,73.001l-0.208,0.577c3.724-1.027,7.926,0.018,11.866-0.434l-0.267,0.206
				c0.625,0.01,1.247,0.019,1.866,0.029c0.652,0.001,1.301,0.002,1.948,0.003c1.484-0.005,2.948-0.026,4.357-0.06l1.046-0.027
				c-0.091-0.323-0.236-0.684-0.352-1.021l-0.734-2.023l-0.726-1.954c-0.241-0.647-0.476-1.267-0.701-1.798
				c-1.812-4.455-3.759-8.838-5.833-13.336c0.116,0.119,0.292,0.104,0.413,0.228c-0.362-0.37-0.9-0.722-1.054-1.237
				c0.069-0.179,0.308,0.036,0.423,0.175c0.068-2.301-2.931-5.425-2.834-6.891c-0.34-0.492-0.811-0.56-0.95-0.137
				c-3.42-6.907-7.507-14.14-12.547-20.066c-0.1-0.384,0.074-0.591,0.4-0.695c-1.3-1.116-2.509-2.292-3.638-3.535
				c-1.215-1.162-2.309-2.436-3.447-3.663c-2.313-2.403-4.571-4.917-7.192-6.917c-0.442,0.182,0.281,0.737-0.487,0.704
				c0.69,0.808,1.612,1.148,2.443,1.631c0.847,0.449,1.675,0.919,2.144,1.818l-0.452,0.126c0.846,1.114,0.894-0.531,1.569,0.861
				c0.169,0.642-0.452,0.252-0.287,0.464c1.082,1.012,2.146,2.079,3.125,3.228c1.001,1.123,2.118,2.111,3.321,2.991
				c-0.276,1.094,1.973,2.585,1.891,4.017c0.713,0.457,1.08,1.158,1.716,1.093c5.509,9.089,10.926,18.727,14.921,29.074
				c0.877,1.048,1.507,2.271,2.055,3.572c0.543,1.304,0.992,2.694,1.365,4.142c0.189,0.722,0.38,1.452,0.572,2.187l0.293,1.104
				l0.144,0.53l0.061,0.293c0.168,0.778,0.356,1.42,0.793,2.316c-0.072-0.033-0.158-0.097-0.229-0.161
				c0.175,0.217,0.065,0.224-0.01,0.271c-0.078,0.044-0.177,0.084-0.292,0.12c-0.232,0.072-0.534,0.127-0.874,0.164
				c-0.169,0.018-0.348,0.032-0.53,0.04l-0.274,0.009l-0.35,0c-0.648-0.004-1.285-0.031-1.889-0.083l-2.046,0.699
				c-2.772-0.273-5.556-0.458-8.352-0.582c-1.398-0.048-2.799-0.096-4.203-0.144c-1.996-0.024-3.996-0.049-6-0.074
				c-0.008,2.861-0.017,5.73-0.025,8.603c0.005,2.279,0.01,4.562,0.015,6.847c0.002,4.569-0.028,9.145-0.213,13.711
				c-0.156,4.885-0.306,9.594-0.454,14.219c-0.062,2.313-0.123,4.604-0.183,6.887c-0.016,1.079-0.032,2.155-0.047,3.231
				c-0.009,0.304-0.012,0.6-0.005,0.909l-0.643,0.028l-0.335,0.025l-1.226,0.033c-1.636,0.049-3.277,0.122-4.929,0.221
				c-3.302,0.198-6.643,0.505-10.056,0.958c0.021-0.16-0.11-0.251,0.312-0.315c-4.716,0.332-9.012-0.26-13.453,0.083l0.014-0.162
				c-11.019,1.358-22.936-0.182-33.558,1.283c-1.369-0.013-2.76-0.025-4.367-0.04c0.003-2.683,0.006-5.44,0.009-8.244
				c-0.024-3-0.049-6.049-0.075-9.116c-0.077-6.133-0.209-12.338-0.394-18.361l0.327,0.032c-0.202-3.213-0.196-6.394-0.1-9.563
				c0.048-1.584,0.119-3.166,0.198-4.747l0.245-5.531c-1.342-0.051-2.687-0.102-4.033-0.153c-1.141-0.034-2.284-0.068-3.43-0.102
				c-2.233-0.044-4.478-0.033-6.736,0.075c-1.405-0.093-2.82-0.133-4.242-0.135c-0.711,0.009-1.424,0.017-2.139,0.025L9.07,71.57
				l-0.787,0.042l-1.665,0.111L5.722,71.79l-0.466,0.036l-0.119,0.009c-0.043,0.005-0.088,0.012-0.063-0.033l0.042-0.19
				c0.254-1.126,0.509-2.255,0.764-3.385c0.131-0.597,0.323-1.314,0.513-2.016l0.571-2.098c0.377-1.4,0.795-2.786,1.261-4.15
				c0.889-2.746,1.984-5.403,3.264-7.94c1.042-1.466,1.876-3.156,2.575-4.977c0.739-1.801,1.383-3.718,2.028-5.629
				c0.707-1.881,1.373-3.78,2.217-5.49c0.875-1.694,1.8-3.267,3.006-4.471c4.501-5.206,8.41-10.435,12.691-15.403
				c1.113-1.196,2.114-2.521,3.309-3.647l1.727-1.778c0.57-0.606,1.227-1.105,1.839-1.673c0.626-0.542,1.24-1.138,1.883-1.651
				l2.118-1.545l1.174-0.844c0.047-0.025,0.108-0.098,0.146-0.084l0.091,0.125l0.184,0.254l0.377,0.523l1.633,2.309
				c2.461,5.167,5.479,9.973,8.462,14.776c1.49,2.399,2.969,4.794,4.358,7.222c0.695,1.214,1.368,2.437,2.009,3.672
				c0.317,0.613,0.64,1.251,0.93,1.853l0.697,1.562c0.554,0.086,1.099,0.172,1.644,0.257c0.175-0.217,0.348-0.429,0.52-0.641
				c0.378-1.26,1.097-2.641,1.89-3.886c0.805-1.266,1.737-2.492,2.703-3.723c1.931-2.462,3.992-4.943,5.417-7.799l-0.465,0
				c2.196-1.384,1.022-5.282,3.312-5.625l-0.046,0.253c1.402-0.599-0.512-3.525,0.811-3.621l-0.303-0.397
				c0.608-1.342,0.537,0.104,1.254-0.79c0.161-0.399-0.646-0.552,0.021-1.195C83.424,10.713,83.12,6.632,85,7.581
				c-0.396,0.699,1.329-0.691,0.823,1.093c0.441-0.34,1.562-2.528,0.677-2.778c-0.72-0.65-0.965-1.892-2.34-0.954l0.452,0.602
				c-0.848,0.097-0.489,0.163-1.027,0.064c-1.042,1.653-2.043,1.384-3.094,2.399c0.025-0.003,0.046-0.008,0.067,0.028
				c0.247,1.242-0.83,2.15-1.309,2.75l-0.483,0.074c-0.925,0.004,0.271,2.706-0.636,1.51c-1.659,3.62-3.917,7.57-6.088,11.434
				c0.15,0.8-1.716,2.93-0.359,2.586c-1.549,0.397-3.43,3.123-3.996,4.212c-0.071-0.094-0.153-0.199-0.021-0.344
				c-1.236,0.665-1.282,1.448-1.356,2.194c-0.037,0.373-0.08,0.737-0.282,1.073c-0.102,0.167-0.242,0.328-0.441,0.479
				c-0.1,0.076-0.214,0.149-0.346,0.219c-0.064,0.032-0.14,0.076-0.207,0.097c-0.045-0.018-0.093-0.04-0.144-0.066
				c0.484,0.304,0.356,0.5,0.226,0.603c0.326-0.049,0.857-0.126,1.144,0.013c-0.096,0.011-0.256,0.088-0.548,0.243
				c0.161-0.297,0.362-0.464,0.546-0.605l-0.049-0.107l-0.357-0.669c-0.235-0.455-0.472-0.913-0.708-1.372
				c-0.458-0.927-0.918-1.857-1.369-2.77c-0.891-1.832-1.741-3.598-2.553-5.087c-2.412-1.964-3.016-6.359-5.604-7.757
				c-0.735-1.958-1.812-5.188-3.779-7.388l0.302,0.151c-0.424-0.695-0.874-1.433-1.329-2.179l-1.048-1.715
				c-0.41-0.657-0.817-1.31-1.217-1.95c-0.398-0.625-0.787-1.218-1.159-1.764l-0.276-0.401c-0.134,0.039-0.295,0.191-0.438,0.28
				c-0.29,0.209-0.573,0.414-0.85,0.614c-1.094,0.808-2.017,1.563-2.681,2.234c-0.407-0.195-0.881-0.221-1.392-0.144
				c-0.255,0.039-0.519,0.104-0.79,0.188L40.64,4.771l-0.248,0.091c-0.659,0.264-1.295,0.67-2.051,0.925
				c-0.368,0.489-0.9,1.003-1.494,1.575c-0.56,0.604-1.205,1.245-1.877,1.909c-1.394,1.284-2.667,2.858-3.656,4.298
				c-0.918-0.115-1.673,2.306-2.542,1.784c-2.472,4.276-5.224,8.773-8.102,13.305c-1.478,2.245-2.875,4.547-4.376,6.768
				c-1.4,2.264-2.923,4.444-4.283,6.596l-0.003-0.163c-0.047,1.429,0.405,3.289,0.535,4.782c-0.133,0.083-0.277,0.003-0.166-0.25
				c-0.544,1.748-2.13,2.927-2.671,4.683c-0.146-0.077-0.151-0.078-0.182-0.411c-0.225,1.754-2.057,2.997-2.085,5.162l-0.289,0.01
				l-0.102,1.337C6.75,57.026,6.3,56.803,6.641,56.195C6,57.82,5.379,59.46,4.777,61.113c-0.567,1.663-1.118,3.338-1.656,5.021
				c-0.831,2.728-1.664,5.462-2.499,8.203l-0.153,0.511l-0.076,0.255c-0.014,0.077-0.103,0.207,0.049,0.166l1.167-0.026l2.31-0.054
				l4.509-0.113c3.61-0.153,7.233-0.308,10.862-0.461l5.321-0.177l3.6-0.098l0.008,1.41l-0.024,2.197l-0.314-0.586l0.563,3.096
				c-0.168-0.017-0.249-0.164-0.323-0.312c-0.563,3.942,0.373,8.034,0.232,11.876c-0.161-0.018-0.482-0.6-0.665-0.062
				c0.904,2.844-1.174,4.569,0.703,5.993c-0.085,0.132-0.51,0.223-0.661-0.067c0.623,7.914,0.587,16.039,0.283,24.011
				c0.125,0.488,0.232,0.981,0.325,1.478l0.128,0.747c0.039,0.237,0.074,0.665,0.106,0.979c0.129,1.359,0.208,2.645,0.256,3.942
				c1.65-0.057,3.257-0.07,4.831-0.071c1.25-0.001,2.504-0.003,3.757-0.005c2.506-0.026,5.005-0.143,7.439-0.619l-0.034,0.339
				c8.929-1.188,18.401,0.081,27.656-0.156c3.843,0.136,6.439-0.265,10.301-0.287l0.097,0.422c2.953-0.73,6.042-0.499,9.17-0.194
				c1.564,0.152,3.137,0.322,4.708,0.4c0.411,0.019,0.744,0.033,1.218,0.039c0.497,0.006,0.995,0.004,1.485-0.006
				c0.981-0.021,1.935-0.081,2.767-0.19c-0.088-0.851-0.21-1.684-0.372-2.453c0-0.021,0.575,0.853,0.575,0.874
				c-0.445-0.92-0.367-2.036-0.368-3c-0.001-0.844-0.082-1.506-0.844-1.306l0.461-1.197c-2.011-4.607,0.931-8.385-0.375-14.031
				l0.361,0.371c-0.28-1.501-0.503-3.251-0.171-4.363c0.052,0.174,0.159,0.093,0.254,0.45c1.432-4.702-0.15-9.935-0.095-14.896
				l0.673,0.563c-0.79-2.397-0.055-6.796-0.418-9.948l0.318,0.192l-0.446-1.595l0.635-0.042c0.022-2.178-0.093-3.316-0.227-4.978
				c0.831-0.073,1.65-0.145,2.469-0.217l1.48-0.085C106.652,73.035,107.173,73.018,107.695,73.001z"/>
			<path fill="#FFFFFF" d="M119.738,52.329c-0.001,0.013,0.005,0.03-0.002,0.048C119.833,52.469,119.805,52.416,119.738,52.329z"/>
			<path fill="#FFFFFF" d="M80.132,8.382c0.122-0.148,0.233-0.265,0.358-0.375C80.362,7.977,80.232,8.252,80.132,8.382z"/>
		</g>
	</g>
</g>
</svg>
